<svg xmlns="http://www.w3.org/2000/svg" fill="none" viewBox="0 0 640 320">
  <path fill="#F03C2E" fill-rule="evenodd" d="m167.9 42.6 106.5 106.5a15.7 15.7 0 0 1 0 22.3l-106 106a15.7 15.7 0 0 1-22.3 0L39.6 170.9a15.7 15.7 0 0 1 0-22.3l73-73 27.7 27.7a18.7 18.7 0 0 0 10.2 24.5v67a18.7 18.7 0 0 0 14.2 34.6 18.7 18.7 0 0 0 1.1-34v-66.5l25.3 25.3a18.7 18.7 0 1 0 11.2-10.6l-27-27a18.7 18.7 0 0 0-23.7-23.8l-28-28 22-22.2a15.7 15.7 0 0 1 22.3 0Zm-37 155.9a11.2 11.2 0 0 0 7.9-19.1l-3.5-3.6a60 60 0 0 0 4.8-8.8c6.7-15.2 4.3-29.5-6.6-40.5-13.3-13.2-37-21.1-58.1 0-14.4 14.3-15.6 37.3-2.7 50.2A11.2 11.2 0 1 0 88.6 161c-2.7-2.7-3.8-12 2.6-18.5 8-8 18.5-8 23.8-2.7 10.6 10.6-1 27.5-2.6 29a11.2 11.2 0 0 0 0 16l10.5 10.5c2.1 2.1 5 3.3 8 3.3Z" clip-rule="evenodd"/>
  <path fill="var(--theme-background-invert, #515151)" d="M372.4 84.4a179.1 179.1 0 0 0-10.6 15.4l-2.9 5.5h13.5v-21Zm11.8-14.8v35.7h6.4v9.7h-6.4v14h-11.8v-14h-24.8v-8.7a179.3 179.3 0 0 1 26-36.8h10.6Zm24 35.4c0 3.7.6 6.6 2 8.5 1.3 2 3.4 3 6.3 3 1.3 0 2.5-.2 3.6-.6 1.1-.3 2.1-.7 3-1.2V93a20.4 20.4 0 0 0-4.6-.5c-6.9 0-10.3 4.2-10.3 12.5Zm26.8 18.5c0 7.4-1.7 12.8-5.3 16.3-3.5 3.6-9.2 5.3-17.1 5.3a38 38 0 0 1-8.2-.8 83 83 0 0 1-7.4-2l2.2-10 5.9 1.9c2 .6 4.6 1 7.7 1 2 0 3.7-.3 5-.8a7.1 7.1 0 0 0 4.8-4.9c.4-1.1.5-2.3.5-3.6v-1.8c-1.6.6-3.2 1.1-4.6 1.4a19 19 0 0 1-4.4.5c-5.9 0-10.3-1.8-13.4-5.5a24 24 0 0 1-4.5-15.5c0-7.4 2-13 6.1-16.6a24 24 0 0 1 16.7-5.5c5 0 10.3.8 16 2.4v38.2Zm51.3-17.2a30 30 0 0 1-1.5 9.8 22 22 0 0 1-4.3 7.5 19 19 0 0 1-6.8 5 20.8 20.8 0 0 1-8.6 1.6 20.2 20.2 0 0 1-19.8-14.1c-1-3-1.5-6.2-1.5-9.8a23.4 23.4 0 0 1 5.9-17 21 21 0 0 1 15.4-6.5 20.6 20.6 0 0 1 15.3 6.5c1.9 2 3.4 4.5 4.4 7.4 1 3 1.5 6.1 1.5 9.6Zm-30.5.1c0 4 .7 7.3 2.1 9.8a7.6 7.6 0 0 0 7 3.8 8 8 0 0 0 7-3.8c1.5-2.5 2.3-5.7 2.3-9.8 0-4-.7-7.2-2.2-9.7-1.4-2.5-3.7-3.7-6.9-3.7-3 0-5.4 1.2-7 3.7a18 18 0 0 0-2.3 9.7Zm47-12.7h-10.3v-9.8h10.2V72.6l11.8-2V84h19v9.8h-19V112c0 1.7.2 3 .5 4s.8 1.9 1.4 2.4c.5.6 1.2 1 2 1.2a42 42 0 0 0 8.4-.1c1-.2 2-.4 2.8-.8l3-1.2 1.7 10.2c-2.2.9-4.5 1.5-7 1.9a48 48 0 0 1-14.7-.1c-2.1-.5-3.9-1.3-5.4-2.6a12 12 0 0 1-3.3-5.4c-.8-2.4-1.2-5.4-1.2-9.2V93.7ZM350 200.4a9 9 0 0 1-3.3-.5 5 5 0 0 1-2-1.5 6 6 0 0 1-1.1-2.4c-.2-1-.4-2-.4-3.2v-12.6h4v12.4l.1 2c.1.6.3 1 .5 1.4.2.4.5.6.8.8l1.4.2c.6 0 1 0 1.4-.2.3-.2.6-.4.8-.8.3-.3.4-.8.5-1.3l.1-2.2v-12.3h4v12.6c0 1.2-.2 2.2-.4 3.2s-.6 1.7-1 2.4c-.6.6-1.3 1.1-2.2 1.5a9 9 0 0 1-3.3.5Zm12.6-12.2h-3.4V185h3.4v-3.8l4-.7v4.5h6.2v3.2h-6.3v6.1c0 .6 0 1 .2 1.3 0 .4.2.7.4.8.2.2.4.4.7.4l1 .1a14.2 14.2 0 0 0 1.8-.1l1-.3c.3 0 .6-.2 1-.4l.5 3.4-2.4.7a16 16 0 0 1-4.8 0 4 4 0 0 1-1.8-1 4 4 0 0 1-1.1-1.7 9 9 0 0 1-.4-3.1v-6.2Zm20.5-7.6a3 3 0 0 1-.7 1.9c-.5.4-1.1.6-1.8.6s-1.3-.2-1.8-.6c-.4-.5-.7-1-.7-1.9 0-.7.3-1.4.7-1.8.5-.5 1.1-.7 1.8-.7s1.3.2 1.8.7c.4.4.7 1 .7 1.8Zm5.8 18.8c-.8.3-1.5.6-2.3.7a7 7 0 0 1-2 .3c-1 0-1.8-.2-2.5-.5s-1.2-.7-1.7-1.3c-.4-.6-.7-1.2-.8-2-.2-.9-.3-1.8-.3-2.8v-5.6h-4.1V185h8v9.3c0 .9.2 1.5.5 2 .4.4 1 .6 1.7.6l1.3-.1a8 8 0 0 0 1.7-.6l.5 3.2Zm16 0-.4.2a7.7 7.7 0 0 1-4 .8c-1.8 0-3.1-.6-4-1.6a8.1 8.1 0 0 1-1.2-4.8v-12.8h-4.1V178h8v16.3c0 1 .3 1.7.7 2 .4.4.9.6 1.5.6.8 0 1.4 0 2-.3l1-.4.5 3.2Zm8.4-2.4c1 0 1.7 0 2.2-.2.5-.1.8-.4.8-.8a1 1 0 0 0-.3-.7c-.1-.2-.4-.4-.7-.5-.2-.2-.6-.3-1-.4a37 37 0 0 0-2.9-1 8 8 0 0 1-1.6-.9c-.5-.3-.9-.7-1.2-1.2a4.5 4.5 0 0 1-.1-3.8c.2-.6.6-1 1.1-1.5.5-.5 1.2-.8 2-1 .8-.3 1.8-.4 3-.4 1 0 1.8 0 2.7.2.8.1 1.6.4 2.2.6l-.6 3.4-1.7-.5c-.8-.3-1.7-.4-2.6-.4-1 0-1.7.1-2 .4-.4.2-.6.4-.6.7 0 .3 0 .5.2.7l.7.4a12.7 12.7 0 0 0 2 .9 46.3 46.3 0 0 1 3.5 1.5c.5.4 1 .8 1.3 1.4.3.5.4 1.2.4 2 0 .6 0 1.1-.3 1.7-.2.6-.6 1-1.2 1.4a6 6 0 0 1-2.1 1 11.6 11.6 0 0 1-6.6-.1l-2.2-.8.6-3.3 2.4.8a9 9 0 0 0 2.6.4Zm39.8-4.6c0 1.2-.2 2.3-.5 3.3s-.8 1.8-1.4 2.5a6 6 0 0 1-2.3 1.6 7 7 0 0 1-2.9.6 6.7 6.7 0 0 1-6.6-4.7 10.9 10.9 0 0 1 0-6.5 7 7 0 0 1 1.5-2.4 5 5 0 0 1 2.3-1.6 7 7 0 0 1 2.8-.6 6.9 6.9 0 0 1 5.1 2.2 7 7 0 0 1 1.5 2.4c.3 1 .5 2 .5 3.2Zm-10.2 0c0 1.4.3 2.5.7 3.3.5.9 1.3 1.3 2.4 1.3 1 0 1.8-.4 2.3-1.3a6 6 0 0 0 .8-3.2c0-1.4-.3-2.4-.8-3.3-.4-.8-1.2-1.2-2.3-1.2-1 0-1.8.4-2.3 1.2a6 6 0 0 0-.8 3.3Zm17.3 7.6a80.1 80.1 0 0 1-5.8-15h4.2a67.5 67.5 0 0 0 3.3 10.4 393.5 393.5 0 0 1 2.9-7.8l.8-2.6h4a78 78 0 0 1-6.1 15h-3.3Zm10.8-7.4c0-1.3.2-2.5.6-3.5a9 9 0 0 1 1.6-2.5c.7-.7 1.4-1.2 2.3-1.5a7 7 0 0 1 2.6-.5c2.2 0 3.9.6 5 2 1.2 1.3 1.8 3.2 1.8 5.7a10.6 10.6 0 0 1 0 1.5H475c0 1 .4 1.7 1.2 2.3.8.6 1.8.8 3.1.8.8 0 1.5 0 2.2-.2l1.9-.5.5 3.3a16.1 16.1 0 0 1-4.8.9c-1.2 0-2.4-.2-3.4-.5-1-.4-1.9-.9-2.6-1.5a6.7 6.7 0 0 1-1.6-2.4 9 9 0 0 1-.6-3.4Zm10-1.6v-1l-.6-1c-.2-.3-.5-.6-.9-.7a3.3 3.3 0 0 0-2.7 0c-.3.1-.7.3-1 .6a4 4 0 0 0-.7 2.2h6Zm19-2a13.7 13.7 0 0 0-2-.4 9.4 9.4 0 0 0-2-.2 13.7 13.7 0 0 0-3.2.4V200h-4v-14l3.2-1a18.8 18.8 0 0 1 8.7.3l-.7 3.7Zm-153 35a5 5 0 0 0 .7 2.8c.5.7 1.2 1 2.1 1 .5 0 .9 0 1.2-.2.4 0 .7-.2 1-.4V220a6.7 6.7 0 0 0-1.5-.2c-2.3 0-3.4 1.4-3.4 4.2Zm9 6.2c0 2.4-.6 4.2-1.8 5.4-1.1 1.2-3 1.8-5.7 1.8-1 0-1.8-.1-2.7-.3l-2.5-.7.8-3.3 2 .6c.6.2 1.5.3 2.5.3.7 0 1.2 0 1.7-.2l1-.6c.3-.3.5-.7.6-1l.1-1.2v-.6l-1.5.4c-.4.2-1 .2-1.5.2-2 0-3.4-.6-4.4-1.8a8 8 0 0 1-1.5-5.2c0-2.5.6-4.3 2-5.5a8 8 0 0 1 5.6-1.9c1.6 0 3.4.3 5.3.8v12.8Zm11-17.6c0 .8-.2 1.4-.6 1.9-.5.4-1.1.6-1.8.6s-1.3-.2-1.8-.6c-.4-.5-.7-1-.7-1.9 0-.7.3-1.4.7-1.8.5-.5 1.1-.7 1.8-.7s1.3.2 1.8.7c.4.4.7 1 .7 1.8Zm6 18.8c-.9.3-1.6.6-2.4.7a7 7 0 0 1-2 .3c-1 0-1.8-.2-2.5-.5s-1.2-.7-1.7-1.3c-.4-.6-.7-1.2-.8-2-.2-.9-.3-1.8-.3-2.8v-5.6h-4.1V217h8v9.3c0 .9.2 1.5.5 2 .4.4 1 .6 1.7.6l1.3-.1a8 8 0 0 0 1.7-.6l.5 3.2Zm5.6-11.2h-3.4V217h3.4v-3.8l4-.7v4.5h6.2v3.2h-6.3v6.1c0 .6 0 1 .2 1.3 0 .4.2.7.4.8.2.2.4.4.7.4l1 .1a14.2 14.2 0 0 0 1.8-.1l1-.3c.3 0 .6-.2 1-.4l.5 3.4-2.4.7a16 16 0 0 1-4.8 0 4 4 0 0 1-1.8-1 4 4 0 0 1-1.1-1.7 9 9 0 0 1-.4-3.1v-6.2Zm28.8 4.3c0-1.1.2-2.1.5-3 .4-1 .9-1.9 1.6-2.6.7-.7 1.6-1.3 2.6-1.7a14 14 0 0 1 6.3-.4c.8.1 1.5.3 2.3.6l-1 3.2a10.9 10.9 0 0 0-3.3-.6 7 7 0 0 0-2.4.4c-.6.2-1.1.5-1.5.9-.4.4-.7.8-.8 1.4a6 6 0 0 0-.3 1.8c0 1.4.4 2.5 1.2 3.2.7.8 2 1.2 4 1.2a15 15 0 0 0 3.7-.5l.6 3.2-2 .5a15.2 15.2 0 0 1-6.8-.4c-1-.4-2-1-2.6-1.6a6.6 6.6 0 0 1-1.6-2.5c-.3-1-.5-2-.5-3.1Zm29.7 0c0 1.1-.2 2.2-.5 3.2s-.8 1.8-1.4 2.5a6 6 0 0 1-2.3 1.6 7 7 0 0 1-2.9.6 6.7 6.7 0 0 1-6.6-4.7 10.9 10.9 0 0 1 0-6.5 7 7 0 0 1 1.5-2.4 5 5 0 0 1 2.3-1.6 7 7 0 0 1 2.8-.6 6.9 6.9 0 0 1 5.1 2.2 7 7 0 0 1 1.5 2.4c.3 1 .5 2 .5 3.2Zm-10.2 0c0 1.3.3 2.4.7 3.2.5.9 1.3 1.3 2.4 1.3 1 0 1.8-.4 2.3-1.3a6 6 0 0 0 .8-3.2c0-1.4-.3-2.4-.8-3.3-.4-.8-1.2-1.2-2.3-1.2-1 0-1.8.4-2.3 1.2a6 6 0 0 0-.8 3.3Zm22-7.7c1 0 1.6.1 2.1.4.6.2 1 .6 1.3 1.1.3.5.5 1.2.6 2l.2 2.7v9h-3.2v-9.2c0-.6 0-1-.2-1.4l-.2-.9a.8.8 0 0 0-.5-.3l-.4-.1a3 3 0 0 0-.6 0l-.6.2a19.7 19.7 0 0 1 .2 3v3h-3.2v-3.5a5 5 0 0 0-.3-2.1 1 1 0 0 0-1-.6 4.6 4.6 0 0 0-1 0V232H439v-14.5a21.2 21.2 0 0 1 4.6-.7c.6 0 1 0 1.5.2l1.2.7a6 6 0 0 1 2.8-.9Zm16 0c1 0 1.6.1 2.1.4.6.2 1 .6 1.3 1.1.3.5.5 1.2.6 2l.2 2.7v9h-3.2v-9.2c0-.6 0-1-.2-1.4l-.2-.9a.8.8 0 0 0-.5-.3l-.4-.1a3 3 0 0 0-.6 0l-.6.2a19.7 19.7 0 0 1 .2 3v3h-3.2v-3.5a5 5 0 0 0-.3-2.1 1 1 0 0 0-1-.6 4.6 4.6 0 0 0-1 0V232H455v-14.5a21.2 21.2 0 0 1 4.6-.7c.6 0 1 0 1.5.2l1.2.7a6 6 0 0 1 2.8-.9Zm13.1 12.4h1.3l1-.1v-3.5h-.9a8.5 8.5 0 0 0-2.2 0l-1 .2-.7.6-.2.9c0 .7.2 1.2.7 1.5a6 6 0 0 0 2 .4Zm-.3-12.6a9 9 0 0 1 3 .4c.9.3 1.5.7 2 1.2.5.6.9 1.2 1 2 .3.7.4 1.5.4 2.5v9a41.2 41.2 0 0 1-6.4.7c-1 0-1.8-.1-2.6-.3l-2-.8a4 4 0 0 1-1.2-1.6 5.2 5.2 0 0 1 0-4.5c.4-.6.8-1 1.4-1.5.6-.3 1.2-.6 2-.7a13 13 0 0 1 5 0v-.5c0-.8-.2-1.4-.7-1.9-.4-.5-1.2-.7-2.4-.7a14.5 14.5 0 0 0-3.8.5l-.6-3.2 2.1-.4a17 17 0 0 1 2.8-.2Zm10.3.8a27 27 0 0 1 6-.8c1.2 0 2.2.2 3 .6.8.3 1.4.7 1.8 1.4.5.6.8 1.3 1 2.1.2.9.3 1.8.3 2.8v8.5h-4v-8a7 7 0 0 0-.4-3c-.3-.6-1-1-2-1a12.8 12.8 0 0 0-1.7.2V232h-4v-14.6Zm18.9 7c0 1.3.2 2.4.7 3.3.5.8 1.4 1.3 2.5 1.3a11.9 11.9 0 0 0 1.7-.2v-8.2l-1-.4-1.2-.2c-1 0-1.6.4-2 1.2-.5.7-.7 1.8-.7 3.2Zm8.9 7.2-2.7.5-3 .3c-2.4 0-4.2-.7-5.4-2.1a8.4 8.4 0 0 1-1.8-5.7c0-2.5.5-4.4 1.5-5.8 1-1.4 2.5-2.2 4.5-2.2a6.4 6.4 0 0 1 3 .7v-6.8l3.9-.7v21.8Zm9.5-2.6c1 0 1.7 0 2.2-.2.5-.1.8-.4.8-.8a1 1 0 0 0-.3-.7c-.1-.2-.4-.4-.7-.5-.2-.2-.6-.3-1-.4a37 37 0 0 0-2.9-1 8 8 0 0 1-1.6-.9c-.5-.3-.9-.7-1.2-1.2a4.5 4.5 0 0 1-.1-3.8c.2-.6.6-1 1.1-1.5.5-.5 1.2-.8 2-1 .8-.3 1.8-.4 3-.4 1 0 1.8 0 2.7.2.8.1 1.6.4 2.2.6l-.6 3.4-1.7-.5c-.8-.3-1.7-.4-2.6-.4-1 0-1.7.1-2 .4-.4.2-.6.4-.6.7 0 .3 0 .5.2.7l.7.4a12.7 12.7 0 0 0 2 .9 46.3 46.3 0 0 1 3.5 1.5c.5.4 1 .8 1.3 1.4.3.5.4 1.2.4 2 0 .6 0 1.1-.3 1.7-.2.6-.6 1-1.2 1.4a6 6 0 0 1-2.1 1 11.6 11.6 0 0 1-6.6-.1l-2.2-.8.6-3.3 2.4.8a9 9 0 0 0 2.6.4Zm-178.7 23.2h-3.4V249h3.4v-3.8l4-.7v4.5h6.2v3.2h-6.3v6.1c0 .6 0 1 .2 1.3 0 .4.2.7.4.8.2.2.4.4.7.4l1 .1a14.2 14.2 0 0 0 1.8-.1l1-.3c.3 0 .6-.2 1-.4l.5 3.4-2.4.7a16 16 0 0 1-4.8 0 4 4 0 0 1-1.8-1 4 4 0 0 1-1.1-1.7 9 9 0 0 1-.4-3.1v-6.2ZM360 264v-21.5l4-.7v7.3a9 9 0 0 1 2.3-.5 6 6 0 0 1 2.8.6 4 4 0 0 1 1.8 1.4c.4.6.7 1.3 1 2.1l.2 2.8v8.5h-4v-8a7 7 0 0 0-.4-3c-.3-.6-1-1-1.8-1l-1.1.2-.8.2V264h-4Zm22-2.8h1.3l1-.1v-3.5h-.9a8.5 8.5 0 0 0-2.2 0l-1 .2-.7.6-.2.9c0 .7.2 1.2.7 1.5a6 6 0 0 0 2 .4Zm-.3-12.6a9 9 0 0 1 3 .4c.9.3 1.5.7 2 1.2.5.6.9 1.2 1 2 .3.7.4 1.5.4 2.5v9a41.2 41.2 0 0 1-6.4.7c-1 0-1.8-.1-2.6-.3l-2-.8a4 4 0 0 1-1.2-1.6 5.2 5.2 0 0 1 0-4.5c.4-.6.8-1 1.4-1.5.6-.3 1.2-.6 2-.7a13 13 0 0 1 5 0v-.5c0-.8-.2-1.4-.7-1.9-.4-.5-1.2-.7-2.4-.7a14.5 14.5 0 0 0-3.8.5l-.6-3.2 2.1-.4a17 17 0 0 1 2.8-.2Zm12.9 3.6h-3.4V249h3.4v-3.8l4-.7v4.5h6.2v3.2h-6.3v6.1c0 .6 0 1 .2 1.3 0 .4.2.7.4.8.2.2.4.4.7.4l1 .1a14.2 14.2 0 0 0 1.8-.1l1-.3c.3 0 .6-.2 1-.4l.5 3.4-2.4.7a16 16 0 0 1-4.8 0 4 4 0 0 1-1.8-1 4 4 0 0 1-1.1-1.7 9 9 0 0 1-.4-3.1v-6.2ZM437 249a740 740 0 0 0-2.3 8 71.4 71.4 0 0 1-4 9.7 5.7 5.7 0 0 1-3 2.4c-.5.2-1.2.3-2 .3-.7 0-1.3 0-1.8-.2a6 6 0 0 1-1.4-.4l.8-3.3a5.4 5.4 0 0 0 2.2.5c.8 0 1.4-.2 1.8-.8.5-.5.9-1 1.2-1.8a76.6 76.6 0 0 1-5.4-14.4h4a146.8 146.8 0 0 0 2.4 7.8l1 2.4A279.7 279.7 0 0 0 433 249h4Zm16 7.4c0 1.2-.2 2.3-.5 3.3s-.8 1.8-1.4 2.5a6 6 0 0 1-2.3 1.6 7 7 0 0 1-2.9.6 6.7 6.7 0 0 1-6.6-4.7 10.9 10.9 0 0 1 0-6.5 7 7 0 0 1 1.5-2.4 5 5 0 0 1 2.3-1.6 7 7 0 0 1 2.8-.6 6.9 6.9 0 0 1 5.1 2.2 7 7 0 0 1 1.5 2.4c.3 1 .5 2 .5 3.2Zm-10.2 0c0 1.4.3 2.5.7 3.3.5.9 1.3 1.3 2.4 1.3 1 0 1.8-.4 2.3-1.3a6 6 0 0 0 .8-3.2c0-1.4-.3-2.4-.8-3.3-.4-.8-1.2-1.2-2.3-1.2-1 0-1.8.4-2.3 1.2a6 6 0 0 0-.8 3.3Zm25.1 7a36 36 0 0 1-6 1c-1.2 0-2.3-.2-3-.6-.8-.3-1.5-.8-2-1.4-.4-.6-.7-1.4-.9-2.2l-.2-2.9V249h4v7.8c0 1.4 0 2.5.4 3.1.3.7 1 1 2 1l1.7-.1V249h4v14.5Zm22.4.6v-11.8h-3.2V249h3.2v-.9c0-1.2.2-2.2.6-3a5.1 5.1 0 0 1 3.5-3c.7-.2 1.5-.3 2.3-.3l2.6.2c.9.2 1.6.4 2.3.8l-.6 3.2a18 18 0 0 0-4-.8h-1a2 2 0 0 0-.9.5l-.6 1-.2 1.5v.8h6.2v3.2h-6.2V264h-4Zm26.7-7.6c0 1.2-.2 2.3-.5 3.3s-.8 1.8-1.4 2.5a6 6 0 0 1-2.3 1.6 7 7 0 0 1-2.9.6 6.7 6.7 0 0 1-6.6-4.7 10.9 10.9 0 0 1 0-6.5 7 7 0 0 1 1.5-2.4 5 5 0 0 1 2.3-1.6 7 7 0 0 1 2.8-.6 6.9 6.9 0 0 1 5.1 2.2 7 7 0 0 1 1.5 2.4c.3 1 .5 2 .5 3.2Zm-10.2 0c0 1.4.3 2.5.7 3.3.5.9 1.3 1.3 2.4 1.3 1 0 1.8-.4 2.3-1.3a6 6 0 0 0 .8-3.2c0-1.4-.3-2.4-.8-3.3-.4-.8-1.2-1.2-2.3-1.2-1 0-1.8.4-2.3 1.2a6 6 0 0 0-.8 3.3Zm25-3.4a13.7 13.7 0 0 0-1.9-.4 9.4 9.4 0 0 0-2-.2 13.7 13.7 0 0 0-3.2.4V264h-4v-14l3.2-1a18.8 18.8 0 0 1 8.7.3l-.7 3.7Zm7.2 3a5 5 0 0 0 .6 2.8c.5.7 1.2 1 2.1 1 .5 0 .9 0 1.2-.2.4 0 .7-.2 1-.4V252a6.7 6.7 0 0 0-1.5-.2c-2.3 0-3.4 1.4-3.4 4.2Zm9 6.2c0 2.4-.7 4.2-1.9 5.4-1.1 1.2-3 1.8-5.7 1.8-1 0-1.8-.1-2.7-.3l-2.5-.7.8-3.3 2 .6c.6.2 1.5.3 2.5.3.7 0 1.2 0 1.7-.2l1-.6c.3-.3.5-.7.6-1l.1-1.2v-.6l-1.5.4c-.4.2-1 .2-1.5.2-2 0-3.4-.6-4.4-1.8a8 8 0 0 1-1.5-5.2c0-2.5.6-4.3 2-5.5a8 8 0 0 1 5.6-1.9c1.6 0 3.4.3 5.3.8v12.8Zm17-5.8c0 1.2-.2 2.3-.5 3.3s-.8 1.8-1.4 2.5a6 6 0 0 1-2.3 1.6 7 7 0 0 1-2.9.6 6.7 6.7 0 0 1-6.6-4.7 10.9 10.9 0 0 1 0-6.5 7 7 0 0 1 1.5-2.4 5 5 0 0 1 2.3-1.6 7 7 0 0 1 2.8-.6 6.9 6.9 0 0 1 5.1 2.2 7 7 0 0 1 1.5 2.4c.3 1 .5 2 .5 3.2Zm-10.2 0c0 1.4.3 2.5.7 3.3.5.9 1.3 1.3 2.4 1.3 1 0 1.8-.4 2.3-1.3a6 6 0 0 0 .8-3.2c0-1.4-.3-2.4-.8-3.3-.4-.8-1.2-1.2-2.3-1.2-1 0-1.8.4-2.3 1.2a6 6 0 0 0-.8 3.3Zm15.7-4.2h-3.4V249h3.4v-3.8l4-.7v4.5h6.2v3.2h-6.3v6.1c0 .6 0 1 .2 1.3 0 .4.2.7.4.8.2.2.4.4.7.4l1 .1a14.2 14.2 0 0 0 1.8-.1l1-.3c.3 0 .6-.2 1-.4l.5 3.4-2.4.7a16 16 0 0 1-4.8 0 4 4 0 0 1-1.8-1 4 4 0 0 1-1.1-1.7 9 9 0 0 1-.4-3.1v-6.2Z"/>
</svg>
