<svg xmlns="http://www.w3.org/2000/svg" fill="none" viewBox="0 0 123 123">
  <g clip-path="url(#a)">
    <path fill="#F03C2E" fill-rule="evenodd" d="m66.715 2.464 53.493 53.49a7.9 7.9 0 0 1 0 11.16L66.963 120.36a7.9 7.9 0 0 1-11.16 0L2.307 66.864a7.9 7.9 0 0 1 0-11.161l36.682-36.674L52.88 32.923a9.399 9.399 0 0 0 5.093 12.312V78.87a9.415 9.415 0 0 0-5.822 8.69 9.388 9.388 0 1 0 13.546-8.414v-33.33L78.364 58.48a9.392 9.392 0 0 0 2.037 10.213 9.4 9.4 0 0 0 13.287 0 9.388 9.388 0 0 0-4.531-15.786 9.37 9.37 0 0 0-5.173.28L70.401 39.61a9.378 9.378 0 0 0-2.225-9.702 9.374 9.374 0 0 0-9.64-2.246L44.448 13.573l11.104-11.11a7.892 7.892 0 0 1 11.163 0ZM48.129 80.739a5.629 5.629 0 0 0 3.98-9.61l-1.768-1.768a29.272 29.272 0 0 0 2.441-4.424c3.356-7.62 2.174-14.843-3.326-20.343-6.658-6.657-18.574-10.614-29.188 0-7.191 7.191-7.8 18.737-1.327 25.209a5.629 5.629 0 1 0 7.96-7.961c-1.326-1.327-1.912-6.049 1.327-9.287 3.98-3.98 9.287-3.98 11.94-1.327 5.308 5.307-.534 13.786-1.326 14.594a5.629 5.629 0 0 0 0 7.96l5.307 5.308a5.629 5.629 0 0 0 3.98 1.648Z" clip-rule="evenodd"/>
  </g>
  <defs>
    <clipPath id="a">
      <path fill="#fff" d="M0 0h122.667v122.667H0z"/>
    </clipPath>
  </defs>
</svg>
