<svg xmlns="http://www.w3.org/2000/svg" fill="none" viewBox="0 0 500 500">
  <path fill="var(--theme-text, #000)" d="M184.3 89.1C184.2 95 183.7 98.5 183 99 182.2 99.5 182.1 100.6 182.5 102.1 182.9 103.3 183.2 106.8 183.1 109.7 183 113.8 183.4 115 184.5 115 185.7 115 186 113.7 186 109.4 186 104 186.1 103.8 188.3 104.4 189.5 104.7 192.4 105 194.8 105H199V110.5C199 114.9 199.3 115.8 200.5 115.4 201.7 114.9 202 112.2 202 100 202 86.6 200.9 78.7 199.4 80.3 199 80.6 198.8 85.6 198.9 91.4L199.1 102H194.2C187 102 186 100.8 187.1 93.5 188.1 86.1 187.3 80 185.2 80 184.8 80 184.4 84.1 184.3 89.1zM152 84C145.1 88 144.5 89.1 144.6 99.2V108.3L148.4 111.7C152 115 152.6 115.2 157.7 114.8 162.1 114.4 163.6 113.8 165.6 111.5 167.7 109 168 107.8 168 100 168 91.3 168 91.2 164.3 87.2 159.7 82.2 156.7 81.4 152 84zM161.9 88.8C165.1 91.5 165.2 91.8 165.3 99.4 165.4 106.8 165.2 107.4 162.6 109.6 159.4 112.4 155.9 112.6 151.9 110.3 144.9 106.1 145.9 88 153.2 88 154.2 88 155 87.5 155 87 155 85.1 158.6 86 161.9 88.8zM106.9 84.6C106.3 85.3 106.2 86.4 106.6 87.1 107.4 88.5 108.3 109.2 108.4 134.3 108.5 144.6 108.8 153 109.2 153 110.8 153 111.3 147.5 111.2 131.5V114.5L116.3 114.8C121 115 121.9 114.7 125.4 111.6 129.1 108.4 129.4 107.8 129.3 103.1 129.2 97 126.1 90.2 122.1 87.2 118.3 84.4 108.5 82.7 106.9 84.6zM119.8 90.1C124.1 93.4 125.4 96.1 125.5 101.8 125.5 106.3 125.1 107.4 123 109.1 119.4 111.9 116.6 112.4 113.3 110.8 110.5 109.5 110.5 109.5 110.3 98.4L110 87.3 113.6 87.7C115.6 87.9 118.4 89 119.8 90.1zM71 87.6C68.9 88.5 66.1 88.9 64.1 88.6 57 87.5 45 96.8 45 103.5 45 107.4 47.1 111.4 49.4 111.8 50.4 112 52.1 113.1 53.2 114.2 54.9 115.9 56 116.1 59.6 115.6 62 115.3 64 115.1 64.1 115.3 64.2 115.4 64.6 120.2 65 126 66.3 142.6 67.2 148 68.5 148 72 148 72.1 142.7 69 124.5 67.3 114.2 67.1 114.5 74.4 114.4 79.1 114.3 81.7 113.7 84.3 112.1 88.7 109.4 89.4 107.4 88.5 100.3 87.9 95.5 87.2 94.2 83.4 90.4 78.7 85.6 76.6 85.2 71 87.6zM81.5 91.7C84.9 95.1 86 98 86 103 86 108.3 82.6 110.7 74.8 110.9 67.5 111.1 66.5 109.6 67.3 99.6 67.8 93.9 68.3 92.2 70.2 90.8 73.7 88.1 78.2 88.5 81.5 91.7zM63.9 98.8C64.1 107.4 62.1 112 58.1 112 55.3 112 51.3 108.6 49 104.1 48 102.1 48.1 101.3 49.7 99.1 52.1 96 58.7 92 61.6 92 63.5 92 63.7 92.6 63.9 98.8zM217.6 99.6C216.5 102.4 216.9 103 219.4 102.1 220.7 101.6 223.3 101.5 225.1 101.9 227 102.3 230.9 102.6 233.8 102.5 236.6 102.4 239 102.7 239 103.1 239 103.6 239.9 104 241 104 243.1 104 243.5 103.3 242.2 101.3 241.5 100.2 238.2 99.6 224.9 98.5 219.4 98.1 218.1 98.2 217.6 99.6zM420.2 118.2C416.8 118.6 402.6 119.4 388.7 120 374.9 120.6 363.1 121.1 362.5 121.2 362 121.2 358.8 120.9 355.5 120.5 341.8 118.8 339.3 118.8 336.2 120.4 334.6 121.2 333 121.7 332.7 121.4 332.4 121.1 331.9 121.8 331.5 122.9 331.2 124 329.7 125.1 328.2 125.5 324 126.4 314.7 132 309.6 136.8 305.7 140.3 305 141.6 305 144.8 304.9 146.8 304.5 150.3 304.1 152.5 303.6 154.7 302 162.6 300.5 170 299.1 177.4 297.5 184.4 297 185.5 296.5 186.6 295.8 188.6 295.5 190 295.1 191.4 293.5 196.8 292 202 289.5 210.2 286.9 221.5 284 237.5 282.8 243.7 279.2 257.1 277.4 261.5 276.5 263.7 274.7 270 273.4 275.5 272 281 270.5 286.8 270 288.5 269.5 290.1 267.9 296.2 266.5 302 260.9 324.3 259.2 331.7 258.6 337 258.3 339.5 257.4 342.9 256.6 344.5 255.1 347.3 255.2 347.6 256.8 348.8 260.6 351.8 266.8 353.9 272.6 354.3 275.9 354.5 279.2 355 279.8 355.4 282.8 357.2 288.5 357.7 301 357.1 302.9 357 307.2 357.4 310.5 358 313.8 358.6 317.9 359.2 319.5 359.5 321.2 359.7 325.5 360.8 329 361.9 332.6 363 338.1 364.4 341.2 365 344.4 365.6 347.2 366.5 347.5 367 347.7 367.4 350.1 368.1 352.7 368.5 355.4 368.8 359.1 369.5 361 370 364.3 370.8 371.1 372 384.5 374.1 409.3 378.1 416.5 378.7 418.7 376.9 419.6 376.1 420.1 376 419.7 376.7 419.2 377.5 420.8 377.9 425.7 377.9 429.5 377.9 434.5 378.6 436.9 379.5 439.3 380.3 442.2 381 443.3 381 446.6 381 456.5 372.3 465 362 466.9 359.6 470.2 355.7 472.3 353.2 474.4 350.8 477.4 346.2 478.9 343.1L481.8 337.4 480.5 327.5C479.8 322 478.5 314.1 477.6 310 476.8 305.9 475.4 297.3 474.5 291 473.6 284.7 472.5 277.9 472 276 470.6 270.2 469 261.9 468.1 254.5 467.5 250.6 466.9 246.6 466.7 245.5 465.9 242.1 461.7 206.7 459.6 185.5 458.8 177.8 457.3 167.7 456.2 163 455.1 158.3 453.5 150 452.5 144.5 451.5 139 450 132.2 449.2 129.5 448.3 126.7 447.6 123.8 447.5 123 447.3 120 445.9 119.1 440.6 118.5 432.8 117.5 427.2 117.4 420.2 118.2zM425.1 126.1C425.4 129.1 426 133 426.4 134.7 426.9 136.8 426.8 138 426.1 138 425.1 138 424.5 135.6 423.6 127 423.3 124.6 422.6 122.4 422.1 122.2 421.5 122 421.3 121.4 421.6 120.9 423 118.7 424.5 121 425.1 126.1zM353.5 123C355.3 123 355.8 123.5 355.6 125.5 355.5 128.1 354 129.1 354 126.5 354 125.7 353.6 125 353 125 351.6 125 351.7 126.1 353.5 130.3 354.3 132.3 355 135.5 355 137.4 355 143.2 352.6 140.7 350.6 132.7 349.6 128.8 348.3 124.8 347.8 124 346.9 122.5 346.9 123.1 348.5 134 349 137.5 349 137.5 346.9 133 342.8 124 343.4 120.1 348.7 122.1 350.1 122.6 352.2 123 353.5 123zM419.8 123.5C421.3 126.7 421.4 140.8 420 139.4 419.5 138.9 418.5 135.7 417.9 132.5 416.8 126.4 415.1 122.9 414.9 126.5 414.9 128.3 414.8 128.3 414 126.2 413.5 125 412.6 124 412.1 124 410.1 124 410.1 127.7 411.9 133.7 413 137.2 413.4 140 412.9 140 412.2 140 407 124.9 407 122.8 407 122.4 408.9 121.9 411.3 121.7 413.6 121.5 416.2 121.3 417.1 121.2 418 121.1 419.2 122.1 419.8 123.5zM435 124.4C435 126.3 435.5 128 436.2 128.2 436.8 128.4 437 129.2 436.6 129.8 435.3 131.9 434.2 131.1 433.6 127.5 433.2 125.6 432.3 124 431.6 124 430.8 124 429.7 123.3 429 122.5 427.9 121.2 428.3 121 431.4 121 434.8 121 435 121.2 435 124.4zM441.3 121.6C442.2 122.6 440.9 125 439.4 125 438.6 125 438 124.4 438 123.7 438 121.5 439.9 120.2 441.3 121.6zM342 124.7C342.1 126.3 342.7 128.6 343.5 130 345.2 133.1 345.5 139.3 343.9 138.8 342.8 138.4 340.7 131.8 339.5 124.9 339.1 122.8 339.4 122 340.5 122 341.5 122 342 123 342 124.7zM387.6 123C391.4 123 392 123.3 392 125.1 392 126.2 392.4 128 393 129 394.6 132 395.5 142 394.1 142 393.4 142 393.1 141.3 393.5 140.1 393.8 139.1 393.4 137.7 392.5 137 391.7 136.3 391 134.9 391 133.9 391 131.1 387.8 125 386.3 125 384.6 125 384.6 125.4 387 129.2 388.3 131.3 389 134.2 388.9 137 388.9 141.1 388.8 141.3 387.8 139 382 125.2 377.5 118.9 380.5 128.7 382.5 135.2 382.5 141 380.5 141 379.7 141 379 140.3 379 139.5 379 138.7 379.4 138 379.9 138 381 138 379.2 127.9 377.8 126.2 376.5 124.7 373 124.6 373 126.1 373 126.7 373.5 128 374.1 129.1 374.6 130.2 375 132.3 374.8 133.8 374.5 136.3 374.4 136.2 373.1 132.5 371.4 127.5 370.2 126.1 369.1 127.8 368.5 128.8 368.1 128.7 367.7 127.1 367.2 125 365 124.1 365 126 365 126.6 365.7 128.4 366.5 129.9 367.3 131.5 368.4 134.6 368.9 136.9 369.7 140.5 369.6 141 368 141 366.1 141 365.9 140.2 364.4 131.5 364 129.3 363.3 126.9 362.7 126.2 362.2 125.5 361.9 124.8 362.1 124.6 362.7 124 380.4 122.2 381.8 122.6 382.6 122.8 385.2 123 387.6 123zM404.6 129.8L404.8 137.5 402.8 131.3C400.7 125 400.9 122 403.2 122 404.1 122 404.5 124.2 404.6 129.8zM399.4 127.7C402.9 137.7 403.4 140.1 401.9 141.1 401.1 141.6 400.3 142 400 142 399.5 142 393.9 125.1 394 123.7 394 123.3 394.8 123 395.9 123 397.2 123 398.2 124.4 399.4 127.7zM361.9 131.2C362.6 135.2 363.5 139 363.7 139.7 364 140.4 363.6 141 362.8 141 361.9 141 360.7 138.8 359.7 135.7 357.7 129.2 357.5 124 359.3 124 360.1 124 361.1 126.7 361.9 131.2zM429.7 128.2C429.4 128.9 429.2 128.4 429.2 127 429.2 125.6 429.4 125.1 429.7 125.7 429.9 126.4 429.9 127.6 429.7 128.2zM447 131C447.6 131.6 447.9 133.6 448.7 142.3 449 146 449.7 149.3 450.1 149.6 450.6 149.9 451 151.4 451 153.1 451 154.7 451.5 156 452.1 156 452.7 156 452.9 156.8 452.5 158 452.2 159 452.4 161.6 453 163.7 454 167.3 455.5 179.8 456.5 191.6 456.7 194.5 457.3 200.3 457.9 204.6 458.5 209 459.2 214.5 459.4 217 459.7 219.5 460.4 223.7 460.9 226.5 461.9 231.6 461.1 234 458.5 234 456.7 234 446.4 244.9 441.7 251.8 439.5 254.9 436.9 258.4 435.9 259.5 434.2 261.2 433.8 261.3 433 260 432.5 259.2 432 257.6 432 256.5 432 255.4 431.3 243.5 430.4 230 429.5 216.5 428.9 200.8 429.1 195 429.5 184.8 429.4 179.5 428.8 154.3 428.5 141.1 428.4 141.2 435.7 135.8 436.7 135.1 439.1 132.5 441 130.1 444.4 125.7 444.4 125.7 445.4 128.1 446 129.4 446.7 130.7 447 131zM409.3 137.7C409.9 140.7 409.7 141 407.5 141 406.1 141 405 140.5 405 140 405 139.4 405.5 139 406 139 406.6 139 406.8 136.8 406.5 133.2 406 127.6 406 127.5 407.3 131 408.1 132.9 409 136 409.3 137.7zM415 134.5C416.7 141.8 415.6 142.7 413.6 135.7 411.8 129.3 411.7 129 412.8 129 413.3 129 414.3 131.5 415 134.5zM338.7 133.2C338.4 133.9 338.2 133.4 338.2 132 338.2 130.6 338.4 130.1 338.7 130.7 338.9 131.4 338.9 132.6 338.7 133.2zM328 135.7C328 139.2 327.7 140.1 327 139 325.4 136.5 325.9 131 327.7 131 327.9 131 328 133.1 328 135.7zM334 135.6C334 137.5 333.6 139 333 139 332.5 139 332 137.2 332 134.9 332 132.5 332.4 131.1 333 131.5 333.6 131.8 334 133.7 334 135.6zM318 134.4C318 134.6 317.3 135.1 316.4 135.4 315.6 135.7 315.2 135.6 315.5 135 316.1 134 318 133.6 318 134.4zM324 136.5C324 137.3 323.6 138 323 138 322.5 138 322 137.3 322 136.5 322 135.7 322.5 135 323 135 323.6 135 324 135.7 324 136.5zM376.4 138.5C376.7 139.3 376.1 140.4 375 141 372.6 142.3 372 142.3 372 141 372 140.4 372.7 140 373.6 140 374.6 140 375 139.4 374.6 138.5 374.3 137.7 374.5 137 374.9 137 375.4 137 376 137.7 376.4 138.5zM319 139C319 139.5 318.6 140 318 140 317.5 140 317 139.5 317 139 317 138.4 317.5 138 318 138 318.6 138 319 138.4 319 139zM350 139C350 139.5 349.6 140 349 140 348.5 140 348 139.5 348 139 348 138.4 348.5 138 349 138 349.6 138 350 138.4 350 139zM341.7 140.6C341.4 140.9 340.5 141 339.8 140.7 339 140.4 339.3 140.1 340.4 140.1 341.5 140 342.1 140.3 341.7 140.6zM426.1 141.9C424.9 142.6 424.8 145.5 425.4 158.2 425.8 166.6 426 176.9 425.9 181 425.3 195 425.6 210.5 426.6 219.8 427.1 224.9 427.3 229.3 426.9 229.5 426.6 229.8 426.6 231.9 427 234.2 427.4 236.6 428.1 243.8 428.5 250.2 428.9 256.7 429.5 261.8 429.8 261.6 430.2 261.4 430.6 262.2 430.7 263.3 430.7 264.5 431.8 270.8 432.9 277.3 434.8 287.9 436.8 305.7 438.5 326.5 438.8 330.3 439.2 335.3 439.5 337.5 440 341.3 440.5 349.3 441.6 367.6L442 375.6 435.8 374.9C432.3 374.5 425.5 374.4 420.5 374.6 411.1 375.2 403.7 374.2 380 369.4 373.1 368 366.4 366.7 365 366.6 357 365.6 352.7 364.6 351.5 363.3 350.7 362.5 350 362.3 350 362.8 350 363.4 347.8 363 345.2 362.1 342.6 361.1 338.4 360 336 359.6 333.5 359.2 327 357.8 321.5 356.5 311.6 354.1 293 352.6 293 354.3 293 354.8 292 354.8 290.8 354.4 289.5 354 287 353.6 285.3 353.6 283.5 353.6 282 353.2 282 352.9 282 352.6 279.2 352 275.8 351.7 268.4 350.9 266.5 350.6 262.7 349.1 259.6 347.9 259.7 348.6 261.6 335.5 262.6 328.6 265.2 316.2 266.5 312 268 307.3 273.5 285.5 275 278.5 275.4 276.3 277 271.3 278.4 267.5 281.2 259.8 284.9 245.7 287.5 233.5 291.8 213.3 292.9 208.1 294.4 203 300.4 183.1 301.1 179.8 305.3 156L307.5 143.6 315.4 143.7C320 143.8 323.9 143.5 324.7 142.8 326.2 141.6 339.1 142.7 341.8 144.4 342.2 144.6 346.8 145 352 145.1 358.7 145.3 361.5 145.1 361.8 144.2 362.4 142.2 364 142.8 364 145.1 364 146.7 364.4 147 365.6 146.6 366.6 146.2 373.4 145.7 380.9 145.4 388.4 145.2 399.7 144.7 406 144.4 412.3 144.1 418.9 143.9 420.6 143.9 422.5 144 424 143.4 424.4 142.5 424.7 141.7 425.5 141 426.2 141 427.2 141 427.1 141.3 426.1 141.9zM458.6 243.5C458.1 246 455.9 249 451 254 444.4 260.7 441 262.6 441 259.6 441 257.7 450.4 245.2 454.8 241.4 458.8 237.9 459.5 238.3 458.6 243.5zM463.4 247.5C463.6 249.2 464.1 252.5 464.5 255 464.9 257.5 465.8 262 466.5 265 467.2 268 468.8 277.2 470 285.5 471.1 293.7 472.9 304.8 473.9 310 474.9 315.2 475.8 322.2 475.9 325.5 476 328.8 476.3 332.9 476.6 334.7 477.3 338.7 473.9 345.4 467.4 352.5 464.9 355.2 461.5 359.4 459.9 361.7 457.2 365.6 447.3 375 445.9 375 445.5 375 444.9 368.4 444.6 360.2 444.3 352.1 443.5 341.9 442.9 337.5 442.4 333.1 441.5 323.9 441 317 440 303.5 437.2 279.1 436.5 278 436.3 277.6 435.7 274.8 435.2 271.8L434.3 266.2 438.3 265.6C443.9 264.7 447.7 262.4 452.9 257 459.2 250.4 460.7 248.6 461.5 246 462.3 243.4 462.8 243.7 463.4 247.5zM440 261C440 261.5 439.5 262 438.9 262 438.4 262 438.2 261.5 438.5 261 438.8 260.4 439.3 260 439.6 260 439.8 260 440 260.4 440 261z"/>
  <path fill="var(--theme-text, #000)" d="M317.4 183C316.3 184.1 316.6 190.7 317.9 195.6 318.9 199.6 322.2 199.9 325.6 196.3 327.2 194.5 328 192.8 327.7 191.3 327.5 190.1 327.7 189.3 328.1 189.6 328.6 189.9 329 189.7 329 189.1 329 188.5 329.9 187.2 331.1 186.1 332.3 185 332.9 183.7 332.5 183.1 331.7 181.7 318.7 181.7 317.4 183zM326.5 186C327.4 187.4 323.1 195.2 321.7 194.7 321 194.5 320.4 192.5 320.2 190.3 320 187 320.3 186.1 321.7 185.7 324.8 184.9 325.9 185 326.5 186zM342.8 184.2C341.9 184.7 342.1 185.7 343.8 187.9 345 189.6 346 191.2 346 191.6 346 192 347 194.3 348.1 196.8 350.5 201.7 353.1 203.1 357.4 201.9 363.2 200.2 371 188.3 367.7 186.3 366 185.3 344 183.4 342.8 184.2zM364.7 189.3C365.3 190 361.3 195.9 359 197.7 358.2 198.4 356.3 199 354.9 199 352.8 199 352 198.2 350.2 193.7 349 190.8 348 188.2 348 187.9 348 187.3 364 188.6 364.7 189.3zM383.1 188.2C381.8 191.9 384.4 200.7 387.1 201.5 389.4 202.2 393.8 201.4 395.6 199.9 397.7 198.2 402.3 187.9 401.4 187 400.9 186.6 396.8 186 392.3 185.8 384.1 185.5 384 185.5 383.1 188.2zM396.9 190.7C396.9 191.2 396.1 192.8 395.1 194.5 393.2 197.7 389.8 198.9 387.6 197 386.1 195.9 384.9 191.4 385.8 190.5 386.6 189.7 397 189.9 396.9 190.7zM322.6 220.5C319.3 223.8 322.6 234 327 234 328 234 331.4 231.5 334.6 228.5 339.4 224 340.3 222.7 339.5 221.4 338 219 324.8 218.4 322.6 220.5zM334 223.6C334 224.6 328.1 230 327 230 325.6 230 323.9 226.4 324.6 224.6 325 223.5 326.5 223 329.6 223 332 223 334 223.3 334 223.6zM382.2 221.2C381.5 221.9 377.4 222.4 371.8 222.4L362.5 222.5 362.2 225.7C362 227.4 362.6 230.3 363.5 232 365.1 235 365.2 235.1 371.6 234.8 377.7 234.5 378.3 234.3 379.8 231.5 380.7 229.8 382.1 228.1 382.8 227.7 383.4 227.3 384 226.3 384 225.5 384 224.8 384.5 224 385.2 223.8 386.5 223.3 385.6 220 384.2 220 383.8 220 382.9 220.5 382.2 221.2zM378.7 226.5C379 227.4 378.4 229 377.5 230 374.2 233.7 365 231.9 365 227.6 365 225.4 366.2 225 372.2 225 376.6 225 378.2 225.4 378.7 226.5zM416.5 223C415.3 224.4 413.4 225 410.6 225 404.9 225 399.2 226.8 398.1 228.9 396.7 231.5 402.4 237.6 407 238.4 411.5 239.1 412.4 238.4 415.3 233 416.6 230.5 418.2 228.5 418.9 228.5 420.9 228.5 422 225.7 420.7 224.1 420 223.3 419.6 222.4 419.8 222.1 420.7 220.5 418.1 221.2 416.5 223zM414 229C414 229.6 413.3 231.2 412.4 232.5 410.4 235.5 406.8 235.8 404.1 233.1 401.7 230.7 402.9 229.4 408 228.7 409.9 228.5 412.1 228.2 412.8 228.2 413.4 228.1 414 228.5 414 229zM301.5 246.8C301.8 247.1 301.2 247.9 300.2 248.6 298.7 249.7 298.7 250.2 299.8 252 300.6 253.3 300.9 255.3 300.5 257 299.7 260.4 303 264 306.9 264 310.2 263.9 314 260.8 314 258.2 314 257.1 314.7 255.7 315.5 255 316.4 254.3 316.8 253.5 316.6 253.2 316.3 253 316.5 251.9 317.1 250.9 317.8 249.5 317.7 248.8 316.8 248.5 314.9 247.8 301 246.3 301.5 246.8zM313 251.6C313 253.1 310 258.7 308.6 259.9 306.2 261.9 303 258.8 303 254.4 303 251.8 303.4 251.1 305.3 250.8 307.8 250.4 313 251 313 251.6zM345.7 248.7C345.3 249 345 252.1 345 255.5 345 261.9 346.1 263.8 350.3 265.3 355.4 267.1 364 258.3 364 251.3 364 248.8 363.9 248.7 358 249.3 352.2 249.8 349 251.2 349 253.2 349 253.7 351.5 253.8 355 253.4L361 252.7 359.5 255.7C357.3 260.2 354.6 262.2 351.3 261.8 348.6 261.5 348.5 261.3 348.2 254.7 347.9 248.5 347.3 247 345.7 248.7zM384.6 257.8C384.7 266.6 384.8 267 387.8 268.1 389.7 268.8 391.6 268.8 394.2 268.1 397.4 267.1 398.3 266.1 400.9 260.5 402.6 256.9 404 253.5 404 253 404 252.4 400.1 252 394.3 252H384.5L384.6 257.8zM398.6 258.3C397.8 262.3 394.7 265 390.9 265 388.7 265 387.9 264.4 387.4 262.4 387 261 387.2 258.8 387.8 257.6 388.7 255.6 389.6 255.2 394 255.1L399.2 255 398.6 258.3zM365.6 283.3C363.6 284 363 284.8 363 286.9 363 291.8 365 296 367.3 296.1 368.5 296.1 370.5 296.3 371.6 296.6 374.1 297 381 291.3 381 288.9 381 288.1 381.7 286.5 382.5 285.4 383.3 284.4 384 283.1 384 282.7 384 281.7 369 282.2 365.6 283.3zM376.6 289.5C373 292.8 367.5 293 366.7 289.8 366.3 288.6 366.2 287.5 366.3 287.4 366.4 287.2 368.8 286.9 371.5 286.5 374.2 286.2 376.6 285.7 376.9 285.5 377.1 285.2 377.8 285.4 378.4 286 379 286.6 378.4 287.8 376.6 289.5zM399.7 282.7C399.4 283.2 399.8 285.9 400.6 288.6 401.8 292.8 402.6 293.8 405.3 294.8 407.2 295.5 409.1 296 409.6 296 410.9 296 417 290.3 417 289.1 417 288.6 417.9 287.8 419.1 287.5 422.4 286.4 421 283.5 417 283.3 415.1 283.2 410.5 282.8 406.9 282.4 403.1 282 400 282.1 399.7 282.7zM413.4 286.8C415.2 287 415.2 287.2 413 289.5 409.4 293.4 405.4 292.7 403.7 287.9 403.2 286.3 405.1 286.1 413.4 286.8zM321.5 284C312.7 284.5 312.5 284.6 312.4 287 312.2 290.3 315.5 296.6 318 298 321.4 299.8 327.7 297.3 329 293.6 329.6 291.9 331.1 289.7 332.3 288.8 334.5 287.1 334.5 287.1 332.5 285.3 330.8 283.8 329.2 283.6 321.5 284zM328 289.3C328 291.2 325 293.7 321.9 294.5 319.8 295 319 294.6 317.6 292.5 316.7 291.1 316.2 289.5 316.5 289 317.5 287.4 328 287.7 328 289.3zM281.7 308.6C280 310.9 279.9 311.3 281.5 316 282.7 319.8 283.8 321.2 285.6 321.6 290.4 322.8 293 321.3 295.2 316 296.3 313.2 297.9 311 298.6 311 299.4 311 300 310.6 300 310.1 300 308.1 297.1 307.2 291.1 307.6 287.5 307.8 284.4 307.6 284.1 307.1 283.7 306.6 282.7 307.3 281.7 308.6zM294 311.5C294 312.9 290.9 317.8 289.8 318.2 287.3 319.2 284 317.2 284 314.7 284 313.4 284.3 312 284.7 311.7 285.5 310.9 294 310.8 294 311.5zM334.5 310C334.1 310.6 333.2 310.9 332.4 310.6 330.3 309.8 329.9 311.5 331.1 316.5 332.5 322.1 335.9 325 341.1 325 345.9 325 350.2 321.5 351.8 316.4 352.4 314.4 352.7 312.4 352.5 312 352.3 311.6 349 311 345.3 310.7 341.6 310.4 337.8 309.9 336.9 309.5 335.9 309.2 334.9 309.4 334.5 310zM344.3 314C348.3 314 349 314.3 349 316 349 319.2 345.4 322 341.5 322 337.6 322 334 319.2 334 316.2 334 313.6 335.1 312.8 337.5 313.4 338.6 313.7 341.6 314 344.3 314zM381 312.5C379.8 314 381.8 325.2 383.7 327.2 384.6 328.3 386.7 329 388.8 329 394.3 329 402.3 319.5 402.5 312.5 402.5 311.9 398.4 311.5 392.2 311.5 386.5 311.5 381.5 311.9 381 312.5zM399 316.4C399 317.2 397.6 319.4 395.8 321.4 393.2 324.3 391.9 325 388.8 325 385.4 325 385 324.7 384.2 321.7 382.7 316.1 383.7 315.5 394.3 315.1 397.7 315 399 315.4 399 316.4zM391 369.4C391 369.6 391.7 370 392.5 370.4 393.3 370.7 394 370.5 394 370 394 369.4 393.3 369 392.5 369 391.7 369 391 369.2 391 369.4zM395.8 370.7C396.4 370.9 397.6 370.9 398.3 370.7 398.9 370.4 398.4 370.2 397 370.2 395.6 370.2 395.1 370.4 395.8 370.7zM409.1 372.4C409.3 372.6 411.3 373 413.5 373.3 416.2 373.7 417 373.6 416 373 414.6 372.1 408.1 371.5 409.1 372.4zM84.4 167.4C82.8 171.7 86.3 174.5 89.4 171.4 91 169.9 91 169.6 89.4 167.9 87.4 165.6 85.2 165.4 84.4 167.4zM99.7 169.7C97.9 171.4 100.6 176 103.5 176 105.2 176 106.2 173.3 105.5 170.9 104.9 169 101.1 168.3 99.7 169.7zM177 169.8C177 170.2 175.9 171.7 174.7 173 171.3 176.7 165 185.8 164.9 187.2 164.8 188.5 163.9 184.9 162.2 175.7 161.1 170.1 160.5 169.2 159.2 171.7 158.5 173 158.6 174.7 159.7 177.5 160.8 180.3 161.3 185.6 161.4 195 161.5 206.3 161.7 208.5 163 208.5 164.1 208.5 164.6 207 164.8 202.2 165 198 165.5 196 166.4 196 167.9 196 172 200.2 172 201.8 172 202.5 172.4 203 172.9 203 173.5 203 174.7 204.3 175.7 206 177.5 209.2 179.7 209.9 180.6 207.7 181.4 205.6 168.7 192.8 166.6 193.6 165.6 194 165 193.7 165 192.9 165 190.8 171.6 180.4 174.9 177.1 177.6 174.5 180 170.9 180 169.6 180 169.3 179.3 169 178.5 169 177.7 169 177 169.3 177 169.8zM208.5 172.7C207.8 177.2 204 190.1 203 191.5 202.6 192 201.9 193.9 201.6 195.6 201.2 197.3 199.8 199.8 198.4 201.1L195.8 203.5 193.5 200.6C191.2 197.7 189.7 192.9 189.6 188 189.5 186.6 189.1 182.9 188.6 179.8 188 175.5 187.4 174.3 186.4 174.7 185.5 175 185.2 176 185.5 177 185.8 177.9 186.4 182.7 186.9 187.6 187.8 197.5 190.1 203.6 193.7 205.3 198.3 207.3 201.5 203.9 205.6 192.7 207.6 187 209 185.8 209.1 189.7 209.2 195.5 211.6 204.5 213.1 204.5 214.7 204.5 214.6 200.3 212.9 196 211.7 192.7 211.2 188.3 211.1 177.7 211 168.8 209.6 166 208.5 172.7zM123.6 180C122.2 182.4 121.9 184.8 122.1 191.3 122.3 195.8 122.7 200.2 123.2 201 124.6 203.7 126.7 235 126.5 251.2 126.4 262.8 126.7 267 127.6 267.4 128.5 267.7 129 265.1 129.5 257.6 130.2 247.3 129.9 239.8 128.1 217.5 127.5 210.9 127 204.9 127 204.3 127 203.3 127.6 203.3 129.4 204.1 130.9 204.8 133.7 205 136.4 204.6 140.1 204 141.2 203.3 142.9 200.4 144.2 198.3 145 195.1 145 192.5 145 186.4 139.9 180.7 132.5 178.5 125.6 176.5 125.7 176.5 123.6 180zM136.4 183.7C145.1 190.1 142.6 201 132.5 201 127 200.9 125.5 198.8 125.5 191.2 125.5 181.9 126.2 180.6 130.5 181.3 132.4 181.6 135.1 182.7 136.4 183.7zM70.3 179C69.1 179.5 65.1 180.6 61.3 181.4 48.7 184.2 42.2 187.4 43.3 190.4 43.9 191.9 44.3 191.9 48.2 189.9 55.1 186.3 56.2 185.8 56.6 186.2 56.8 186.4 57.1 190.3 57.4 194.9 57.6 199.4 58.1 203.4 58.4 203.8 59.9 205.3 60.6 202 60.1 196 59.7 192.4 59.8 188.5 60.3 187.4 61.1 185.5 65.2 183.7 73.8 181.4 75.3 181 75 178.8 73.4 178.4 72.9 178.2 71.5 178.5 70.3 179zM88 182.2C82.1 188.1 81.8 193.4 87.2 199.6 91.5 204.5 105.5 208.2 107.6 204.9 108.8 203 106.1 201.6 101.6 201.9 96.3 202.2 90.8 199.9 88.5 196.4 87 194.1 87 194 89.5 194 93.2 194 100.3 191 102.2 188.6 106.3 183.7 103.1 179 95.7 179 91.9 179 90.6 179.5 88 182.2zM100.4 182.9C101.5 184.7 99.7 187.1 95.9 189 91.9 191.1 86 191.7 86 190 86 189.4 86.5 189 87 189 87.6 189 88 188.5 88 187.8 88 184.2 98.7 180.1 100.4 182.9zM31.8 288.4C27.1 291.5 26.2 294.2 25.9 305.3L25.6 315.1 21.2 316.2C17.4 317.1 14.9 319.2 16.2 320.5 16.4 320.7 18.7 320.3 21.3 319.5 23.9 318.7 26.1 318.4 26.1 318.8 26.2 319.2 26.4 323.1 26.5 327.5 26.8 333.3 27.2 335.5 28.2 335.5 29.2 335.5 29.4 333.4 29.2 326.3L28.9 317.1 32.1 316.2C33.9 315.8 35.6 314.8 35.8 314.1 36.2 313 35.6 312.9 33.4 313.4 31.8 313.8 30.1 314.2 29.5 314.3 27.7 314.6 27.7 297.5 29.5 294 31.3 290.5 35.7 288.3 37.4 290 38.9 291.5 41 291.2 41 289.6 41 288.8 39.7 287.7 38 287.2 35.6 286.3 34.5 286.5 31.8 288.4zM172 288.2C171.9 288.4 171.7 291.9 171.4 296 171.1 300.1 170.5 304.8 170 306.5 168.7 311.2 167.7 337.3 169 336.5 169.5 336.2 170 334.6 170 332.9 170 328.7 171.8 329.3 172.6 333.7 173.3 337.7 174.6 340 176.1 340 177.3 340 177.2 335.3 176 334.5 175.5 334.2 175 332.9 175 331.7 175 330.5 174.3 328.7 173.5 327.6 172.3 326 172.4 325.4 174.3 322.6 175.5 320.9 176.8 319.3 177.3 319.2 177.7 319 178 318 178 316.9 178 314.5 175 314.4 175 316.7 174.9 318.3 171.8 323 170.8 323 170.2 323 171.7 308.7 172.8 304 173.4 301.5 174.1 296.9 174.4 293.7 174.8 289.2 174.6 288 173.4 288 172.6 288 172 288.1 172 288.2zM108.6 291.7C108.3 292.7 107.8 296.2 107.5 299.5 106.6 308.1 106.2 308.8 103.2 309.2 99.5 309.6 99.6 312.5 103.3 312.5 106 312.4 106 312.5 105.9 318.5 105.8 324.8 108.3 332 110.6 332 113.2 332 117 330 117 328.6 117 326.2 115 325.7 113.5 327.6 112.6 328.9 111.8 329.2 111.2 328.5 109.4 326.7 108.2 320.3 108.7 315.6 109.2 311.3 109.5 311 112.1 311 114.1 311 115 310.5 115 309.4 115 308.3 114.2 307.9 112.3 308.2 109.6 308.5 109.5 308.4 109.5 303.5 109.4 300.7 109.7 296.8 110.1 294.7 110.7 290.9 109.6 288.5 108.6 291.7zM210.2 300.7C207.8 301.6 206 307 205.1 315.3 204.7 320 204 324.2 203.6 324.8 203.2 325.5 201.6 325.8 200 325.6 197.2 325.3 195.9 326.4 196.7 328.6 196.9 329.2 198.4 329.4 200.1 329.2L203.2 328.7 202.5 334.5C201.9 339.2 202 340.2 203.1 339.8 204 339.5 204.6 337.4 204.8 333.7 205.1 328.4 205.3 328 207.5 328 209.1 328 210 327.4 210 326.5 210 325.7 209.1 325 208 325 205.9 325 205.9 324.9 207.5 315 207.7 313.6 207.9 310.8 207.9 308.8 208 305.9 208.6 304.7 210.6 303.4 213 301.8 213.3 301.8 216.1 303.4 218.4 304.8 219 304.8 219 303.7 219 301.3 213.4 299.4 210.2 300.7zM187.3 304.7C185.8 305.2 185.5 309 186.9 309 188.4 309 191.1 305.9 190.5 304.9 189.8 303.9 189.2 303.9 187.3 304.7zM126.8 311.5C125.8 312.8 125 314.6 125 315.4 125 316.2 124.6 317.2 124 317.5 121 319.3 124.7 328.6 129.3 330.8 133.6 332.9 138.8 333.4 140.5 332 143 329.9 142.3 329.4 137 329.4 133.6 329.4 131.4 328.8 130 327.5 127.2 325 127.5 324 130.8 324 134.6 324 137 321.2 137 316.7 137 313.6 136.5 312.6 133.8 311 129.6 308.5 128.9 308.5 126.8 311.5zM132.3 313.4C133.3 314.2 134.2 316.1 134.3 317.6 134.5 320.2 134.2 320.5 131.1 320.8 126.5 321.3 125.7 320.1 127.5 315.7 129.2 311.6 129.6 311.4 132.3 313.4zM156.3 311.7C153.4 312.3 152.2 316.4 151.8 326.5 151.6 333 151.8 334.5 153 334.5 154.2 334.5 154.6 332.6 155 325.9 155.6 316 156.9 313.5 161.1 314.4 162.9 314.7 164 314.4 164.3 313.5 165.2 311.3 162 310.6 156.3 311.7zM51.1 313.9C46.6 315.1 44.7 319.1 44.7 327.5 44.7 335.1 45.1 336.7 46.8 335.6 47.4 335.3 47.6 332.4 47.3 329 46.9 325.3 47.2 321.9 48 320.1 49.3 316.8 52.6 315.2 54.3 316.9 55.8 318.4 58 318.3 58 316.7 58 314.8 54 313.2 51.1 313.9zM87.3 315.6C84.9 318 84.8 318.7 85.3 324.7 85.8 331.5 87.4 334.6 89 332 89.5 331.2 89.5 329.9 88.9 328.9 87.6 326.4 87.8 318.6 89.2 317.2 90.9 315.5 93.7 315.7 94.4 317.6 94.7 318.5 95 322.7 95 327.1 95 333.7 95.3 335 96.6 335 99.1 335 98.2 318 95.5 315 93.1 312.3 90.4 312.5 87.3 315.6zM66.7 318.3C64.1 321 63.9 321.7 64.5 325.9 65.3 331.5 68.3 335 72.2 335 78 335 81.7 327.1 78.7 321.3 75.3 314.9 70.9 313.7 66.7 318.3zM75.9 321.6C78.4 324.8 78.5 326.8 76.4 329.8 74.1 333.1 69.3 332.8 67.9 329.2 66 324.5 66 322.7 67.7 320.8 70 318.2 73.5 318.6 75.9 321.6zM186.2 319.9C184.7 324.8 184.6 336.3 186 335.8 186.6 335.6 187.2 332.3 187.4 328.5 187.6 324.6 188.1 320.3 188.5 318.7 189.6 314.5 187.5 315.5 186.2 319.9zM213.8 324.2C212.7 325.1 212 327.8 211.7 332.5 211.4 336.3 210.8 340.5 210.4 341.7 210 343.1 210.2 344 210.8 344 212.2 344 213.2 340.7 213.9 333.6 214.3 329.9 215 327.5 215.9 327.2 217 326.8 217.1 328.1 216.5 333.8 215.4 344.5 219.2 349.6 220.5 339.2 221.4 332 223.1 326 224.1 326.6 225.3 327.3 225.2 336.2 224 339.4 223.4 341.2 223.4 342.8 224.2 344.5 225.8 348.2 228 347.7 228 343.7 228 341.8 228.3 336.9 228.6 332.8 229.2 325.8 229.1 325.1 227.2 324.1 225.8 323.4 224.3 323.3 222.6 324 221 324.6 219.9 324.6 219.5 324 218.6 322.6 215.7 322.8 213.8 324.2zM194.4 336.4C193.6 338.6 194.5 339.4 196.5 338.3 198 337.4 198 337.2 196.6 336.1 195.3 335 194.9 335.1 194.4 336.4z"/>
</svg>
