<svg xmlns="http://www.w3.org/2000/svg" viewBox="0 0 192 192">
  <defs/>
  <path fill="none" d="M0 0h192v192H0V0z"/>
  <path fill="#E1E1E1" d="M184 44v116c0 6.6-5.4 12-12 12H20c-6.6 0-12-5.4-12-12V44h176z"/>
  <path fill="#C2C2C2" d="M20 20h152c6.6 0 12 5.4 12 12v12H8V32c0-6.6 5.4-12 12-12z"/>
  <path fill="#fff" fill-opacity=".2" d="M172 20H20c-6.6 0-12 5.4-12 12v1c0-6.6 5.4-12 12-12h152c6.6 0 12 5.4 12 12v-1c0-6.6-5.4-12-12-12z"/>
  <path fill="#212121" fill-opacity=".1" d="M8 44h176v1H8v-1z"/>
  <path fill="#4285F4" d="M96 80c-35.4 0-64 28.6-64 64v4h28c-.2-1 0-2.6 0-4 0-20 16-36 36-36 7 0 13.3 2 18.8 5.3l20-20C124.2 84.8 110.8 80 96 80z"/>
  <path fill="#F44336" d="M135 93.2l-20.2 20C125 119.8 132 131 132 144v4h28v-4c0-20.7-10-39-25-50.8z"/>
  <circle cx="24" cy="32" r="4" fill="#eee"/>
  <circle cx="40" cy="32" r="4" fill="#eee"/>
  <path fill="#212121" fill-opacity=".1" d="M172 171H20c-6.6 0-12-5.4-12-12v1c0 6.6 5.4 12 12 12h152c6.6 0 12-5.4 12-12v-1c0 6.6-5.4 12-12 12z"/>
  <path fill="#9E9E9E" d="M135 95.7c.4-.4.5-.8.5-1.2 0-1-1-2-2-2-.5 0-1 .2-1.2.4l-43.6 33.3c-3 2.2-4.7 5.6-4.7 9.5 0 6.5 5.4 12 12 12 4.3 0 8-2.4 10.2-6l29-46.4z"/>
  <path fill="#fff" d="M88.7 127.5L132.3 94c.3-.3.7-.5 1.2-.5 1 0 1.7.6 2 1.5v-.5c0-1-1-2-2-2-.5 0-1 .2-1.2.4l-43.6 33.3c-3 2.2-4.7 5.6-4.7 9.5v.4c.2-3.6 2-7 4.7-9z" opacity=".2"/>
  <path fill="#212121" d="M135 95.7l-28.7 46.5c-2.2 3.5-6 5.8-10.3 5.8-6.5 0-11.7-5-12-11.5v.5c0 6.6 5.4 12 12 12 4.3 0 8-2.3 10.2-5.8l29-46.5.3-1.2V95l-.4.7z" opacity=".2"/>
</svg>
