<svg xmlns="http://www.w3.org/2000/svg" fill="none" viewBox="0 0 1280 640">
  <path fill="var(--theme-text, #000)" d="M832.488 327.204C815.015 319.561 797.755 311.524 780.404 303.668 763.6 296.057 745.975 291.459 727.559 290.394 692.521 288.384 660.558 297.488 631.64 317.369 629.357 318.922 627.165 320.627 625.217 322.058 625.217 334.937 625.217 347.42 625.217 359.933 627.043 358.228 628.687 356.645 630.361 355.092 632.096 353.448 633.801 351.774 635.597 350.221 667.073 323.215 703.054 313.076 743.936 321.206 754.742 323.367 764.727 327.691 774.711 332.197 792.063 340.082 809.292 348.212 826.887 355.519 849.809 365.018 873.826 367.91 898.453 365.201 926.672 362.095 951.937 351.53 974.494 334.328 975.103 333.871 975.651 333.293 976.168 332.836 976.168 320.17 976.168 307.657 976.168 294.626 972.028 298.614 968.406 302.359 964.509 305.861 927.737 338.682 877.479 346.872 832.488 327.204zM486.529 365.901C509.39 365.322 526.376 342.853 521.566 320.414 520.105 313.533 516.969 307.566 512.19 302.146 512.555 301.476 512.768 301.05 513.012 300.624 526.71 275.78 509.633 246.856 481.201 246.795 463.728 246.764 446.225 246.795 428.752 246.795 427.717 246.795 426.652 246.886 425.617 246.947 425.617 286.771 425.617 326.26 425.617 365.81 426.164 365.901 426.56 366.023 426.925 366.023 446.803 366.023 466.651 366.388 486.529 365.901zM454.018 275.232C457.64 275.232 461.11 275.232 464.55 275.232 470.395 275.232 476.27 275.14 482.115 275.262 487.594 275.384 491.003 280.621 488.903 285.522 487.746 288.202 485.585 289.968 482.723 289.998 473.226 290.15 463.698 290.059 453.987 290.059 454.018 285.127 454.018 280.407 454.018 275.232zM453.957 318.618C454.535 318.526 454.992 318.374 455.479 318.374 465.007 318.374 474.535 318.283 484.063 318.405 489.512 318.465 493.56 322.241 493.926 327.234 494.321 332.684 490.699 337.494 485.189 337.677 474.9 338.012 464.581 337.768 453.957 337.768 453.957 331.192 453.957 324.951 453.957 318.618zM728.989 82.9932C717.726 82.9932 707.072 82.9932 696.296 82.9932 641.898 177.255 587.531 271.426 532.981 365.931 544.244 365.931 554.868 365.931 565.675 365.931 620.133 271.608 674.47 177.468 728.989 82.9932zM936.078 480.866C935.865 480.958 935.652 481.019 935.408 481.11 918.331 457.636 901.254 434.192 884.359 410.992 874.679 410.992 865.364 410.992 856.049 410.992 856.049 450.755 856.049 490.305 856.049 529.855 865.486 529.855 874.709 529.855 884.298 529.855 884.298 506.441 884.298 483.211 884.298 459.95 884.481 459.919 884.694 459.858 884.876 459.828 901.923 483.241 918.97 506.654 935.804 529.824 945.484 529.824 954.768 529.824 964.083 529.824 964.083 490.122 964.083 450.633 964.083 410.961 954.738 410.961 945.575 410.961 936.047 410.961 936.078 434.344 936.078 457.605 936.078 480.866zM624.76 480.927C624.577 480.958 624.395 481.019 624.212 481.049 607.165 457.636 590.118 434.223 573.163 410.931 563.574 410.931 554.29 410.931 544.823 410.931 544.823 450.785 544.823 490.274 544.823 529.763 554.29 529.763 563.574 529.763 573.132 529.763 573.132 506.35 573.132 483.15 573.132 459.98 573.315 459.919 573.498 459.858 573.711 459.797 590.727 483.18 607.774 506.594 624.699 529.824 634.258 529.824 643.542 529.824 652.887 529.824 652.887 490.092 652.887 450.542 652.887 410.992 643.481 410.992 634.288 410.992 624.76 410.992 624.76 434.436 624.76 457.666 624.76 480.927zM1083.29 464.273C1079.91 433.644 1054.46 410.809 1023.6 410.748 1008.98 410.718 994.402 410.748 979.791 410.748 978.725 410.748 977.66 410.748 976.442 410.748 976.442 450.785 976.442 490.274 976.442 529.855 977.325 529.915 978.025 530.007 978.695 530.007 994.189 530.007 1009.68 530.037 1025.18 529.976 1027.64 529.976 1030.14 529.702 1032.58 529.367 1063.9 525.135 1086.76 495.755 1083.29 464.273zM1055.28 471.245C1054.8 486.59 1043.35 499.713 1028.19 501.265 1020.55 502.057 1012.79 501.418 1004.78 501.418 1004.78 480.745 1004.78 460.132 1004.78 439.277 1012.24 439.277 1019.58 439.246 1026.88 439.307 1028.07 439.307 1029.26 439.612 1030.41 439.855 1045.09 442.839 1055.77 456.357 1055.28 471.245zM399.377 440.951C393.471 423.11 376.546 410.809 357.825 410.779 342.239 410.748 326.623 410.779 311.037 410.779 310.002 410.779 308.967 410.87 307.963 410.901 307.963 450.785 307.963 490.274 307.963 529.824 317.339 529.824 326.532 529.824 336.029 529.824 336.029 519.472 336.029 509.303 336.029 498.952 341.174 498.952 345.983 498.952 350.884 498.952 356.881 509.334 362.848 519.625 368.692 529.794 379.621 529.794 390.275 529.794 401.355 529.794 397.641 523.37 394.141 517.28 390.64 511.191 387.139 505.102 383.608 499.012 380.016 492.801 381.477 491.766 382.756 490.883 384.034 489.939 399.103 478.674 405.313 458.854 399.377 440.951zM361.356 469.967C360.869 470.088 360.382 470.241 359.895 470.241 352.072 470.271 344.248 470.241 336.121 470.241 336.121 459.828 336.121 449.72 336.121 439.459 336.851 439.368 337.49 439.185 338.16 439.185 344.705 439.155 351.25 439.124 357.825 439.185 365.983 439.277 372.254 445.092 373.289 453.282 374.172 460.711 368.936 468.079 361.356 469.967zM473.378 410.779C440.472 410.657 413.562 437.48 413.501 470.362 413.471 503.305 440.198 530.007 473.226 530.007 506.132 529.976 532.677 503.427 532.707 470.515 532.738 437.602 506.193 410.87 473.378 410.779zM473.165 501.783C455.966 501.813 441.902 487.717 441.902 470.454 441.902 453.13 455.814 439.185 473.135 439.185 490.425 439.185 504.489 453.221 504.489 470.423 504.489 487.595 490.334 501.753 473.165 501.783zM347.932 334.846C349.423 334.846 350.58 334.876 351.737 334.846 359.469 334.724 367.262 335.12 374.933 334.328 400.412 331.74 418.219 306.317 412.466 281.26 407.748 260.861 390.092 246.795 369.149 246.795 353.868 246.795 338.556 246.795 323.275 246.795 322.209 246.795 321.144 246.795 319.896 246.795 319.896 286.679 319.896 326.229 319.896 365.87 329.271 365.87 338.434 365.87 347.932 365.87 347.932 355.519 347.932 345.35 347.932 334.846zM348.084 275.232C349.575 275.232 350.915 275.232 352.285 275.232 358.129 275.232 364.004 275.171 369.849 275.262 377.946 275.384 384.247 281.29 385.191 289.48 386.013 296.788 380.899 304.034 373.441 305.982 372.406 306.256 371.28 306.409 370.214 306.409 363.365 306.439 356.516 306.439 349.667 306.439 349.18 306.439 348.723 306.317 348.084 306.226 348.084 295.935 348.084 285.766 348.084 275.232zM795.046 484.946C805.456 484.946 815.624 484.946 825.852 484.946 825.852 475.416 825.852 466.222 825.852 456.601 815.441 456.601 805.213 456.601 795.046 456.601 795.046 450.572 795.046 444.97 795.046 439.063 811.392 439.063 827.556 439.063 843.629 439.063 843.629 429.473 843.629 420.217 843.629 410.992 817.815 410.992 792.245 410.992 766.553 410.992 766.553 450.694 766.553 490.183 766.553 529.824 792.367 529.824 817.998 529.824 843.69 529.824 843.69 520.447 843.69 511.252 843.69 501.753 827.374 501.753 811.24 501.753 795.046 501.753 795.046 496.029 795.046 490.64 795.046 484.946zM277.887 294.991C269.303 293.378 260.78 291.52 252.226 289.694 248.908 288.993 246.716 286.162 246.594 282.874 246.473 279.707 248.634 276.51 251.739 275.627 252.956 275.262 254.296 275.262 255.574 275.262 266.411 275.232 277.218 275.232 288.055 275.232 289.12 275.232 290.186 275.232 291.251 275.232 296.7 265.793 301.997 256.629 307.567 246.947 306.41 246.886 305.832 246.825 305.284 246.825 288.085 246.825 270.917 246.795 253.718 246.856 251.343 246.856 248.938 247.19 246.625 247.708 229.7 251.392 218.193 265.854 218.345 283.117 218.498 300.045 230.43 314.355 247.234 317.765 255.879 319.531 264.554 321.266 273.169 323.093 277.309 323.976 279.592 326.99 279.288 330.979 279.014 334.998 275.878 337.768 271.343 337.829 263.002 337.89 254.661 337.86 246.32 337.86 242.454 337.86 238.588 337.86 234.631 337.86 229.243 347.176 223.916 356.432 218.345 366.084 220.08 366.084 221.176 366.084 222.242 366.084 237.736 366.084 253.23 366.084 268.725 366.084 270.399 366.084 272.104 366.114 273.778 366.053 292.986 365.322 308.663 348.151 307.689 328.969 306.867 311.798 294.752 298.158 277.887 294.991zM218.558 529.855C227.904 529.855 237.097 529.855 246.594 529.855 246.594 514.966 246.594 500.2 246.594 485.098 257.157 485.098 267.416 485.098 277.766 485.098 277.766 475.447 277.766 466.191 277.766 456.54 267.294 456.54 257.036 456.54 246.838 456.54 246.838 450.542 246.838 444.97 246.838 439.094 263.215 439.094 279.379 439.094 295.665 439.094 295.665 429.564 295.665 420.309 295.665 410.901 269.882 410.901 244.311 410.901 218.558 410.901 218.558 450.633 218.558 490.183 218.558 529.855zM1083.47 365.81C1051.87 311.037 1020.46 256.629 989.014 202.191 978.269 202.191 967.675 202.191 956.321 202.191 988.01 257.086 1019.46 311.554 1050.75 365.81 1061.8 365.81 1072.42 365.81 1083.47 365.81zM665.277 439.246C675.383 439.246 685.276 439.246 695.474 439.246 695.474 469.601 695.474 499.652 695.474 529.794 705.063 529.794 714.317 529.794 723.906 529.794 723.906 499.53 723.906 469.479 723.906 439.124 734.195 439.124 744.179 439.124 754.316 439.124 754.316 429.595 754.316 420.4 754.316 410.961 724.454 410.961 694.896 410.961 665.277 410.961 665.277 420.43 665.277 429.686 665.277 439.246z"/>
</svg>
