<svg xmlns="http://www.w3.org/2000/svg" fill="none" viewBox="0 0 640 320">
  <path fill="#34AADF" d="M161.5 297a137.5 137.5 0 1 0 0-275 137.5 137.5 0 0 0 0 275Z"/>
  <path fill="#fff" d="M100.2 208.2c-.8-.7-.8-1.5 0-2.2a6 6 0 0 1 5.5-1.7c2.3.4 3.6.8 4 1.1a25 25 0 0 1 8.6 7.6c3.2 3.9 5.7 6.6 7.6 8 8.9 7.5 18 8 27.3 1.7.8-2.6 2-4.8 3.7-6.7a17 17 0 0 1 4.7-3.9l7.8-3.3a104 104 0 0 1-29.9-6.4 50.7 50.7 0 0 1-18.1-12c-6-6.8-9.6-15.5-11-26.3a67.2 67.2 0 0 1 2.6-29.6 49.2 49.2 0 0 1 9.5-15.1 50 50 0 0 1 1.7-31.8 58 58 0 0 1 32.4 12.2c18.6-4.8 38-5 58-.5a105 105 0 0 1 12-7 49.1 49.1 0 0 1 20.5-4.7 60.2 60.2 0 0 1 2.2 30.1c8.6 9 13 20.9 13.4 35.8 0 11.9-2 21.8-6.1 29.6a47.2 47.2 0 0 1-21.8 19.5c-7 3.4-16.4 5.4-28 6.2a37 37 0 0 1 11.5 8c2.4 2.9 4 7.3 4.8 13.2v17.6l.5 17a19.7 19.7 0 0 0 7.8 7.6c1.2.5 1.5 1.4 1.2 2.5-.4 1.1-2 1.7-4.5 1.7-6.3 0-11.4-2.3-15.1-6.7a12.8 12.8 0 0 1-1.7-6.7v-26.8c0-3-.7-5.2-2.2-6.5-1.5-1.3-3-2.1-4.5-2.5v35.2c0 6.3.8 10.4 2.3 12.3 1.4 1.9 2.4 3.7 2.8 5.6.3.4 0 .6-.9.8-1 .2-2.5 0-4.7-.8a13.8 13.8 0 0 1-10-7.6c-2-3.9-2.9-8-2.9-12.5v-34.7H184v34.7c0 4.4-1 8.7-2.8 12.8-2.6 5.2-7.5 8-14.6 8.4-1-.4-1.6-.7-1.6-1.1l3.3-5.6a32.4 32.4 0 0 0 2.2-12.3v-35.2a9 9 0 0 0-4.1 2.5c-1.3 1.3-2 3.5-2 6.5V263a13 13 0 0 1-1.7 6.7c-3.3 4.4-8.4 6.7-15 6.7-2.7 0-4.2-.6-4.5-1.7-.4-.7-.3-1.4.3-2a17 17 0 0 1 2.5-2l2.2-1.6c1.5-1.1 2.6-2.6 3.4-4.5 1-1.4 1.4-5.4.8-11.7-.6-6.3-.7-10.4-.3-12.3-9.7 3.4-19.5 1.7-29.6-5-3-3-6-7.3-9-12.9-2.2-4-6.6-8.9-13.3-14.5Z"/>
  <path fill="#fff" d="M49.3 143.2a14335.4 14335.4 0 0 0 53 40.7s5.5 4.4-.2 7c-2.4 1.2-11 4.5-20.2 8l-27.5 10.6s-3.8 1.8-6-.5c-2.3-2.4-2-8.5-1.8-9.7.1-1 .8-16.4 2-22.6.2-1.7 1.4-4 5.1-2.8 8.6 2.7 19.2 5.8 25.8 7.5 3 .8 8.6.2-1.5-4.7C63.6 170 49.8 163 49.8 163s-3.1-1.6-4.4-7.2c-1.4-5.7-2.7-12.4-2.7-12.4s.2-5.2 6.6-.1Z"/>
  <path fill="var(--theme-background-invert, #515151)" d="M358.8 195.8h-7V215h-4.5v-19.2h-6.9v-3.6h18.4v3.6Zm10.8 19.5a8.3 8.3 0 0 1-6.3-2.4 7.6 7.6 0 0 1-2.3-5.8v-.6c0-1.3.2-2.5.6-3.5a7.7 7.7 0 0 1 4.3-4.6c1-.4 2-.6 3.2-.6 1.3 0 2.3.2 3.3.6a6.7 6.7 0 0 1 4 4.3c.3 1 .4 2.2.4 3.4v1.9h-11.4c.1.7.3 1.2.5 1.6l1 1.2c.4.3.8.6 1.3.7.5.2 1 .3 1.7.3.8 0 1.7-.1 2.5-.5.8-.3 1.4-.8 2-1.4l2.1 2.3c-.6.8-1.4 1.5-2.6 2.2a9 9 0 0 1-4.3 1Zm-.5-14a3.3 3.3 0 0 0-2.4 1c-.3.3-.6.7-.8 1.2l-.4 1.5h7v-.4a3.4 3.4 0 0 0-.9-2.3 3.7 3.7 0 0 0-2.5-1Zm12.4-10.3h9.5v20.5h4.8v3.5h-14.3v-3.5h5.1v-17h-5V191Zm26.5 24.3a8.3 8.3 0 0 1-6.3-2.4 7.6 7.6 0 0 1-2.3-5.8v-.6c0-1.3.2-2.5.6-3.5a7.7 7.7 0 0 1 4.3-4.6c1-.4 2.1-.6 3.3-.6a8 8 0 0 1 3.2.6 6.7 6.7 0 0 1 4 4.3c.3 1 .5 2.2.5 3.4v1.9h-11.5c.2.7.3 1.2.6 1.6l.9 1.2c.4.3.8.6 1.4.7.5.2 1 .3 1.6.3.9 0 1.7-.1 2.5-.5.8-.3 1.5-.8 2-1.4l2.1 2.3c-.5.8-1.4 1.5-2.6 2.2a9 9 0 0 1-4.2 1Zm-.5-14a3.3 3.3 0 0 0-2.4 1c-.3.3-.5.7-.7 1.2l-.5 1.5h7.1v-.4a3.4 3.4 0 0 0-1-2.3 3.7 3.7 0 0 0-2.5-1Zm11.1 5.1c0-1.3.2-2.4.5-3.5.3-1 .8-2 1.4-2.7a6.2 6.2 0 0 1 5-2.4 6.6 6.6 0 0 1 2.9.6l.8.6.7.7.1-1.6h4v16.4c0 1.1-.2 2.1-.6 3a6.3 6.3 0 0 1-4.2 3.7 10.3 10.3 0 0 1-6.6-.2 8 8 0 0 1-1.6-.8l-1.3-1.2 2-2.7a5.8 5.8 0 0 0 1.8 1.5l1 .3a5.3 5.3 0 0 0 3-.1l1.2-.8c.3-.3.5-.7.7-1.2l.2-1.5v-1a6.1 6.1 0 0 1-1.4 1.2l-1.2.4c-.5.2-1 .2-1.5.2-1 0-2-.2-2.9-.6-.8-.5-1.5-1-2.1-1.8-.6-.8-1-1.7-1.4-2.7a12 12 0 0 1-.5-3.4v-.4Zm4.4.3a6.2 6.2 0 0 0 .9 3.6c.3.5.6.8 1 1 .5.4 1 .5 1.7.5l1-.1.8-.3.7-.6.5-.7V203l-.5-.8-.8-.5-.8-.3h-1a3 3 0 0 0-1.5.3c-.4.3-.8.6-1.1 1.1l-.7 1.6-.2 2v.3Zm27.4-8.9a10.8 10.8 0 0 1 3.2.4l-.6 4.3a14 14 0 0 0-5-.2 4.2 4.2 0 0 0-2.3 1.3l-.8 1.2V215h-4.3v-17h4l.2 2.5v.4a6.8 6.8 0 0 1 5.6-3.1ZM468 215l-.2-.7-.2-.9a5.8 5.8 0 0 1-3.1 1.8l-1.5.1a6.7 6.7 0 0 1-4.2-1.4 4.8 4.8 0 0 1-1.7-3.6c0-1 .2-1.8.6-2.5.3-.7.9-1.3 1.6-1.8.7-.4 1.5-.8 2.4-1 1-.2 2.1-.3 3.3-.3h2.5v-1c0-.4 0-.8-.2-1a2 2 0 0 0-.6-1l-1-.5-1.3-.2c-.5 0-.9 0-1.2.2a2 2 0 0 0-.8.5c-.2.1-.4.3-.4.6l-.2.8h-4.3a4.6 4.6 0 0 1 1.9-3.7c.6-.5 1.3-.9 2.2-1.2.9-.3 1.9-.4 3-.4a9.4 9.4 0 0 1 5.2 1.4 5 5 0 0 1 1.5 2c.3.7.5 1.5.5 2.5v7.3c0 .9 0 1.6.2 2.2l.5 1.5v.3H468Zm-4-3a4.5 4.5 0 0 0 3-1.2l.5-.6v-3h-2.3c-.6 0-1.2.1-1.7.3-.5 0-.9.3-1.2.5-.3.2-.5.5-.6.9a2.5 2.5 0 0 0 0 1.9c0 .2.2.4.4.6l.8.4 1 .2Zm15.4-14 .2 2.1c.3-.7.7-1.3 1.3-1.7.6-.4 1.3-.6 2-.6l1.1.1a2.2 2.2 0 0 1 1.3 1l.3.7.5-.7a3.3 3.3 0 0 1 1.6-1 3.8 3.8 0 0 1 2.5.2c.5.2.8.4 1.2.9a7.5 7.5 0 0 1 1 3.9V215h-4v-12.9l-.3-.5a.9.9 0 0 0-.4-.2h-.9l-.4.1-.2.3-.2.3V215h-4v-12.9l-.3-.5a.9.9 0 0 0-.4-.2 1.4 1.4 0 0 0-1 0 1.2 1.2 0 0 0-.6.6l-.1.3V215h-4v-17h3.7Zm43.7-4v4h6.4v3.3H523v7.3l.2 1.5.7 1c.2.2.5.4.9.5l1.2.2a11.3 11.3 0 0 0 2-.2 16 16 0 0 0 1.7-.3l.4 3-1 .4a11.2 11.2 0 0 1-2.8.6h-1.5c-.9 0-1.7 0-2.5-.3a5 5 0 0 1-3.2-3.1c-.3-.8-.4-1.8-.4-3v-7.6h-3.9v-3.2h3.9V194h4.3Zm10.7 12.4c0-1.2.2-2.4.5-3.4.4-1 .9-2 1.6-2.8.7-.7 1.5-1.3 2.5-1.8a9 9 0 0 1 3.4-.6c1.2 0 2.4.2 3.4.6a7.2 7.2 0 0 1 4 4.6c.4 1 .5 2.2.5 3.4v.3c0 1.3-.1 2.4-.5 3.5a8 8 0 0 1-1.5 2.7c-.7.7-1.5 1.3-2.5 1.8a9 9 0 0 1-3.4.6 9 9 0 0 1-3.4-.6c-1-.4-1.8-1-2.5-1.8a7.8 7.8 0 0 1-1.6-2.7c-.3-1.1-.5-2.2-.5-3.5v-.3Zm4.3.3.2 2c.2.6.4 1.2.7 1.6a3 3 0 0 0 2.8 1.5c.6 0 1.2 0 1.6-.4a3 3 0 0 0 1.2-1c.2-.5.5-1 .6-1.7l.2-2v-.3a9 9 0 0 0-.2-2c-.1-.6-.4-1.1-.6-1.6-.3-.5-.7-.8-1.2-1.1-.4-.3-1-.4-1.6-.4a3 3 0 0 0-1.7.4c-.4.3-.8.6-1.1 1.1l-.7 1.6a9 9 0 0 0-.2 2v.3Zm-180.4 47.6a4 4 0 0 1-1.2 1c-.5.4-1 .8-1.7 1a12 12 0 0 1-7.3.7c-.7-.2-1.4-.4-2-.8a8 8 0 0 1-3-3.2l-.8-2.7c-.2-1-.3-2-.3-3.1V244a14.4 14.4 0 0 1 1.1-5.6 8.6 8.6 0 0 1 2.7-3.2 7.3 7.3 0 0 1 4.4-1.4c1.3 0 2.4.2 3.4.5s1.8.8 2.4 1.4c.7.6 1.2 1.4 1.5 2.2.4 1 .7 2 .8 3h-4.3c0-.6-.2-1-.4-1.5-.1-.4-.3-.8-.6-1-.3-.4-.6-.6-1-.8l-1.6-.2a3 3 0 0 0-1.9.6l-1 1-.7 1.6a9.9 9.9 0 0 0-.4 3.4v3l.1 2.3.5 1.8.4.9.6.7 1.1.7 1.5.3a6.6 6.6 0 0 0 2.8-.6l.5-.4v-4.1h-3.8v-3.3h8.2v9Zm4.9-14.3h9.2v13.5h4.6v3.5h-13.8v-3.5h4.8v-9.9h-4.8v-3.5Zm4.5-4.2.1-1 .6-.7.7-.5a3 3 0 0 1 1-.1c.8 0 1.5.2 2 .6.4.4.6 1 .6 1.7a2 2 0 0 1-.7 1.6c-.4.5-1 .7-1.8.7a3 3 0 0 1-1-.2 2.3 2.3 0 0 1-1.4-1.2l-.1-1Zm21.5.2v4h6.3v3.3h-6.3v7.3c0 .6 0 1 .2 1.5l.6 1 1 .5 1.2.2a11.3 11.3 0 0 0 2-.2 16 16 0 0 0 1.6-.3l.5 3-1.1.4a11.2 11.2 0 0 1-2.7.6h-1.5c-1 0-1.8 0-2.5-.3a5 5 0 0 1-3.2-3.1c-.3-.8-.4-1.8-.4-3v-7.6h-3.9v-3.2h3.9V236h4.3Zm26.1 21h-4.3v-9.9h-6.5v9.9h-4.3v-22.8h4.3v9.4h6.5v-9.3h4.3V257Zm15.4 0-.2-2.4c-.6.9-1.3 1.5-2.1 2a5 5 0 0 1-2.7.7c-.8 0-1.6-.1-2.4-.4-.7-.2-1.3-.7-1.8-1.3-.6-.6-1-1.3-1.3-2.2-.2-1-.4-2-.4-3.3v-10h4.4v10l.1 1.8.5 1c.2.4.5.6.8.7l1.3.2 1.3-.1 1-.4.6-.6.5-.7v-12h4.3v17h-3.9Zm23.4-8.3a14.8 14.8 0 0 1-.6 4.3l-1 1.9a5.4 5.4 0 0 1-3 2.1 6.5 6.5 0 0 1-3.8 0c-.5 0-1-.3-1.4-.6a5.2 5.2 0 0 1-1.2-1.2l-.2 1.8h-4v-24h4.4v8.6a5.8 5.8 0 0 1 1.5-1.2l1.2-.4c.5-.2 1-.2 1.5-.2.7 0 1.4 0 2 .3a5.4 5.4 0 0 1 2.7 1.8c.3.3.6.7.8 1.2.4.7.7 1.5.9 2.4l.2 2.9v.3Zm-4.3-.3a13 13 0 0 0-.3-2.5 5 5 0 0 0-.4-1.1l-.8-1-.9-.3-1-.2c-.5 0-1 0-1.4.2a2.8 2.8 0 0 0-1.4 1.1l-.3.6v6.7l.5.7a3 3 0 0 0 1.4 1 4.3 4.3 0 0 0 2.3 0c.3 0 .6-.2.8-.3l.8-1 .5-1.2.1-1.1v-1.6Zm42.8.3a15 15 0 0 1-.7 4.3 7 7 0 0 1-1 1.9 5.4 5.4 0 0 1-3 2.1 6.5 6.5 0 0 1-3.7 0c-.6 0-1-.3-1.5-.6a5.1 5.1 0 0 1-1.2-1.2l-.2 1.8h-3.9v-24h4.4v8.6a5.6 5.6 0 0 1 1.4-1.2l1.3-.4c.4-.2 1-.2 1.4-.2.8 0 1.4 0 2 .3a5.4 5.4 0 0 1 2.7 1.8l.9 1.2.8 2.4c.2 1 .3 1.9.3 2.9v.3Zm-4.4-.3a13 13 0 0 0-.2-2.5l-.5-1.1a2.5 2.5 0 0 0-1.6-1.3l-1-.2c-.6 0-1 0-1.4.2a2.8 2.8 0 0 0-1.4 1.1 4 4 0 0 0-.3.6v6.7l.4.7.6.6c.2.2.5.3.9.4a4.3 4.3 0 0 0 2.2 0c.3 0 .6-.2.8-.3.4-.3.6-.6.8-1l.5-1.2.2-1.1v-1.6Zm20.4-8.6a10.8 10.8 0 0 1 3.3.4l-.7 4.3a14 14 0 0 0-5-.2 4.2 4.2 0 0 0-2.3 1.3c-.3.3-.5.8-.7 1.2V257h-4.4v-17h4l.3 2.5v.4a6.7 6.7 0 0 1 5.5-3.1Zm8.3.2h9.2v13.5h4.6v3.5h-13.8v-3.5h4.8v-9.9h-4.8v-3.5Zm4.5-4.2c0-.4 0-.7.2-1l.5-.7.8-.5a3 3 0 0 1 1-.1c.8 0 1.4.2 1.9.6.4.4.6 1 .6 1.7 0 .6-.2 1.2-.6 1.6-.5.5-1.1.7-1.9.7a3 3 0 0 1-1-.2 2.3 2.3 0 0 1-1.3-1.2l-.2-1Zm13.2 12.6c0-1.3 0-2.4.4-3.5.3-1 .7-2 1.3-2.7a6 6 0 0 1 2-1.8c.9-.4 1.8-.6 2.9-.6a5.3 5.3 0 0 1 4.1 1.8V233h4.4v24h-4l-.2-1.8a5 5 0 0 1-1.9 1.6c-.7.3-1.5.5-2.5.5s-2-.2-2.7-.6c-.8-.5-1.5-1-2.1-1.8-.6-.8-1-1.7-1.3-2.7-.3-1-.5-2.2-.5-3.4v-.4Zm4.3.3c0 .8 0 1.4.2 2 0 .6.3 1.2.5 1.6.3.5.7.8 1 1 .5.4 1 .5 1.7.5s1.3-.2 1.8-.5 1-.8 1.2-1.3v-7c-.3-.5-.7-1-1.2-1.3-.5-.3-1-.5-1.8-.5a3 3 0 0 0-2.6 1.5c-.3.5-.5 1-.6 1.6a10 10 0 0 0-.2 2v.3Zm14.9-.3c0-1.3.1-2.4.4-3.5.4-1 .8-2 1.4-2.7a6.2 6.2 0 0 1 5-2.4c.6 0 1.1 0 1.6.2a4.6 4.6 0 0 1 2.1 1l.7.7.2-1.6h4v16.4c0 1.1-.3 2.1-.7 3a6.3 6.3 0 0 1-4.1 3.7 10.3 10.3 0 0 1-6.7-.2 8 8 0 0 1-1.6-.8l-1.3-1.2 2-2.7a5.7 5.7 0 0 0 3 1.8 5.3 5.3 0 0 0 2.8-.1c.5-.2.9-.5 1.2-.8.3-.3.5-.7.7-1.2.2-.4.3-1 .3-1.5v-1a6.1 6.1 0 0 1-1.4 1.2l-1.3.4c-.5.2-1 .2-1.5.2-1 0-2-.2-2.8-.6-.9-.5-1.6-1-2.2-1.8-.6-.8-1-1.7-1.4-2.7a12 12 0 0 1-.4-3.4v-.4Zm4.3.3.2 2c.2.6.4 1.2.7 1.6.3.5.7.8 1.1 1 .4.4 1 .5 1.6.5l1-.1.9-.3.6-.6.6-.7V245l-.6-.8-.8-.5-.8-.3h-.9a3 3 0 0 0-1.6.3c-.4.3-.8.6-1 1.1-.4.5-.6 1-.8 1.6l-.2 2v.3Zm23.5 8.6a8.3 8.3 0 0 1-6.3-2.4 7.7 7.7 0 0 1-2.3-5.8v-.6c0-1.3.2-2.5.6-3.5a7.7 7.7 0 0 1 4.3-4.6c1-.4 2-.6 3.2-.6 1.3 0 2.3.2 3.3.6a6.7 6.7 0 0 1 4 4.3c.3 1 .5 2.2.5 3.4v1.9h-11.5c.1.7.3 1.2.5 1.6l1 1.2c.4.3.8.6 1.3.7.5.2 1 .3 1.7.3.9 0 1.7-.1 2.5-.5.8-.3 1.4-.8 2-1.4l2.1 2.3c-.5.8-1.4 1.5-2.6 2.2a9 9 0 0 1-4.3 1Zm-.5-14a3.3 3.3 0 0 0-2.4 1c-.3.3-.6.7-.8 1.2l-.4 1.5h7v-.4a3.4 3.4 0 0 0-.9-2.3 3.7 3.7 0 0 0-2.5-1ZM360.4 87.4v10.3h15.8v8h-15.8V124c0 1.5.2 2.8.5 3.9a6 6 0 0 0 1.6 2.4c.6.6 1.4 1 2.3 1.3 1 .3 2 .4 3.1.4a28.1 28.1 0 0 0 5.1-.4 38.8 38.8 0 0 0 4-.8l1 7.5-2.6 1.2a28 28 0 0 1-6.8 1.2c-1.3.2-2.5.2-3.7.2a21 21 0 0 1-6.3-.9 12.3 12.3 0 0 1-8-7.8c-.7-2-1-4.4-1-7.1v-19.3h-9.7v-8h9.7V87.4h10.8Zm27.1 31.2c0-3.2.4-6.2 1.1-8.8.8-2.7 2-5 3.5-6.9a15.5 15.5 0 0 1 12.5-6 16.5 16.5 0 0 1 7.2 1.7l2 1.4c.6.5 1.2 1.1 1.7 1.8l.4-4h10v40.8c0 2.9-.6 5.4-1.6 7.7a15.7 15.7 0 0 1-10.4 9.1 25.8 25.8 0 0 1-16.6-.4 20 20 0 0 1-4-2c-1.3-.9-2.4-2-3.3-3l4.9-6.7a14.3 14.3 0 0 0 7.4 4.5 13.2 13.2 0 0 0 7.2-.3 8 8 0 0 0 3-2c.8-.8 1.4-1.7 1.8-2.9.4-1.1.6-2.4.6-3.8v-2.5a15.4 15.4 0 0 1-3.5 2.8c-1 .6-2 1-3.2 1.3a15.7 15.7 0 0 1-10.7-1.2c-2.2-1.1-4-2.6-5.4-4.5a21 21 0 0 1-3.5-6.8 30 30 0 0 1-1.1-8.5v-.8Zm10.9.8c0 1.7.1 3.4.5 5 .3 1.4.9 2.8 1.6 3.9a8 8 0 0 0 2.8 2.7c1.1.6 2.4 1 4 1 .9 0 1.7-.1 2.5-.3l2.1-.8c.7-.4 1.2-.8 1.7-1.3.5-.6 1-1.1 1.3-1.8V110c-.4-.7-.8-1.3-1.4-1.9-.5-.5-1.2-1-1.9-1.3l-2-.7-2.3-.2c-1.5 0-2.8.3-4 1a8 8 0 0 0-2.7 2.7 13 13 0 0 0-1.7 4c-.4 1.6-.5 3.3-.5 5v.9Zm75.4 20.6H435v-7.4l18.4-19.8a68.4 68.4 0 0 0 6-7.8c.7-1 1-2 1.3-2.9a8.5 8.5 0 0 0-.1-6c-.3-1-.8-1.9-1.5-2.6a7 7 0 0 0-2.4-1.5 8 8 0 0 0-3-.6 11 11 0 0 0-4 .6c-1 .4-2 1-2.7 1.8a8 8 0 0 0-1.7 3 13 13 0 0 0-.6 4.1h-10.9a17.9 17.9 0 0 1 5.6-13c1.7-1.8 3.8-3.1 6.3-4a22.3 22.3 0 0 1 15.9-.3c2.3.8 4.2 1.9 5.7 3.4 1.4 1.4 2.6 3.2 3.4 5.2a18.7 18.7 0 0 1-2.2 17.2 146.5 146.5 0 0 1-9 10.5l-10.7 11.4h25v8.7Zm9.8-21.4c0-3.2.3-6.2 1.1-8.8.8-2.7 2-5 3.5-6.9a15.4 15.4 0 0 1 12.5-6 16.5 16.5 0 0 1 7.2 1.7l2 1.4c.6.5 1.2 1.1 1.7 1.8l.4-4h10v40.8c0 2.9-.6 5.4-1.6 7.7a15.7 15.7 0 0 1-10.4 9.1 25.8 25.8 0 0 1-16.6-.4 20 20 0 0 1-4-2c-1.3-.9-2.4-2-3.3-3l4.9-6.7a14.3 14.3 0 0 0 7.4 4.5 13.2 13.2 0 0 0 7.1-.3 8 8 0 0 0 3.2-2c.7-.8 1.3-1.7 1.7-2.9.4-1.1.6-2.4.6-3.8v-2.5a15.4 15.4 0 0 1-3.5 2.8c-1 .6-2 1-3.2 1.3a15.7 15.7 0 0 1-10.7-1.2c-2.2-1.1-4-2.6-5.4-4.5a21 21 0 0 1-3.5-6.8 30 30 0 0 1-1.1-8.5v-.8Zm10.9.8c0 1.7.1 3.4.5 5 .3 1.4.9 2.8 1.6 3.9a8 8 0 0 0 2.8 2.7c1.1.6 2.4 1 4 1 .9 0 1.7-.1 2.5-.3l2.1-.8c.7-.4 1.2-.8 1.7-1.3.5-.6 1-1.1 1.3-1.8V110c-.4-.7-.8-1.3-1.4-1.9-.5-.5-1.2-1-1.9-1.3a10.6 10.6 0 0 0-4.3-.9c-1.5 0-2.8.3-4 1a8 8 0 0 0-2.7 2.7 13 13 0 0 0-1.7 4c-.4 1.6-.5 3.3-.5 5v.9Zm49.1-15.8a16.8 16.8 0 0 1 3.9-4.1 13.5 13.5 0 0 1 8-2.5c2.2 0 4.2.3 6 1 2 .6 3.5 1.6 4.8 3 1.4 1.5 2.4 3.3 3.1 5.5.8 2.2 1.1 4.8 1.1 8V140h-10.8v-25.7c0-1.5-.2-2.8-.6-3.9-.4-1-.9-2-1.6-2.6a6.4 6.4 0 0 0-2.5-1.5 12.6 12.6 0 0 0-6-.2c-1 .1-1.7.4-2.4.8a8.6 8.6 0 0 0-3 2.6V140h-10.9V80h10.9v23.6Z"/>
</svg>
