<svg xmlns="http://www.w3.org/2000/svg" fill="none" viewBox="0 0 841 841">
  <g clip-path="url(#a)">
    <path fill="#34AADF" d="M420.5 841C652.74 841 841 652.74 841 420.5S652.74 0 420.5 0 0 188.26 0 420.5 188.26 841 420.5 841Z"/>
    <path fill="#fff" d="M232.91 569.5c-2.28-2.27-2.28-4.55 0-6.83 4.56-4.56 10.25-6.26 17.08-5.13 6.84 1.14 10.82 2.28 11.96 3.42 7.98 3.42 16.8 11.1 26.48 23.06 9.68 11.96 17.37 20.22 23.07 24.78 27.33 22.78 55.23 24.48 83.7 5.12a51.15 51.15 0 0 1 11.11-20.5c5.13-5.7 9.97-9.68 14.52-11.96 4.56-2.28 12.53-5.7 23.92-10.25-37.58-3.42-68.05-9.97-91.4-19.65-23.35-9.68-41.86-21.92-55.52-36.73-18.22-20.5-29.33-47.26-33.32-80.3-3.98-33.02-1.42-63.2 7.7-90.54a150.41 150.41 0 0 1 29.03-46.12c-9.1-28.48-7.4-60.94 5.13-97.38 36.44 2.28 69.47 14.8 99.09 37.58 56.94-14.8 116.17-15.37 177.67-1.7 7.97-5.7 20.22-12.82 36.73-21.36 16.51-8.54 37.3-13.38 62.36-14.52 4.55 12.52 7.68 27.33 9.4 44.42 1.7 17.08.85 33.03-2.57 47.83 26.2 27.33 39.86 63.78 41 109.34 0 36.44-6.26 66.63-18.8 90.54-12.52 23.92-34.73 43.85-66.62 59.8-21.64 10.25-50.11 16.51-85.42 18.79 15.95 7.97 27.62 16.23 35.02 24.77 7.4 8.54 12.25 21.92 14.53 40.15v53.81l1.7 52.11a60.4 60.4 0 0 0 11.96 14.52c4.56 3.99 8.55 6.84 11.96 8.54 3.42 1.71 4.56 4.28 3.42 7.7-1.14 3.4-5.7 5.12-13.67 5.12-19.36 0-34.74-6.84-46.12-20.5-3.42-5.7-5.13-12.53-5.13-20.5v-82c0-9.12-2.28-15.67-6.83-19.65-4.56-4-9.11-6.55-13.67-7.7v107.64c0 19.36 2.28 31.89 6.83 37.58 4.56 5.7 7.4 11.4 8.55 17.09 1.13 1.13.28 1.99-2.57 2.56-2.84.57-7.68-.29-14.52-2.57-14.8-3.41-25.05-11.1-30.75-23.06a88.28 88.28 0 0 1-8.54-38.44V622.46h-22.21v105.92a93.9 93.9 0 0 1-8.54 39.3c-7.98 15.94-22.78 24.48-44.42 25.62-3.42-1.14-5.13-2.27-5.13-3.41 1.14-1.14 4.56-6.84 10.25-17.09 1.14-2.27 2.57-6.83 4.28-13.66 1.7-6.84 2.56-14.81 2.56-23.92V627.59c-4.56 1.14-8.83 3.7-12.81 7.69-4 3.98-5.99 10.53-5.99 19.64v82c0 7.98-1.7 14.81-5.12 20.5-10.25 13.68-25.63 20.51-46.13 20.51-7.97 0-12.52-1.7-13.66-5.13-1.14-2.27-.86-4.27.85-5.98 1.71-1.7 4.27-3.7 7.69-5.98 3.42-2.27 5.7-3.98 6.83-5.12a31.1 31.1 0 0 0 10.25-13.67c3.42-4.55 4.27-16.51 2.57-35.87-1.71-19.37-2-31.9-.86-37.59-29.61 10.25-59.8 5.13-90.55-15.37-9.1-9.12-18.22-22.22-27.33-39.3-6.83-12.53-20.5-27.33-41-44.42Z"/>
    <path fill="#fff" d="M77.24 370.58s83.66 64.56 112.86 86.85c11.4 8.42 49.11 37.54 49.11 37.54s17.03 13.65-.48 21.8c-7.14 3.47-33.4 13.42-61.64 24.5-40.14 15.35-84 32.18-84 32.18s-11.83 5.53-18.59-1.66c-6.76-7.18-5.85-25.97-5.3-29.55.33-2.8 2.33-50.28 5.76-69.22.97-5.13 4.59-12.44 15.97-8.57a2161.03 2161.03 0 0 0 78.66 23.09c9.27 2.47 26.38.42-4.4-14.42C121.11 452.24 78.8 431 78.8 431s-9.42-5-13.48-22.22c-4.07-17.23-8.08-37.75-8.08-37.75s.58-15.98 20-.45Z"/>
  </g>
  <defs>
    <clipPath id="a">
      <path fill="#fff" d="M0 0h841v841H0z"/>
    </clipPath>
  </defs>
</svg>
