<svg version="1" xmlns="http://www.w3.org/2000/svg" width="1077.333" height="1077.333" viewBox="0 0 808.000000 808.000000"><path d="M389.2 2c-14.6 3.8-25.7 11.3-33 22.3-2.4 3.7-2.6 3.7-7.3 3.1-10.5-1.4-15.9 1.8-21.1 12.3-3.7 7.3-9.9 14.1-17.5 19-7.5 4.8-14.9 7.4-25.3 8.8-10.7 1.6-11.1 1.4-11.8-3.5-.7-4.9-4.1-11-8.9-15.8-6.4-6.4-14.1-9.4-24.1-9.4-11 0-18.4 3.2-26.3 11.2-11.3 11.6-13.9 28.8-6.6 44 5 10.4 18.1 21.2 32.1 26.5l4.8 1.9-7.8 2.9c-4.4 1.6-9.2 3.5-10.9 4.2-5.7 2.4-15 6.7-21.5 9.8-7.5 3.5-32.3 17.6-33 18.7-.3.4-1.6 1.3-2.9 2-1.4.7-3 1.7-3.5 2.1-.6.5-6 4.6-12.1 9-6 4.5-14.1 10.9-18 14.3-6.5 5.6-29 28-32.5 32.2-10.2 12.4-15.3 18.9-16.7 21.2-1 1.5-2 2.9-2.4 3.2-1.2 1.1-10.9 16-10.9 16.9 0 .5-.3 1.1-.7 1.3-2.3.9-16.5 27.6-23.2 43.3-2.3 5.5-4.6 10.9-5.1 12-3.2 7.4-10.9 32-13.5 43.3-1.7 7.2-5.5 26.7-6 31.2-.3 3-.8 6.2-1 7-2.7 10.9-2.8 71.2 0 88.2.3 2.1 1.1 7.8 2.1 15.3.3 1.6.7 4.6 1 6.5.4 2.5-.2 4.9-1.9 8.5l-2.5 5 6.3 12.5c6.6 13.2 8.8 18 14 29.9l3.3 7.4-2 4.4c-1.1 2.4-1.7 5-1.5 5.8.3.7 4.6 7 9.6 13.9 5 7 9.1 13.1 9.1 13.6s.3 1 .8 1.2c.4.1 2.5 2.8 4.7 5.8s4.6 6.1 5.3 6.9c.7.7 1 2.1.7 3-.4.9-.9 3.6-1.1 6.1l-.5 4.5 7.3 5.7c7.6 6 15.2 13.1 25 23.6 5.1 5.3 5.7 6.4 5.2 9.1-.4 1.7-.3 5 0 7.3.6 4.2.8 4.4 8.4 8 9.9 4.7 19.8 10.7 28.8 17.4 6.8 5.1 7 5.5 7.1 9.6.2 7.8 2.6 12.9 6.3 13.5 1.4.2 4.9.8 7.7 1.4 2.9.6 5.5 1 5.8 1 .9-.1 15 5.2 20 7.5 5.3 2.5 10.8 5.9 10.5 6.5-.9 1.6 1.6 10.9 3.5 13.3 2.1 2.7 3 3 8.7 3.2 6.8.3 17 1.2 20.3 1.8 1.1.2 5 .9 8.7 1.6 11.9 2.2 14.2 3.3 15 7.4 1 4.8 4 10.6 7 13.3 2.3 2.2 2.5 2.2 8.7.8 11.5-2.7 23.7-3.5 35.9-2.4 4 .4 4.3.6 5.8 5.1 1.8 5.4 6.5 10.9 11 12.7 2.8 1.1 3.7 1 8.2-1.3 10.1-5.1 23.6-8.8 37-10 5.2-.5 5.2-.5 7.1 3.2 3.7 7.1 10.8 13.2 15.6 13.2 1.4 0 5.8-2.2 9.8-4.9 4-2.6 9.7-6.2 12.8-7.9 5.6-3 19.9-8.2 22.5-8.2.7 0 3.3 2.1 5.6 4.6 5.7 6.2 12.2 10.5 16.6 11.1 3.6.4 3.8.2 7.7-5.7 5.1-7.8 14.8-17 21.1-19.9 11.3-5.4 13.3-6.1 14.1-4.8 1.8 2.8 11.1 9.5 15.3 11.1 6.7 2.4 12 2.7 12.7.7.3-.9 2.7-6.2 5.5-11.8 5.8-11.9 12.5-19.2 23.1-25.2l3.8-2.1 2.2 2.1c2.8 2.6 10.7 6.7 16.3 8.4 3.9 1.2 11.8 1.4 12.8.4.2-.2.7-2.9 1.1-5.9 1-8.7 4.4-21.1 7.3-26.5 2.8-5.2 14.5-18 15.9-17.3.8.4 3.1 1.4 9.3 4.1 4.3 1.9 8.6 2.8 16.3 3.2 9.6.5 9.9.3 9.1-6.9-2.2-19.8.3-32.3 8.7-43.9 3.6-5.2 4.2-5.5 6.5-4.7 7.7 3 22.3 3.8 29.6 1.6l5.6-1.6-2.5-7.2c-3.5-10.1-3.8-11.8-3.8-24.3.1-9.8.4-11.7 2.9-17.8l2.9-6.8 4.1.7c10.2 1.7 26-.2 30.9-3.8 1.6-1.2 1.5-1.8-1.6-9.3-5.2-12.4-7.2-22.3-7.2-35.5 0-16.4 0-16.4 7.7-16.8 3.5-.1 7-.4 7.8-.6.8-.1 3.2-.6 5.3-1.1 2-.4 4-1.1 4.3-1.6.3-.5 1-.7 1.5-.4.5.4.9.2.9-.2 0-.5 1.5-1.6 3.3-2.6 1.8-1 4.1-3.2 5.1-4.8l1.7-2.9-4.6-5.2c-6.6-7.3-13.4-20.1-15.1-28.3-.2-1.1-.6-3.1-1-4.5-.3-1.4-.8-5.5-1.1-9.3l-.5-6.7 3.3-.1c11.5-.2 22.7-5.7 30.1-14.7l2.7-3.2-4.7-4.3c-14.9-13.5-23.8-26.6-28-41.3-2.3-8.4-1.8-9.7 5.1-11.8 6-1.8 10.7-3.9 10.7-4.8 0-.5.6-.8 1.3-.8.6 0 2.5-1.1 4-2.4 1.6-1.4 3.2-2.6 3.6-2.8.4-.2 2.7-2.8 5-5.8l4.3-5.4-2.9-2.3c-1.5-1.3-3.2-2.3-3.6-2.3-.5 0-4.5-2.8-9-6.2-13.1-9.8-20-17.8-25.7-29.5l-1.7-3.6 6.9-3.5c8.5-4.3 17.6-12.9 21.2-20.1 1.5-2.9 2.6-5.4 2.4-5.6-.2-.1-3.2-1.2-6.8-2.4-7.8-2.7-25-11.1-25-12.3 0-.4-.6-.8-1.2-.8-1.7 0-10-7.7-14.4-13.2-3.4-4.4-4.3-6.8-2.3-6.8 1.6 0 7.8-4.9 12.7-9.9 4.1-4.3 9.5-13.9 10.7-19.2.6-2.5.4-2.6-11.7-5.9-20.1-5.5-32.3-11.1-40.7-18.8l-4.2-3.9 6-6.2c7.4-7.6 14.1-21 14.1-28.3 0-1.8.3-1.7-17.5-5.8-12.5-2.8-25.6-7.1-34.3-11.2-6.5-3-23.2-13.4-23.2-14.4 0-.3 1.1-2 2.4-3.7 5.8-7.8 9-17.3 10-30 .2-2 0-3.8-.3-3.8-.3-.1-3.1-.3-6.1-.4-25.2-1.4-42.2-3.8-54.8-7.8l-7.1-2.2 5.4-5.7c7.5-8 13.7-19.4 15.1-27.8 1.9-11.1.3-27.3-3.1-33.3-.9-1.5-1.3-2.7-1-2.7.8 0-3.5-6.2-4.9-7.2-.5-.4-3.5 1.9-6.5 5.1-6.2 6.5-12.1 10.2-19.7 12.4-5.7 1.7-16.7 1.9-24 .6-2.7-.5-6.1-1.2-7.5-1.4-1.4-.3-5.7-1.4-9.5-2.6-3.8-1.2-7.3-2.2-7.9-2.4-.5-.1-1.7-.5-2.5-.8-3.4-1.3-23.2-8.1-31.5-10.9-4.9-1.6-9.7-3.2-10.5-3.5-.8-.4-1.9-.7-2.5-.8-.5-.1-3-.8-5.5-1.5s-4.9-1.4-5.5-1.6c-.5-.1-3.9-.9-7.5-1.9-6.4-1.7-14.3-3.2-21-4.1-1.9-.2-9.8-.6-17.5-.9C398.9.2 395.2.4 389.2 2zM418 20.4c18 1.7 28.5 4.4 69.9 18.1 14.6 4.8 27.2 8.8 28 9 .9.2 5.9 1.4 11.1 2.6 11.4 2.6 28 3 35.5 1 5.6-1.6 14-5.5 15-7.1.3-.5 1.1-1 1.6-1 2 0 0 12.3-3.1 18.6-5.5 11.2-14.7 16.9-28.9 18-2.9.2-5.7.6-6.1.9-.5.3-1.1.1-1.5-.5-.4-.6-1-.8-1.5-.5-1.1.7-15.2-2.4-16.5-3.6-.5-.5-1.5-.9-2.3-.9-1.5 0-20.5-7.4-39.4-15.4-6-2.5-10.8-4.3-10.8-3.9 0 .3-.6.1-1.2-.4-1.4-1.1-22-8.2-25.3-8.8-4-.7-7.9-1.6-8.6-2-.4-.3-2.4-.7-4.5-1-3.7-.6-5.9-.9-11.4-2-1.4-.3-7.7-.7-14-1-16.6-.6-23.7 1.6-31.2 9.9l-3.8 4.1-.1-3c-.1-1.7-.2-3.7-.3-4.5-.5-12.7 11.4-24.2 27.2-26.4 1.9-.2 3.5-.6 3.7-.8.5-.4 10.8-.1 18.5.6zm-64.1 30.5c2.7 1.5 2.7 1.6-1 8-2.7 4.7-11.4 14.2-16 17.6-10.1 7.3-29.7 12.9-40.4 11.5-3.4-.5-3.6-.7-1.8-1.3 1.2-.4 3-1 4.1-1.2 2.7-.5 11.8-4.4 17.2-7.4 10.4-5.6 21.4-15.9 27.1-25.1 2.8-4.5 3.2-4.8 5.8-4 1.6.4 3.8 1.3 5 1.9zm68.6 4.1c11.9 1.9 32.3 7.6 34.5 9.6 1.2 1.2 1.2 1.4-.5 1.5-3.3.1-8.9.8-11.5 1.5-2.8.8-4.4 1.1-8 1.6-1.4.3-3 .7-3.5 1-.6.3-2.8.9-5 1.3s-4.7.9-5.5 1.2c-.8.3-1.9.7-2.5.9-2.3.6-10.1 2.5-11.5 2.8-14.8 3.5-25.9 1.3-29.2-5.6-1.6-3.5-1.4-8.4.4-10.5.6-.7.7-1.3.3-1.3-.3 0 .7-1.1 2.3-2.5 3.2-2.7 5.7-3.3 4.9-1.3-.5 1.4 1.8 6.4 3.7 8.4 2.2 2.1 8.2 3.5 10.9 2.5 3.3-1.3 6.1-5.5 6.3-9.5.1-1.7.2-3.2.3-3.4.1-.3 1.6-.1 13.6 1.8zm-174.2 8.7c2.1 1.3 4.1 3.2 4.4 4.1.4.9 1 1.9 1.4 2.2.5.3 1.1 2.8 1.3 5.4.8 8.4 7.6 13.2 24.7 17.5 12.1 3 21.2 4 44.9 4.6 15.7.4 29.3 1.1 37 1.9 1.9.2 6.3.7 9.8 1.1 3.5.3 7.1.8 8 1 .9.1 4.2.6 7.2 1 3 .3 7.1 1 9 1.5 1.9.5 4.9 1.1 6.5 1.4 8.8 1.6 20.2 4.8 27.5 7.6 21.2 8.1 31 17.5 31 29.6 0 5.8-2.3 10.7-6.8 14.4-5.4 4.4-11.2 5.9-25.2 6.5-6.9.2-13.6.7-15 1-1.4.3-4.1.7-6 1-1.9.2-3.5.4-3.5.5 0 .2-1.9.6-6.2 1.4-1.8.3-4.5 1.1-6 1.7-1.5.6-3 1-3.3 1-.6-.1-6.8 1.8-9.5 2.8-1.1.5-4 1.7-6.5 2.6-2.5 1-5.8 2.4-7.5 3.1-17.7 7.5-30.8 12-32.5 10.9-.5-.3-1.1-.1-1.4.4-1.3 2-15.4-.5-19.1-3.3-1.9-1.4-1.9-1.5-.2-1.6 3.3 0 14.2-4.6 38.2-16 16.6-7.9 38.2-16.3 45-17.6 1.1-.2 4-.8 6.5-1.4 9.6-2.1 16-2.9 27.3-3.4 9.7-.4 12.6-5.1 6.5-10.7-6.4-6.1-28.1-14.4-42.8-16.5-1.9-.3-4.6-.7-6-.9-12.2-2.3-27.4-3.3-58.5-4-23.7-.4-36.1-1.2-48.2-3.1-32.4-4.9-52.5-15.5-56-29.4-3.6-14.5 11.5-26 24-18.3zm113.5 4.2c2.8 6.3 24.2 25.4 28.6 25.6.5 0 1.1.5 1.3 1.2.3.9-.5.9-2.9.3-2.9-.8-7.3-1.4-17.3-2.6-15.9-1.8-21.3-2.2-33.5-2.3l-7.5-.2 6.5-3.4c7.4-4 15.4-11 19.5-17.3 1.5-2.3 3-4.2 3.4-4.2.3 0 1.2 1.3 1.9 2.9zM478 79.5c3 .4 7.3 1 9.5 1.5s5.2 1.1 6.7 1.4c1.5.2 4.5 1 6.5 1.7 5.3 1.6 6.8 2.1 6.8 1.8 0-.1 1 .3 2.3 1 1.3.7 3.1 1.4 4 1.6 1.8.4 14.6 5.6 31.3 12.8 17.1 7.3 37.3 13.9 46.9 15.2.8.1 3.8.6 6.5 1 5.7 1 9.5 1.2 18.3 1.4 7.4.1 7.7 1 2.6 6.9-7.2 8.5-19.3 13.2-32.1 12.6-4.3-.1-9.4-.5-11.3-.8-1.9-.3-5.7-.7-8.5-1-2.7-.3-7.7-1.3-11-2.2-3.3-.8-6.7-1.7-7.5-1.9-2.9-.6-21.4-7.7-28.7-11.1-4-1.8-7.3-3-7.3-2.7 0 .3-.6.1-1.2-.5-1.3-1-20.2-7.8-24.1-8.6-1.2-.3-5.6-1.2-9.7-2.1-4.3-1-13.5-1.8-21.5-2l-14-.3-12-5.5c-6.6-3-14.5-6.5-17.5-7.9l-5.5-2.6 6-1.7c3.3-.9 7.1-2 8.5-2.5 5.5-2 19.4-5.1 20.6-4.6.7.3 1.6.2 1.8-.3.3-.4 3.1-.9 6.3-1 3.2-.1 5.9-.4 6.1-.5.4-.5 14.5.2 21.2.9zm-5 39c23.7 2.3 47.5 13.6 63.7 30.1 14.9 15.3 20 30.6 14.8 45.2-.3.8-4.2-1.6-11-6.9-14.3-11-32.6-22.3-51.7-32l-15.8-8v-4.4c0-3.7.3-4.5 1.9-4.5 4 0 16.1 2.7 26.4 6 4.1 1.3 3.5-1.2-1-4.2-6.1-3.9-12.6-6.6-21.5-8.9-8.2-2.1-8.3-2.2-12.5-7.9-3.7-5.2-3.9-5.8-2-5.5 1.2.2 5.1.6 8.7 1zm-146 7c1-.6 6 1.5 6.1 2.7.1.4.2 1.5.2 2.3 0 3.9-.6 4.7-4.7 6.4-2.4 1.1-7.2 2.2-10.7 2.6-3.5.3-7.1.8-8 1.1-1.2.3-1.6-.4-1.7-2.9-.1-1.9-.6-4.6-1.2-6.1-1.3-3.5-1.3-4.3.3-4.3.6 0 3.2-.4 5.7-.8s6-.9 7.9-1c1.8-.2 3.6-.7 3.9-1 .4-.3.8-.1 1 .4.2.6.7.9 1.2.6zm44.4 2.1c3.9.7 6.4 2.1 7.5 4.2 2 3.8-2.1 6-10.4 5.7-3.3-.1-8-.3-10.5-.4l-4.5-.1-.1-5.6-.1-5.6 7.6.6c4.2.3 8.9.9 10.5 1.2zm-86.1 6.6c.9.7 1.8 2.5 2.1 4.1.8 4.8-4.2 7.6-25.1 14.1-1.8.6-2.3.3-2.3-1.2 0-1-1.1-4-2.4-6.6-2.1-4.2-2.2-4.7-.7-5.5 2.1-1.1 11.1-4 14.1-4.6 1.2-.2 2.5-.7 2.8-1 1.1-1 9.9-.5 11.5.7zM238 151.6c2.4 2.1 2.3 6.2-.3 8.7-2.3 2.3-8.5 6.5-12.7 8.5-1.4.6-3.2 1.6-4 2-6 3.4-5.8 3.5-8-1.6-1.2-2.6-3-5.6-4.1-6.8-1.5-1.6-1.7-2.3-.7-3 3.2-2.3 10.6-5.9 16.7-8 6.7-2.3 10.3-2.3 13.1.2zm392.7 7c13 8.7 32.2 17.1 48.6 21.4 2.6.7 4.7 1.6 4.7 2 0 1.7-9.7 9.3-15 11.7-12.9 5.9-32.7 6.7-45.9 1.8-15-5.5-21.1-9.8-42.2-29.7-2-1.9-5.5-5-7.9-6.9l-4.2-3.6 6.8.3c3.8.1 8.5.3 10.4.3 2.6.1 4.5 1.1 7.5 3.9 14.8 13.8 29.9 22 41.8 22.8 7.8.5 7.8.5-2.3-4-8.9-4-22.7-13.3-30.2-20.5-3.1-2.9-3.4-3.7-1.5-3.9 2-.1 13.1-3.3 14.7-4.2.9-.5 2.3-.1 4 1.1 1.4 1.1 6.2 4.5 10.7 7.5zM334 158c2.9 1.6 2.5 4.3-1 6.4-2.7 1.5-19.9 7.8-20.1 7.3-.1-.3-.9-6.1-1.2-8.6-.2-2.2.4-2.6 6.3-4.1 8.2-2 13.4-2.4 16-1zm142.3 8c10.3 6.9 16.9 13.6 20.7 20.9 2 3.7 3.9 11.5 3.4 14.2-1 6.9-1.5 9-3 12.4-.9 2.1-2.6 5.4-3.8 7.2l-2.3 3.3-5.7-7.4c-10-13-22.7-23.6-37.2-30.9-8.1-4.1-26.9-9.7-29.9-8.8-.7.2-.7-.1 0-.7 1-1 6.5-1.7 21-2.8l8-.6 14 6.2c7.7 3.4 14.4 6.5 14.9 6.8 1.5.9-2.9-5-6-8.2-1.6-1.6-5.1-4.4-7.9-6.2-2.7-1.9-4.5-3.4-3.9-3.4.5 0 2.5-1.5 4.4-3.4 1.9-1.9 4-3.5 4.6-3.5.6-.1 4.5 2.2 8.7 4.9zM290 167c2.7 1.5 3.4 4.7 1.6 7.5-1.9 2.9-5.6 5-14.8 8.1l-6.8 2.3-.6-2.7c-.3-1.5-1.2-3.9-2-5.4-2.5-4.7-2.4-4.7 8.4-8.7 5.2-1.9 11.7-2.4 14.2-1.1zm286.9 5.4c10.1 9.4 13.3 13 16.6 19.1 7.5 13.4-2.8 26.5-18.9 24.1-7.2-1.1-7.7-2-5.9-9.6.9-3.6 1.7-6.6 1.9-6.8.1-.2 2.7 1.1 5.8 2.9 8.5 4.8 8.4 4-1.5-9.6-2-2.8-3.6-5.7-3.6-6.5 0-5.6-1.7-17.3-2.8-19-1.4-2.3 3.3.7 8.4 5.4zM192.8 175c1.2 1.2 2.2 2.4 2.3 2.8 0 .4.2 1.6.4 2.7s-.5 3.4-1.6 5.1c-2 3.3-15.6 14.4-17.6 14.4-.6 0-1.3-1.1-1.7-2.3-.3-1.3-2.5-4.4-5-6.8-4.9-4.9-5.1-4.3 3.4-10.4 10.9-8 15.7-9.3 19.8-5.5zm55.5 8.5c1.1.5 1.7 1.8 1.7 4 0 3.8-4.2 8-12.9 12.8l-5 2.8-1.2-2.3c-.6-1.3-2.4-3.7-4-5.4-2.8-2.9-2.9-3.1-1.2-4.6 2.4-2 10-6.2 13.8-7.5 3.2-1.1 5.8-1 8.8.2zm276.5 9.7c.2.4.8.8 1.4.8 1.3 0 9.1 6.2 13.2 10.5 3.3 3.4 6.5 9.9 6.6 13.2 0 4.9-5.4 12.3-10.5 14.3-5.3 2-14.4-1.3-21.2-7.7l-3.1-2.9 1.7-5.2c.9-2.8 2-5.2 2.4-5.2 1 0 13.5 6.7 15.6 8.4 1.1.9 1.3.6.6-1.4-1-3.5-7.2-10.4-13.2-14.8-1.9-1.4-2.3-2.8-2.7-8.9l-.4-7.2 4.7 2.6c2.5 1.5 4.8 3.1 4.9 3.5zM416 196.4c1.9.3 3.6.6 3.8.7.2.2.2.2 5.2 1.3 11.3 2.7 26.6 11.9 38.6 23.3 6.3 6 15.1 16.4 19.5 23.2 1.9 2.8 4 5.1 4.7 5.1 2 0 8.5-3.6 12.1-6.6l3.2-2.7 2.7 2.4c6.6 5.8 21.3 21.1 26.8 27.9 19.5 24.1 36.4 57.7 42.9 85 2.4 10.2 3.4 15.3 4 19.5.4 2.7.9 6.1 1.1 7.5 2.3 15.3 2.2 44-.2 58-.4 1.9-.7 4-.8 4.7-.5 2.9-1.7 2-8.4-5.9l-7.1-8.2.5-5.1c.7-6.9.6-27.4-.1-30.5-.4-1.4-.8-3.4-1-4.5-.5-3.8-3.5-11.6-6.5-17.3-4.1-7.9-10.4-14-18-17.6-5.3-2.5-7.6-3-13.5-2.9-6.6.1-18.5 3.4-18.5 5.1 0 1.3-5.8 3.3-10.7 3.8-14.7 1.3-27.6 10.6-31.7 22.8-1.9 5.8-2 14.6-.2 19.6l1.3 3.5 7.3-.2c12.7-.2 19.5 3.9 22.3 13.4 2.9 9.7.4 20.2-7.4 30.9-3.7 5-11.5 12.4-13.1 12.4-2 0-.4 3 4 7.2 4.6 4.5 13.2 10.5 13.2 9.2 0-.4.6-.1 1.3.5 4.1 3.4 18.6 3.2 28.6-.4 4-1.5 7.3-2.5 7.4-2.3 5.6 11.2 13.3 25.9 17 32.1l4.7 8-3.2 5.1c-5.6 8.9-4.8 8.6-15.7 8-17.9-.9-26.3-2.8-37.3-8.2-6.5-3.3-7.4-4.1-8.6-7.7-.7-2.2-1.5-4.7-1.9-5.5-.3-.8-.7-2-.8-2.6-.7-2.9-7.2-15.6-11.3-21.7-12.2-18.4-30.7-25.6-46.7-18.3-5.5 2.5-13.9 10.1-15 13.5-.3 1-2.4 2.7-4.8 3.7-5.8 2.6-13.4 10.5-16.4 17.1-3.1 6.7-3.7 14.9-1.8 21.9 2.4 8.3 8.4 15.7 10.4 12.6.4-.8 1-1.3 1.2-1.2.2.1 1.8-.4 3.4-1 11.9-4.6 21.6-1.7 26.1 7.8 2 4.2 2.6 15.3 1.2 21.4-.5 2.3-1.1 4.7-1.2 5.3-.5 2.3-2.9 8.9-4.2 11.3-1.2 2.5-1.2 2.8.7 4.3 3.6 2.7 13.1 5.6 19.1 5.8 10.7.4 21.5-4.2 28.5-12.3l3.1-3.4 7.6 5.2 7.5 5.3-5.5 3.9c-3.1 2.1-6.1 4.4-6.7 4.9-1.1 1-6.1 4-15.2 9.2-14.4 8.2-40.1 18.4-55 21.8-6.9 1.6-17.3 3.6-20.5 4-1.4.1-5.2.7-8.5 1.1-7.5 1-36.4 1.1-46.9 0-31.1-3-65.2-14.3-90.6-30-6.3-3.9-18.2-11.9-20.8-14.1-19.2-15.6-28.4-24.9-45.3-46.2-3.7-4.7-13.9-21.6-18.5-30.7-7.2-14.2-16-36.9-17.8-46.2-.3-1.1-1.3-6.4-2.5-11.9-1.1-5.5-2.3-12.5-2.6-15.5-.3-3-.8-7.2-1.1-9.3-.8-5.1-.8-30.1 0-36.3.3-2.7.9-7.4 1.2-10.4.9-7.7 1.1-9.4 1.8-12.7.4-1.5.8-3.7 1-4.8.2-1.1 1.2-4.9 2.1-8.5l2-8c.2-.8 1.1-3.2 1.9-5.2.9-2.1 1.6-4 1.5-4.3-.1-1 4.1-11.6 7.6-18.9 1.9-4.1 3.5-7.9 3.5-8.5 0-.6.4-1.1.8-1.1s1.3-1.2 1.9-2.8c1.3-2.9 5.5-10.4 6.4-11.2.3-.3 1.6-2.3 2.9-4.5 1.3-2.2 2.6-4.2 3-4.5.3-.3 2.5-3.2 4.9-6.5 10.3-13.9 35.9-40.5 39.2-40.5.5 0 .9-.4.9-.8 0-.5 3-3 6.8-5.7 3.7-2.7 6.9-5.2 7.2-5.5 1.2-1.3 12.1-8 13-8 .5 0 1-.4 1-.9 0-1.3 29.2-15.5 37.5-18.2 7.8-2.5 10.8-3 11.5-1.8 1 1.5 13.8 7.7 17.1 8.4 1.9.3 6.1.8 9.4 1.2 3.3.3 6.5 1 7.2 1.5 1.3 1.1 9.7.5 18.8-1.3 7.2-1.3 7.6-1.4 9.5-2.1 1.4-.6 20.7-5.3 26-6.4 13-2.8 24.5-3.4 35-2zM153.9 203c2.5 1.3 4.5 6.4 3.7 9.6-.4 1.5-1.7 4.2-3 6-2.4 3.6-12.2 14.4-13 14.4-.3 0-2.3-1.7-4.4-3.8-2.2-2.1-5.6-4.6-7.7-5.6l-3.7-1.8 5.3-5.6c12.9-13.3 17.6-16 22.8-13.2zm459.8 8.6c6 7.3 14.7 21.4 14.6 23.4 0 .3.4 2 .8 3.8 1.1 4.9-.7 10-4.3 12.2-2.9 1.8-13 3.8-15.3 3.1-.5-.2-1.4-.4-2-.5-5.2-1-16.7-10.5-22.8-18.9-1.5-2-3.8-5.2-5.2-7l-2.4-3.3 3.9-.1c2.1 0 5.2-.7 6.8-1.5 2.7-1.4 3.1-1.3 5.8.6 1.6 1.2 5.1 4.2 7.9 6.8 3 2.9 5.1 4.2 5.3 3.4.3-1.4-5.1-11.9-7.6-14.8-1.3-1.6-1.1-2.2 1.7-6.6 1.7-2.7 3.2-6.1 3.3-7.5.1-1.5.7-2.6 1.3-2.4.5.2 4.2 4.4 8.2 9.3zm13.5-6.1c6.3 1.3 26.7 1.4 31.8 0 4.9-1.2 5.5-1.2 7.3.8.9 1.1 1.7 2.3 1.7 2.7 0 1.8 13.6 14.4 19.8 18.4 7.2 4.7 19.6 10.5 27 12.7 2.3.7 4.1 1.7 3.9 2.2-.6 1.8-10.6 6.7-16.8 8.3-6.6 1.7-18 2.2-23.9 1.1-9.4-1.7-21.9-7.5-30.5-14-6.6-5-18.8-17.7-24.8-25.9-3.1-4.2-5.7-8-5.7-8.3 0-.4.9-.4 2 0 1 .3 4.7 1.2 8.2 2zm-415.8 2.1c3.6 3.5 1 8.5-8.1 16-5.1 4.1-5.7 4.4-6.6 2.7-.5-1-2.7-3.6-4.8-5.9l-3.9-4 3.2-2.5c10-7.5 16.9-9.7 20.2-6.3zM566 228.7c12.8 14.1 14.1 25.9 3.5 33.1-8.8 6.1-18 2.4-29.1-11.7l-4.3-5.4 5-2.4c5.8-2.6 5.7-2.7 14.8 4.6 3.5 2.8 6.7 5.1 7.2 5.1 1.4 0-6-12.5-9.9-16.5-1-1.1-.7-2.3 1.3-6.1 1.4-2.6 2.5-5.3 2.5-6 0-3 3.1-1.1 9 5.3zm-387.4 6.8c1.9 1.9 2.3 3.1 1.9 5.6-.5 2.8-3.1 7.3-6.2 10.6-.6.7-2.1 2.5-3.2 3.9l-2.1 2.7-3.6-3.7c-1.9-2-4.8-4.3-6.4-5.1-1.7-.9-3-1.9-3-2.3 0-.4 2.2-3.1 4.9-6 8-8.5 13.2-10.2 17.7-5.7zm-56.4 6.3c1.5.9 2.9 2.1 2.9 2.7.6 4.6.5 6.3-.7 9-1.4 3.5-11.1 18.5-11.9 18.5-.3 0-2.4-1.5-4.8-3.3-3.9-3-6.6-4.4-12-6.1-1.6-.5-1.3-1.3 2.4-6.7 5.6-8.2 7.7-10.6 12.2-14 4.1-3 7-3 11.9-.1zm523.3 20.6c7.3 14.6 9.5 21.6 9 28.3-.6 7.4-6.1 11.4-15 10.7-9.6-.8-18.5-8.7-27.2-24.4-1.6-3-4.5-8.1-6.3-11.3l-3.2-5.8 2.8.7c1.6.4 5.4.8 8.5.8 5.7.1 5.7.1 10 5.6 2.4 3 4.7 5.6 5.1 5.8.5.2.8.9.8 1.7 0 .7.7 1.8 1.5 2.5 1.3 1 1.5.9 1.5-.9 0-1.2-.7-3.7-1.4-5.6-.8-1.9-1.3-3.5-1-3.5.2 0-.5-1.8-1.6-4l-2-3.9 4.5-4.7c2.5-2.5 4.5-5.3 4.5-6.1 0-3.4 3.2 1.3 9.5 14.1zm15.2-6.3c2.9 1 5.3 1.6 5.3 1.3 0-.3.8 0 1.8.5 2.5 1.3 11.5 2.4 20.9 2.5l8.3.1 2.7 5.2c1.4 2.9 3 5.3 3.5 5.3.4 0 .8.5.8 1.1 0 1.7 6.4 9.6 12.9 15.8 5.8 5.6 17.5 13.8 22.9 16 1.8.8 3.2 1.6 3.2 2 0 .4-2 1.7-4.5 2.9-12.7 6.2-33 4.2-47.2-4.5-10.1-6.2-18.3-14-27.1-25.8-4.1-5.4-15.2-25.1-15.2-26.9 0-.4 1.4.1 3.2 1 1.7.9 5.5 2.4 8.5 3.5zm-65.1 13.2c8.5 14.4 8.9 23.4 1.2 28.8-1.8 1.3-3.5 2.6-3.8 3-.3.3-1.6 1-3 1.4-8.6 2.8-16.3-3.1-24.4-18.8-3-5.7-3.3-6.7-1.8-6.7.9-.1 3.5-.7 5.6-1.5 4.4-1.6 4.5-1.5 13.5 9.3 2.4 2.9 4.6 5 4.8 4.8.9-.8-2.8-12-5.3-16.4l-2.5-4.2 2.9-4.3c1.6-2.3 3.2-5.1 3.6-6.2.7-1.9.8-1.9 2.6.5 1.1 1.4 4 6 6.6 10.3zm-444.3-.3c1.9 2.2 2.4 3.7 2 6.2-.4 3.3-5.2 13.6-7.8 17.2-1.3 1.7-1.5 1.7-3.7-.4-1.3-1.2-4.8-3.5-7.9-4.9l-5.6-2.7 2-4c1.1-2.1 2.4-4.1 2.8-4.2.5-.2.9-.9.9-1.5s1.9-2.8 4.2-4.9c5.4-4.9 9.5-5.1 13.1-.8zm-55.5 16.6c3.8 4.2 3 10-3.3 24l-2.7 6.1-5.7-2.9c-3.1-1.5-7.9-3.1-10.8-3.5-4.7-.5-5.1-.8-4.2-2.4.5-1.1.8-1.9.5-1.9-.2 0 1.1-3.1 2.9-6.9 3.6-7.4 8.7-13.8 11.9-15.1 3.3-1.4 8.9 0 11.4 2.6zm570.6 24.8c10.7 28.9 8.4 42-7.4 41.2-3-.1-6.9-1-8.6-1.9-4.3-2.2-10.8-9.6-14-15.9-3.6-7-10.5-27.2-9.4-27.6.5-.2 1.9.2 3.2.9 1.2.7 4.1 1.4 6.3 1.6 4.7.5 6.9 2.8 11.1 11.4 1.6 3.3 3.2 5.9 3.5 5.9.7 0 .3-8-.6-13.7-.7-4-.6-4.1 2.9-5.8 2-1 4.7-3 5.9-4.5 1.2-1.5 2.5-2.5 2.8-2.1.4.3 2.3 5.1 4.3 10.5zm-51.6-1.4c3 6.7 5.2 14.9 5.2 19.3 0 8.6-5.6 14.4-14.6 15.1-7.8.5-11.3-1.7-15.8-10.4-2.7-5.2-7.1-16.9-6.5-17.4.2-.2 2.9-.6 5.9-.9 6.1-.7 5.5-1.2 11.8 10.3 4.9 9 5.5 9.3 4.8 2.2-.3-3.4-1.3-8.5-2.2-11.3l-1.7-5 4.2-4.1c2.2-2.3 4.1-4.6 4.1-5.2 0-1.5 2.4 2.2 4.8 7.4zm71.7 2.8c8.8 4.4 23.8 8.5 30.7 8.4 1.7-.1 3.6 1.6 3.7 3.3.5 5.8 7.4 20 14.4 29.7 4.6 6.4 18 19.8 19.8 19.8.5 0 .9.4.9.9 0 1.4-8.3 3.1-15 3.1-26.6 0-54.7-26.2-66-61.5-1.2-3.9-2.6-8-3-9.2-1.3-3.3-.1-3.5 4.4-.4 2.2 1.6 6.8 4.2 10.1 5.9zm-560.3-6.9c.4.1 1.9 1.2 3.4 2.6 2 1.9 2.7 3.5 2.8 7.1.3 4.7-2.9 15.4-4.5 15.4-.4 0-2.4-1-4.5-2.2-2-1.2-6-2.7-8.8-3.3-5.9-1.4-6.1-2.3-2.5-10 3.9-8.4 7.2-10.6 14.1-9.6zm-51.4 25.4c3.4 1.6 5 5.4 4.7 11.2-.2 5.5-4.4 21.5-5.6 21.5-.4 0-2.9-.9-5.6-2.1-4.2-1.8-8.6-2.6-16-2.8l-2.2-.1 2-6.8c1.1-3.7 2.2-7.4 2.4-8.3 1.3-5.9 5-11.5 9-13.7 2.3-1.2 7.8-.7 11.3 1.1zm36.4 13.6c3 .2 7.5 4.9 8.4 8.8.4 2.1.7 4 .7 4.3-.1.3-.4 2.7-.7 5.5-.9 8.1-1.8 11.6-3 11.2-.6-.2-2.9-1-5.1-1.7-2.2-.7-4.7-1.5-5.5-1.8-.8-.3-3.9-.4-6.7-.3-6 .1-5.8.4-3.9-8.4 2.6-11.9 6.9-18.5 11.9-17.9 1.2.1 3 .3 3.9.3zm515.7 6.8c.7 2.7 1.4 6.1 1.7 7.8.3 1.6.9 4.9 1.3 7.1 1.5 8.2.1 14.6-4.3 19-3.5 3.5-14.4 4-19.1 1-3.7-2.4-7.1-10.4-8.9-20.6-1.5-8.8-1.1-10.9 2-9.2 1 .6 2.9.6 4.6.1 2.7-.7 3-.5 4.7 3.4 1 2.3 2.6 6.7 3.6 9.7 2.2 6.9 2.6 7.5 3.5 6.1.9-1.5.6-16.8-.4-19.8-.6-1.8-.1-2.5 2.1-3.6 1.5-.8 3.7-2.4 4.7-3.6 2.7-3 3.3-2.7 4.5 2.6zm16.9 3.7c2 1.4 4.9 2.8 6.4 3.1 3.8 1 4.6 2.2 7.8 12.7 1.6 5.1 3 8.5 3.1 7.5.1-.9.3-2.6.4-3.7.1-1.1.3-4.8.4-8.3l.1-6.3 4.3-1.1c2.3-.7 5.2-2.1 6.5-3.3 1.3-1.2 2.5-2 2.6-1.9.2.2 1.2 4.9 2.1 10.4 2.1 11.6 2.5 28.5.7 33.5-2.8 8.3-9.3 11.5-16.3 8.2-4.8-2.3-10.9-7.2-10.9-8.9 0-.7-.3-1.3-.8-1.3-.8 0-2.3-3.1-4.7-10-1.6-4.4-2-5.9-3-11-.3-1.4-.7-3.6-1-4.9-.2-1.3-.7-4.7-1-7.5-.2-2.8-.7-6.1-.9-7.4-.6-2.8-.4-2.8 4.2.2zm50.7 11c1.7 1.5 4.8 4 7 5.4 2.2 1.5 4.2 2.9 4.5 3.2 1.2 1.4 14.4 7.3 19.7 8.9 5.2 1.6 5.8 2 5.9 4.7.2 3 1 7.8 2.1 12.9 1 4.2 1 4.4 1.3 5 .1.3.3.8.4 1.2 2.3 10 11 25.7 19 34.7 2 2.1 3.3 4.2 3.1 4.7-.8 1.2-13.7.7-19-.8-16.4-4.8-30.8-18.9-40.6-39.7-3.8-8.2-8.2-21.8-9.3-29.1-.4-2.2-.8-5.1-1.1-6.5-.2-1.4-.6-4.7-1-7.5l-.6-5 2.8 2.6c1.5 1.4 4.2 3.8 5.8 5.3zm-162.9 11.1c3.5 2.7 8.8 12.9 9.9 19 1.2 7 1.3 26.8.2 33.7l-1 6.7 3.8 5.8c22.8 34.7 49.4 54.4 70.5 52.2 3.6-.4 7.4-.9 8.4-1 1.5-.3 2 .3 2.3 2.6.8 5.8 2.4 10.6 4.3 12.5 1.8 1.8 1.8 1.9-1.3 2.6-9 2-24.9.1-38.4-4.5l-5.8-2 3.3 2.8c9.1 7.8 22.6 12.1 36.8 11.6 5-.1 10-.8 11.2-1.4 1.9-1 2.6-.8 4.5 1 2.8 2.6 8.9 5.8 14.1 7.3l3.9 1.1-5.9 3.2c-10.1 5.4-26.8 7.2-39.5 4.4-4.6-1-5-.2-1.1 2.1 9.1 5.4 27 7.2 37 3.9 2.9-1 5.4-1.5 5.7-1.2.6 1-6.8 12.3-9.5 14.5-3.9 3.1-10.9 5.7-15.9 5.9-4.9.1-13.8-2-14.7-3.4-.3-.5-1.4-.9-2.4-.9s-2-.3-2.2-.8c-.1-.4-2.8-2.4-5.9-4.5-7.2-4.8-18.8-16.3-27.3-26.8-7.3-9.2-21.6-30.2-21.6-31.8 0-.6-.4-1.1-.8-1.1s-1.8-1.9-3-4.3c-1.2-2.3-3.8-6.9-5.7-10.2-1.9-3.3-5.3-9.7-7.6-14.2l-4.2-8.3-3.4 4c-4.8 5.6-15.5 10.6-23.2 10.9-3.3.1-6.2-.2-6.5-.7-.2-.4 1.1-2.6 3-4.8 13.2-14.7 16.7-35.7 8.5-51.5-5.2-10-15.7-17.4-25.8-18.1-1.8-.1-3.3-.7-3.3-1.3 0-1.4 3.6-4.8 6.9-6.5 3.3-1.7 12.8-2.1 18.1-.7 5.8 1.6 12.7 8.4 16.5 16.6 3.5 7.3 5 6.2 4.2-2.9-.5-6.3-4.1-14.5-8.2-18.6-3.1-3.1-3.1-4.2-.2-5.3 3.2-1.2 7.8-.3 11.3 2.4zM62.1 380c3.1 1.4 5.8 5.7 6.5 10.2.7 4.8.4 17.3-.5 22 0 .3-2.2-.1-4.8-1.1-4.8-1.7-15.6-2.1-20.1-.6-2.4.7-2.4.4-.8-14 .9-8.3 4.7-16 8.5-17.4 3.1-1.2 7.6-.8 11.2.9zm46.7 13.1c3.3 2.4 5.3 8.4 5.6 16.6l.3 7.5-3.6-.8c-4.8-1-14.2-1.2-16.1-.3-.8.3-2.7.9-4.3 1.3l-2.7.6.4-9.2c.6-13.9 2.6-17.4 10.6-18 5.1-.4 6.6 0 9.8 2.3zm526.6 17.4c0 16.8-4.1 22.2-16.5 22.1-8.8-.1-13.8-3.6-15.6-10.7-.7-2.9-1.3-23.1-.7-24.1.3-.4 2.4-.1 4.9.6 2.4.8 4.6 1.1 4.9.9.7-.7 2.2 2.9 4.2 10.1 1.3 4.7 1.8 5.6 2.6 4.2 1.5-2.6 3.6-11.8 3.1-13.2-.3-.8.6-1.6 2.1-2 1.4-.3 4.3-1.5 6.4-2.5l3.7-2 .5 3.3c.3 1.8.5 7.8.4 13.3zm19.6 0c1.6.8 3.2 2.5 3.5 3.8.8 3.6 1.5 7.9 2.2 13 .3 2.6.7 4.6.9 4.4.3-.3 2.4-8.4 3.8-14.9.5-2.1 1.2-2.8 2.9-2.7 3 .1 4.6-.4 8.6-2.4 1.9-.9 3.6-1.7 3.9-1.7.5 0-.5 26.5-1.3 30.5-.3 1.6-.8 4.1-1.2 5.5-.3 1.4-.7 3.1-.9 3.8-.7 3.6-5.6 10.1-8.4 11-5.2 1.9-9.5.1-16.7-6.7-2.2-2-5.7-10.4-6.9-16.3-.8-3.8-1.3-30.4-.6-33.1.4-1.5.9-1.3 3.8 1.3 1.9 1.6 4.8 3.7 6.4 4.5zm39.2 11.2c7.3 10.8 20.3 21.7 33.8 28.5 4.1 2.1 4.5 2.6 4.1 5.3-.7 4.7-.5 17.5.3 23 1.8 12.4 4.6 20.6 10.5 30.7l3.9 6.7-6.1-.4c-7.6-.6-15.5-3.6-22.3-8.6-5.6-4.1-13.4-12.5-15.5-16.8-.7-1.4-1.8-3.3-2.5-4.1-1.2-1.7-6.1-13.7-6.9-17.2-.3-1.3-1.2-5.2-2.1-8.8-2.1-8.9-2.8-43-.8-43 .2 0 1.8 2.1 3.6 4.7zM61.7 433.2c2.5 2.2 5.9 8.7 7 13.1 1.1 4.9 2.5 19.7 1.8 19.7-.4 0-1.4-.4-2.4-1-4.7-2.5-14.9-3.1-21.7-1.4-2.7.7-5.1 1.1-5.3.9-.5-.6-1.3-11.2-1.2-18 0-12.6 5.8-18.5 15.9-16.4 1.9.4 4.5 1.8 5.9 3.1zm45.7 3.2c5.7 2.4 9.4 8.7 11.4 19.7l.9 4.7-6.1.5c-8.3.7-11 1.4-16.7 4.3-5.6 2.8-5.3 3.1-6.9-6.6-2.1-13.6-.8-20.2 4.4-22.5 4.1-1.8 8.9-1.8 13-.1zm502.6 7.8c1 .3 2.2 6.3 2.4 12 0 2.1.4 3.8.7 3.8.9 0 3.5-5.7 4.8-10.5 1-3.9 1.3-4.1 7.1-5.6l6.1-1.6-.6 5.1c-.4 2.8-.7 5.8-.7 6.6 0 .8-.5 3.3-1 5.5-.6 2.2-1.2 4.8-1.3 5.7-.8 3.8-3.9 9-6.7 11-4 2.8-9.5 2.7-14.9-.3-8.4-4.6-10-11.6-6.9-28.9l1.3-7.6 4.4 2.2c2.4 1.3 4.8 2.4 5.3 2.6zm33.5 11.8c.3 1 2.6 3.8 5 6.1 4.2 4 4.3 4.3 4.3 10.3 0 11.9.1 13.3 1.4 11.2 2-3.6 5.6-13.5 5-14-.3-.4 1.4-.4 3.8-.2 2.5.2 6.3-.2 8.6-.9l4.2-1.3-.4 2.7c-4.9 29.3-12 44-22 45.4-4.5.6-7.6-1-11.6-6.1-2.5-3.1-4.1-6.4-4.9-10.2-1.5-7.1-1.1-20.4.8-28.5.3-1.6.7-3.5.8-4 0-.6.6-3.6 1.4-6.8 1.3-5.9 2.5-7.2 3.6-3.7zm45.4 28.3c6.8 13.1 16 23.6 26.6 30.6 4.4 2.8 5.6 4.1 4.9 5.2-1.4 2.4-3.6 19-3.7 27.9 0 14 .4 17.2 4.9 32.7.6 2.1.4 2.2-3.2 1.2-13.9-3.6-24.2-11.5-31.1-23.7-11.1-19.8-12.6-46.6-4.2-77.4.7-2.6 1.4-4.6 1.5-4.5.1.1 2.1 3.7 4.3 8zm-567.3-1.8c3.3 2.1 7.1 8.5 10.5 17.3 1.3 3.6.4 5.1-3.1 5.2-3 0-11.8 6-15.5 10.4l-3.8 4.6-2.5-2.2c-4.1-3.9-7.9-10.1-9.4-15.3-1.4-5.4-1.5-6.2-.3-11.3.8-3.5 7.2-9.8 10.9-10.5 3.6-.8 10.7.2 13.2 1.8zm-54.6 2c4.3 2.2 7.4 5.7 10.2 11.5 1.7 3.6 2.2 6.4 2.2 14.2.1 5.3-.2 9.9-.6 10.3-.4.4-2.7-1-5.2-3.2-7.7-6.8-15-9.7-25.3-10.2-4-.2-5.7-12-2.7-18.2 3.2-6.4 13.5-8.6 21.4-4.4zm380.6 4.1c5.5 2.3 12.7 10.4 17.3 19.4 2.2 4.4 3.8 8 3.4 8-.3 0-.1.6.5 1.2 1 1.3 4.4 13 4.5 15.7.1 3.3 19 12.1 40.7 19 5.2 1.6 14.5 2.9 21.8 3l4.4.1-5.4 6.2c-2.9 3.5-8 8.9-11.2 12l-5.9 5.7-4.6-2.5c-11.9-6.3-38.3-23-38.9-24.6-.8-1.9-2.4-.5-4.7 4.4-3.5 7.3-9.4 13.9-14.9 16.7-2.6 1.2-4.9 2.1-5.2 1.9-.2-.3.3-2.5 1.2-4.9 2.2-6.1 3-20.3 1.3-25.9-.7-2.5-1.3-4.7-1.4-5-.5-2.6-4.7-9.3-7.9-12.8-8.7-9.3-18.9-12.5-31.3-9.8-2.9.7-3.2.5-2.7-1.1 1.3-3.4 5.5-8.3 8.7-10 3.8-2 13.8-2.6 17.6-1.1 5.6 2.3 7.8 3.3 11.9 6.1 3.6 2.4 4.2 2.5 4.2 1.1 0-5.7-8.2-14.9-14.2-16.1-1.5-.3-3.3-1.2-3.9-2-1-1.1-.7-1.7 1.2-3.1 4.7-3.4 8.2-3.8 13.5-1.6zm-311.4 31.3c2.4.9 8.8 6.9 8.8 8.2 0 .4 1.8 3.7 4 7.3 3.4 5.6 5.3 10.2 3.4 8.4-.7-.8-6.9 1.8-10.3 4.3-1.5 1.1-3.5 3.3-4.5 5-1.9 3.1-3.2 3-4.7-.4-.5-1.2-1.4-2.9-1.9-3.7-1.2-1.8-5.2-10.9-5.8-13-1.2-5.2-.8-10.2 1.1-12.6 3-3.8 6.1-4.9 9.9-3.5zm-78.4 5c7.2 3.7 14.6 13.4 21.2 27.6 2.2 4.6 4 8.7 4 8.9 0 .3-2.1.4-4.8.2-2.6-.2-7 .3-9.7 1-6.2 1.6-6.5 1.6-6.5.4 0-1.5-5.8-14.2-12.2-26.8-3.2-6.2-5.8-11.4-5.8-11.6 0-.3.8-.7 1.8-.9 3.9-1.1 8.5-.6 12 1.2zm46.4 6.8c4.7 3.7 13.7 16.6 17.4 25.3l1.1 2.5-7.4-.2c-6.8-.1-7.7.1-12.3 3.2l-4.9 3.3-2-3.4c-2.4-4-7-14-7.9-16.9-.3-1.1-.6-4.4-.6-7.3-.1-4.5.3-5.6 2.4-7.2 3.8-2.9 9.9-2.6 14.2.7zm565.3 7.2c.5 3.1 2.8 9.7 4.7 13.7.7 1.5.6 3.9-.1 7.5-.6 3-1.3 6.7-1.6 8.4-1 4.8-1.2 16.5-.4 17 .6.4 2.7-4.2 2.8-6 0-.3.8-1.9 1.6-3.5s1.5-3.2 1.5-3.5c0-.3.7-2.3 1.6-4.5l1.7-4.1 1.7 2.8c.9 1.5 4 5 6.9 7.6l5.1 4.8-3 6.6c-3.3 7-7 17.4-7.6 20.8-.2 1.1-.6 3.1-.9 4.5-.9 3.6-.9 17.8 0 22.8l.7 4.2-2.8-1.1c-4.8-1.8-8.8-4.6-13.5-9.6-4-4.2-7.2-8.6-7.4-10.3 0-.3-.6-1.5-1.3-2.8-1.5-2.7-4.2-9.8-4.8-12.7-1.8-9-2.1-12.5-1.9-20.2.3-9.3 2.2-19.2 5.3-28.3 2.1-5.9 7.7-18.2 8.9-19.3.9-1 2.1 1.2 2.8 5.2zm-84.1 17.3c1.9 1.1 2.1 3.4.3 4.1-2 .8-10 .1-12.8-1.1-3.6-1.5-7.7-6.6-8.5-10.7-.3-1.8-.1-5 .6-7l1.2-3.7 8.8 8.8c4.9 4.8 9.6 9.1 10.4 9.6zM162 557.6c1.4.7 3.6 2.4 5 3.6 3.1 2.8 12 13.7 12 14.7 0 .4-1.8 1.5-4 2.5-4.1 1.8-10.2 8.4-11.4 12.3-.4 1.3-1.1 2.3-1.6 2.3-1.2 0-11-11.3-11-12.8 0-.6-.4-1.2-.9-1.2s-1.1-.8-1.4-1.8c-.4-.9-1.3-3.3-2-5.4-4.4-11.5 4.6-19.9 15.3-14.2zm397.1 8.3c1.7 1.5 1.7 1.9-1.5 8.3-3.9 8.1-2.9 8.6 4.7 2.5 4.3-3.6 5.7-4.2 7.6-3.6 1.2.5 3.5 1 5.2 1.1 1.6.1 2.9.4 2.9.6 0 1-7 10.3-10.9 14.5-5.6 6-9.9 8.6-14.7 9.1-6 .5-9.3-1.2-12.5-6.2-5.7-8.9-3.1-16.4 11-32.5l2.5-2.8 1.9 3.7c1.1 2.1 2.8 4.5 3.8 5.3zm49.4 8.5c2 1.4 2 1.5-.8 9.3-4.6 12.5-4.5 11.9-.6 9.3 1.9-1.3 5.4-4.7 7.8-7.7 3.8-4.7 4.8-5.4 7-4.9 1.4.4 4.5.9 6.9 1.3 5.1.7 5.1 1.3-1.1 11.7-7.9 13.7-15.8 19.8-22.6 17.7-11.4-3.4-15.3-15.2-10.5-31.7.8-2.9 2.2-6.7 3-8.3l1.5-3 3.7 2.4c2 1.3 4.6 3.1 5.7 3.9zm-480.2.2c5.8 3.8 10.3 8.1 15.6 14.9 6.6 8.3 6.6 8.4 3.4 8.1-6.5-.5-15.8 3.2-20 8.2l-2.1 2.5-2.7-2.9c-4.5-4.9-11.6-16.1-13.5-21.6-1.3-3.9-1.5-5.8-.8-8 1.2-3.3 2.1-4 6.8-4.8 4.4-.8 8.3.2 13.3 3.6zm-44.1.8c8 3.8 17.9 14.8 23.7 26.3 1.7 3.3 3.1 6.2 3.1 6.5 0 .2-2.1.3-4.7.2-5-.1-11.6 1.9-14.5 4.4-1 .8-1.8 1-1.8.5 0-1-12.9-18.4-21.6-29l-4.4-5.5 2.4-1.9c5.1-4 11.3-4.5 17.8-1.5zm110.7 16.2c4.7 2.5 17 12.9 16.1 13.6-.3.2-1.9 1.3-3.6 2.4l-3 2.2-5.7-2.3c-6.9-2.8-7.3-1.8-2.3 4.8l3.4 4.5-1.4 5.1-1.5 5.1-2.7-1.8c-8.8-5.6-17.6-15.4-19.2-21.1-1-3.9.2-10.1 2.1-10.1.5 0 .9-.8.9-1.8 0-4.7 9-5 16.9-.6zm332.1 1.7c0 .5.9 2.2 2.1 3.8l2.1 2.9-4.8 6.7c-4.2 5.9-4.5 6.5-2.3 5.9 1.3-.4 2.9-.8 3.5-.9.7-.2 1.8-.7 2.5-1.3 4.6-3.3 6.3-3.5 11.3-1l5 2.4-6.8 6.6c-12.2 12-19.3 15-26.7 11.2-2.3-1.1-4.3-2.9-4.5-3.9-.1-1-.9-2.6-1.8-3.6-.8-.9-1.9-3.4-2.4-5.6-1.5-7.1 3.2-14.6 14.5-23.1 5.3-4 5.9-4.2 7.1-2.7.6.9 1.2 2.1 1.2 2.6zm114.3 2.4c.8 6.4 1.7 11.1 2.7 13.7.6 1.5.2 2.9-1.4 5.1-3 4-8.3 17.1-8.9 22-.6 4.6-1.3 5.2 8.2-7.9 3-4.2 5.7-7.6 6-7.5.4 0 3 3.6 5.9 8l5.2 8-2.7 3.7c-1.6 2-3.1 3.8-3.5 4-.5.2-.8.9-.8 1.5s-.6 1.8-1.4 2.6c-3.2 3.8-10.1 18.4-11 23.7-.3 1.6-.8 3.9-1 5.2-.3 1.3-.6 4.3-.7 6.7-.3 4.1-.4 4.3-2.3 3.3-3.3-1.8-12.4-11.5-13.1-14-.4-1.3-1.3-3-2-3.8-3.2-3.7-4.9-21.6-3-32 2.7-15.5 11.3-34.4 20.5-45.3 2.2-2.6 2.7-2.1 3.3 3zm-60.9 2c.3 2.9 1.1 6.3 1.7 7.6.9 2 .3 3.4-4.7 10.8-3.2 4.6-6.2 8.5-6.6 8.7-.4.2-.8 1-.8 1.8s-.5 1.4-1.2 1.4c-.6 0-.9.3-.6.6 1.1 1.1 8.3-3.5 14-8.8l5.6-5.3 2.8 2.2c1.6 1.2 4.1 2.5 5.6 2.9 3 .6 3.5 1.8 1.6 3.9-.7.7-2.4 2.8-3.8 4.5-7.7 10.1-18.5 18.2-25.7 19.3-3.6.6-9.4-2.6-9.9-5.3-.1-.8-.7-2.9-1.2-4.5-2.2-7.2 1.2-18.3 9.1-30.1 4.1-6.2 12.6-15.9 13.2-15.2.2.2.5 2.6.9 5.5zM154 610.4c4.2 1.2 9.3 3.9 14.6 7.8 5.6 4 16 13.6 15.3 14.1-.2.2-2.9 1-6 1.9l-5.7 1.5-4.1-2.9c-2.3-1.5-4.5-2.8-4.8-2.8-.4 0-1.4-.6-2.2-1.3-.9-.8-3.4-2.4-5.6-3.8l-4-2.4 1.8 2.8c2.5 3.9 4.5 6.3 9 10.9l3.9 4-2.8 3.9c-1.4 2.1-2.9 3.9-3.3 3.9-.3 0-4.5-3.9-9.2-8.8-11.4-11.6-14.7-17.3-14-24.3.3-3.9 10.3-6.5 17.1-4.5zm76 7.3c2.5.9 7.7 3.7 11.5 6.1 6.2 4 6.8 4.6 5 5.4-1.1.5-2.9 2.2-3.9 3.7-1.8 2.6-2.2 2.8-6 1.9-2.3-.5-4.9-1.1-5.9-1.4-1.7-.5-1.7-.3-.6 1.8.7 1.2 2.5 3.5 4 4.9 2.6 2.4 2.7 3 2.2 8.2-.3 3.2-.8 5.7-1 5.7-1.9 0-15.4-8.1-19.2-11.6-7-6.3-7.9-9.2-5.8-19.6.4-2.2 3.7-5.9 6.1-6.8 2.7-.9 8.2-.3 13.6 1.7zm262.7 1.5c.6 2.4 1.4 5 1.7 6 .5 1.1-.7 3-4.5 6.7-2.9 2.8-5 5.3-4.8 5.6.3.2 2.3 0 4.5-.6 2.1-.6 4-1.1 4.2-1 .1.1 1.6-.5 3.2-1.4 2.6-1.3 3.2-1.3 4.7-.1 1 .8 2.9 2.3 4.2 3.4l2.4 1.9-6.5 4.6c-13.4 9.6-23.4 12.1-29.4 7.5-4.5-3.5-5.1-4.2-4.6-5.6.2-.7-.1-2.6-.8-4.1-2.3-5.6 1.3-12.6 10.3-19.8 1.7-1.4 12.8-7.2 13.8-7.3.3 0 1 1.9 1.6 4.2zm-374.1 4.3c5.9 2.9 7.8 4.3 14.4 10.6 3.7 3.4 14.3 17 13.8 17.4-.2.2-2.3.5-4.8.8-7 .8-9.1 1.5-12.7 3.9l-3.4 2.3-9.2-9c-5.1-5-11.4-10.8-14.1-13-2.7-2.2-6.1-4.9-7.4-6.1l-2.5-2.1 3.3-3.1c1.8-1.8 3.9-3.2 4.6-3.2.8 0 1.4-.4 1.4-.9 0-1.9 10.9-.4 16.6 2.4zM545.3 636l.6 8.5-9.6 9.2c-5.4 5.1-9.4 9.3-8.9 9.3 1.6 0 15.3-6.9 18.5-9.4l3.4-2.5 2.2 2.3c1.2 1.3 3.7 3.2 5.4 4.1 3.6 1.8 3.4 2.6-1.9 7.1-1.4 1.2-3.6 3.2-5 4.4-7.7 6.8-18.1 12-24.1 12-3.4 0-4.7-.6-7.3-3.3-2.9-3.1-3.1-3.7-2.9-10.3.3-8.4 3.8-16.2 11-24.3 4.2-4.8 17.4-16.5 17.8-15.8.2.1.5 4 .8 8.7zm-91 4.7c.3 2.9.8 5.6 1.1 6.1.5.9-.8 2.2-9.4 9.3l-2.5 2 6.8-.5c3.7-.3 7.1-.7 7.5-1 .8-.5 8.7 7.3 8 7.9-.2.2-3.4 1.7-7.2 3.5-8.6 3.9-17.1 6.1-21.6 5.6-1.9-.2-4-.4-4.6-.5-1.6-.2-6-4.3-7.4-6.9-.6-1.3-.8-3.1-.4-4 .3-.9.6-3.5.5-5.7-.3-6.2 3-10.3 11.9-14.7 4.1-2 7.6-3.5 7.8-3.3.2.2 2.2-.5 4.5-1.5 2.3-.9 4.3-1.7 4.4-1.6 0 0 .3 2.4.6 5.3zm-181.2-2.1c3 1 5.6 1.9 5.9 1.9.3.1 1.2.5 2 .8.8.4 2.7 1.1 4.3 1.6l2.7 1.1-3.2 4.4c-3.3 4.4-3.3 4.4-9.1 4.3-3.1-.1-5.7.2-5.7.6 0 1.2 5 5.6 7.1 6.2 1.1.4 1.9.9 2 1.3 0 .4.2 3.3.4 6.5.3 5.2.2 5.8-1.3 5.2-.9-.4-2.8-.9-4.2-1.1-9.8-1.8-21.5-8.7-24.5-14.4-2.1-4-2.1-7.8-.1-12.7 3.3-8 11.3-9.9 23.7-5.7zm331.2 3.6c-.4 6.8-.3 14 .2 14.8.3.4-1.5 3.2-4 6.2s-4.5 6-4.5 6.7c0 .6-.4 1.1-.8 1.1-1.2 0-9.2 16.2-9.2 18.5 0 1.6.7 1.2 3.6-2 2-2.2 6.4-7 9.7-10.8 3.3-3.7 6.3-6.7 6.7-6.7.3 0 2.2 3.7 4.3 8.2l3.7 8.1-8.3 8.1c-9.6 9.5-10.8 11-15.3 18.5-3 4.9-5.1 10.1-6 14.9-.5 2.7-1.5 2.5-4.8-.7-5.7-5.5-9.3-14.6-9.8-24.6-.5-12.6 7.2-33.4 17.7-47.3 4.9-6.5 14.8-17.1 16-17.1.6-.1.9 1.8.8 4.1zm-405.2 4.2c7 2.1 24.9 11.9 24.9 13.6 0 .8-11.2 6-12.8 6-.7 0-5.8-2.2-11.2-5-5.5-2.7-10-4.5-10-4 0 1.2 6.9 8.1 12.5 12.6l3.9 3.2-1.6 3.8c-.9 2.2-1.9 4.7-2.2 5.6-.5 1.8-3.6 1.5-3.6-.3 0-.5-.5-.9-1-.9-.9 0-6.2-3.5-15-9.9-9.3-6.7-13.8-14.7-10.8-19 5.3-7.5 14.3-9.4 26.9-5.7zm122.4 4.5c8.8 1.7 8.7 1.6 6 6.6-1.3 2.3-2.2 4.5-1.9 4.8.7.6-6 2.6-10 2.9-3.5.3-2.8 1.9 2 4.2 2.1 1 4.6 2.2 5.4 2.6.8.4 1.8 2.2 2.1 4.1.3 1.9 1.1 4.4 1.8 5.7l1.2 2.2-7.3-.5c-11.8-.8-14.9-1.4-20.5-4-7-3.2-9.2-6.8-8.8-14.6.4-8.4 3.4-12.7 10.5-15.3 2-.7 13.2 0 19.5 1.3zm91.8 4.5c-.7 7.3-1.1 7.9-6.9 10.3-4.5 1.8-5.6 3.2-2.9 3.4.8.1 2 .3 2.5.4.6.1 2.9.3 5.3.4 3.9.1 4.6.5 7.1 4.2 2.7 4.3 2.8 4.9.4 5.3-.7.1-3.3.8-5.8 1.5-5.8 1.7-8.2 2-15.3 2.2-11.6.2-17.1-5.5-16.2-16.5.5-6.6 2.5-9.5 8.6-12.6 3.6-1.9 15.1-4.4 20.9-4.6l2.9-.2-.6 6.2zm-43.1-.9c1.2.5 1.2 1.5-.1 6.6-1.5 5.8-1.7 6-6.3 7.7-5.2 1.8-6.1 3.5-2.5 4.7 1.2.4 2.5.8 3 1 .4.1 1.7.3 3 .4 1.7.1 2.9 1.4 4.8 5.5l2.7 5.4-3.7.5c-2 .2-7.9.4-13.1.3-10.5-.2-15.9-2-19.3-6.7-4-5.5-2.4-17.4 2.9-21.4 1.5-1.1 4.8-2.5 7.3-3.2 4.8-1.2 18.9-1.7 21.3-.8zm134.2 5.7c-.4 2.4-.6 6.1-.5 8.3.1 3.3-.3 4.3-2.6 6-1.5 1.1-4.6 3.5-7 5.2-2.4 1.8-4.7 3.3-5.2 3.3-.4 0-1.6.9-2.7 2.1l-1.9 2.1 4.4-.7c4.4-.6 10.3-2.7 15.1-5.2 2.2-1.2 2.7-1.1 4.2.9 1 1.3 3.2 3.7 4.9 5.4l3.1 3.1-2.8 2c-5.4 3.9-13.6 8.4-19.2 10.6-14.8 5.9-23.5 1.5-23.1-11.6.3-7.8 2.8-12.8 10.1-20.1 5.3-5.2 20.4-15.4 23.1-15.6.5 0 .5 1.9.1 4.2zm-348.9 5.3c4 1 12 5.1 17.2 8.7 4.3 2.9 13.8 11.7 13.1 12.2-.1.2-2.8 1.4-5.8 2.8-3.1 1.4-7.1 3.9-9 5.5-2.9 2.5-3.7 2.8-4.7 1.8-4-4.4-32.9-21.5-36.2-21.5-1.4 0 1-5 3.3-6.9 4.1-3.4 14.3-4.6 22.1-2.6zm91.7 7.1c6.7 1.7 22.8 7.7 22.7 8.4 0 .3-2.8 2.6-6.3 5.1-5.4 3.9-6.6 4.4-9.2 3.7-2.7-.8-4.6-1.2-10.1-2.4-1.2-.2-3.4-.9-4.8-1.4-1.8-.7-2.5-.6-2.5.3 0 .6 3.9 3.4 8.5 6.2 7.7 4.5 8.5 5.2 8 7.5-.3 1.4-.8 4.4-1.2 6.7-.3 2.4-.7 4.3-1 4.3-.9 0-18.1-7-21.3-8.7-9.9-5.2-15-10.7-15-16.2 0-3.8 6-11.1 10.8-13.2 4.5-2 14.2-2.1 21.4-.3zm215.4 5.3c-1.2 1.9-2.9 6.7-3.2 9.1-.8 6.2-1.3 6.7-9.6 10.7-4.6 2.2-9.9 4.7-11.8 5.6l-3.5 1.7 6-.2c3.3-.1 8.9-.9 12.5-1.9 3.8-1 6.6-1.4 6.8-.8.2.5 1.9 3.2 3.9 6 1.9 2.8 3.3 5.2 3.1 5.3-.2.1-3.3 1.5-6.9 3-9.8 4-16.5 5.7-24.9 6.2-6.3.4-8 .2-10.8-1.6-4-2.5-5.4-5.9-4.8-12.1.9-8.8 8-17.2 20-23.4 11-5.8 24.9-10.4 23.2-7.6zm97.4 6.2c-1.7 9.2-1.8 10.4-1.9 11.9-.1.9-2.3 3.2-4.9 5.3-9.3 7-20.5 19.7-19 21.3.2.2 4.1-2.1 8.6-5.1 4.5-3 8.4-5.5 8.8-5.5.3 0 1.7-.9 3.1-2 1.5-1.1 2.8-1.9 3-1.6.2.2.6 2.3.9 4.7.3 2.3.8 4.7 1 5.1.3.5.9 2.1 1.4 3.7.8 2.8.5 3.1-8.4 8.9-12.7 8.3-21.8 17.5-26.2 26.2-2.9 5.8-3.4 5.7-7.5-1.5-3-5.4-3.5-16.9-1-25.1 3.8-12.6 11.7-25.1 23-36.4 8.9-8.9 12.1-11.6 14.9-12.4 1.1-.4 2.6-1.3 3.3-2.2 1.8-2.2 2-1.3.9 4.7zm-252.8 6.6c4 .7 8 1.5 8.8 1.7.8.3 1.7.5 1.9.5.2.1-1.4 2-3.5 4.4-2.2 2.4-4.6 5.3-5.6 6.4-1.7 2.2-5 2.3-19.3.9-3.1-.4-4.4-.2-3.9.6 1.1 1.7 13.3 6.7 17.9 7.3.6 0 .8.7.6 1.5-.2.8-.4 4.1-.3 7.2 0 3.8-.4 5.8-1.1 5.8-.7 0-5-.7-9.7-1.6-4.7-.9-9.7-1.8-11.1-2.1-1.4-.3-5.4-1.9-9-3.6-4.8-2.4-6.8-4-8-6.5-1.4-3.1-1.5-9.2 0-9.2.3 0 1.3-1.4 2-3.2 4.7-10.5 19.1-14.1 40.3-10.1zm103.8 6c-1.6 3.2-3 6.6-3 7.5 0 1.4-1.5 2.4-5.5 3.4-.5.2-3.5 1-6.5 1.9-8.9 2.6-9.4 2.7-11.4 2.6-1.5 0-1.6.3-.7 1.2.8.8 5.1 1.2 12.3 1.3 8.9.1 11.2.4 11.4 1.6.1.8 1.1 3.4 2.2 5.9 2.5 5.4 2.8 5.2-10.3 7.6-1.1.2-6.6.6-12.2.9-11.4.7-15-.2-18.3-4.4-5.2-6.5.8-19.5 12.3-26.5 4-2.5 16.4-6.4 22.8-7.2 3-.4 5.6-.9 5.8-1.1.2-.2 1.3-.4 2.3-.4 1.7 0 1.6.6-1.2 5.7zm-49.4-.4c.3.3 1.2.3 2 0 2-.7 1.7.7-.5 3.1-1 1.2-3 4.1-4.4 6.5-1.3 2.5-3.3 4.6-4.3 4.8-1.6.3-16 1.4-20.1 1.6-1.4 0-1.8 1.6-.5 1.8.4 0 1.6.3 2.7.5 1.1.3 2.7.6 3.5.8.9.1 2 .4 2.5.7.6.3 3.2.7 6 .8 2.7.1 5.1.4 5.4.6.2.3.5 2.6.6 5.2.1 2.7.5 5.9 1 7.2l.7 2.3-11.8-.5c-19.1-.8-27.2-4.9-28.2-14.2-.5-5-.5-4.9 7.1-12.7 5.5-5.6 11.2-7.6 23.7-8.5 4.7-.3 8.6-.6 8.7-.7.5-.4 5.4.1 5.9.7zm-148.9 5.8c7.7 3.2 21.3 11.5 21.3 13 0 .5-.3.8-.7.7-2.6-.7-16.3 9.6-16.3 12.3 0 .5-3.3-.6-7.2-2.6-14.2-7.1-23.8-10.9-30.3-11.9-2.2-.4-4.3-1-4.7-1.4-1.1-1.1 4.3-9.4 7.5-11.5 1.5-1 2.7-1.5 2.7-1.1 0 .4.7.1 1.5-.6.8-.6 1.8-1 2.2-.7.4.2 1.7.1 2.7-.2 3.1-1.2 13.5.9 21.3 4zm297.4 11.1c-1.5 3.5-3.1 7.4-3.4 8.9-.5 1.9-2.6 3.5-9.4 6.9-8.3 4.2-20.3 14-20.3 16.6 0 .6 3.7-.8 8.3-3.1 7.8-3.9 16.4-7.5 18-7.5.4 0 .7 1.2.6 2.7-.1 1.6.2 5.1.5 8l.6 5.1-3.7 1.3c-15.1 4.9-31.7 15.4-37.5 23.8l-1.6 2.3-1.3-2.4c-3.3-5.8-4.3-14.3-2.5-20.8 2.8-10.1 13.4-24 23.9-31.7 2.9-2.1 5.4-4.1 5.5-4.5.2-.5.8-.8 1.2-.8.5 0 3.2-1.4 6-3 4.9-2.9 15.7-7.9 17.2-8 .4 0-.5 2.8-2.1 6.2zm-243.7 13.3c7.1 1.7 12.2 3.3 17.4 5.7 3.9 1.9 5.5 3.8 3.1 3.8-1.8 0-10.4 7.2-13.8 11.6l-3.1 4.2-4.3-1.5c-4.8-1.7-4.9-1.7-13.8-3.7-8.5-1.8-16.1-2.9-22.6-3-5.7-.1-6.3-.9-4.4-5.8 2.1-5.2 6.9-9 14.6-11.4 5-1.6 19.7-1.5 26.9.1zm189.5 6.1c-1.6 2.3-2.9 4.7-2.9 5.2 0 1.7-4.5 6.2-6.2 6.2-1.8 0-10.9 3.1-16.3 5.5-4 1.8-11.5 7.3-11.5 8.4 0 .5 1.8.3 3.9-.5 2.2-.7 5-1.5 6.3-1.8 1.2-.2 4.1-.9 6.3-1.4 2.2-.6 5.6-1.3 7.6-1.6l3.5-.5-.4 6.2c-.2 3.4-.5 6.3-.6 6.4 0 0-1.7.4-3.6.7-1.9.3-5 1-6.7 1.5-1.8.5-3.3.8-3.3.5 0-.2-1.3.2-3 1.1-1.6.8-3.1 1.5-3.2 1.5-1.5-.5-14.9 5.9-19.9 9.5-2.7 1.9-5.4 3.5-5.9 3.5-1 0-1.4-3-1.3-11.6.1-9.6 6.6-19.7 17.3-27 4.5-3.1 13-7.8 14-7.6.3 0 1-.3 1.5-.8.8-.6 6.8-2.9 9.5-3.5.3-.1 1.2-.5 2-.8 1.8-.8 13-3.4 14.7-3.4.6 0-.2 2-1.8 4.3zm-121 8.9c3 .4 5.9.9 6.5 1.1.6.2-1.6 3.3-5 6.8-3.4 3.6-7 8.5-8 11.1l-1.9 4.6-8-.6c-8.5-.7-21.1-.8-26-.1-1.6.2-5.2.7-7.8 1.1l-4.8.7.6-4.3c2.3-15.6 24.9-24 54.4-20.4zm65.4-.6c.4 0-1.1 2.5-3.4 5.3-3 3.8-4.9 5.3-6.8 5.5-7.7.4-17.3 2.3-18.8 3.5-.7.6-1.3.8-1.3.4s-1.8.3-4 1.4c-2.3 1.2-3.8 2.5-3.5 3.1.4.5 1.1.7 1.6.3 1.2-.7 21.9-1.3 23.5-.7 1.2.4 0 7.9-1.5 9.5-.4.4-4.2 1-8.6 1.3-8.4.5-16 1.4-18.5 2-.8.2-3 .7-4.8 1-1.8.3-6.2 1.7-9.8 3-3.7 1.4-7 2.5-7.4 2.5-1.1 0 .7-10.4 2.4-13.8 6.5-12.5 23.7-21.6 45.1-23.9 2.8-.3 5.1-.6 5.2-.7.2-.2 9.3.1 10.6.3z"/></svg>