<svg viewBox="0 0 20 20">
  <path fill="#fff" fill-rule="evenodd" d="M19.999 13.541a6.438 6.438 0 01-1.904 4.567A6.522 6.522 0 0113.498 20H6.5a6.522 6.522 0 01-4.595-1.892A6.438 6.438 0 010 13.54V6.46a6.421 6.421 0 011.903-4.567A6.536 6.536 0 016.5 0h3.28a6.537 6.537 0 014.597 1.892 6.423 6.423 0 011.904 4.567l.003.014c.046.67.608 1.2 1.295 1.2l.023-.003H18.7c.717 0 1.301.579 1.301 1.293L20 13.541zM6.339 7.72h3.68c.332 0 .65-.13.884-.364a1.238 1.238 0 000-1.756 1.254 1.254 0 00-.883-.364H6.338c-.324.01-.632.146-.858.378a1.238 1.238 0 000 1.729c.226.231.534.367.858.377zm7.38 4.788H6.332c-.307.01-.598.138-.811.357a1.171 1.171 0 000 1.634c.213.22.504.347.81.357h7.39a1.188 1.188 0 001.092-.725 1.169 1.169 0 00-.64-1.535 1.188 1.188 0 00-.452-.09v.002z" clip-rule="evenodd"/>
</svg>
