<svg viewBox="0 0 512 512">
  <path fill="#fff" d="M251.8,352c-1.4,0-85.7,116.8-86.4,116.8c-0.7,0-84.4-58.9-84.7-59.6c-0.3-0.7,84.4-122.5,84.4-124.1 c0-2.1-126.2-42.9-134-45.9c-1.3-0.5,30.6-99.2,30.9-99.5c0.6-0.7,140.7,45.8,141.7,45.8c0.4,0,0.9-0.6,1-1.3 c0.4-1.9,1-144.8,1.7-145.7c0.8-1.2,101.8-0.7,102.4-0.3c1.5,1,3.4,152.1,5.9,152.1c1.4,0,135.1-45.8,135.7-45.1 c0.8,0.9,31.1,99.6,30.7,99.9c-0.9,0.9-136.6,45.9-137,47.5c-0.3,1.4,80.7,118.9,80.4,119.7c-0.3,0.8-83.3,61.9-84.1,61.9 C339.4,474,253.6,352,251.8,352L251.8,352z"/>
</svg>
