<svg viewBox="0 0 20 20">
  <path fill="#fff" fill-rule="evenodd" d="M3.187 3.886h1.807c.095 0 .19-.1.19-.2V1.641c0-.35.095-.699.19-.948l.047-.15-3.516 3.642.19-.1c.285-.15.665-.2 1.092-.2v.001zm13.877-.35c-.143-.797-.57-1.146-.998-1.296-.429-.15-.855-.35-1.996-.5a24.68 24.68 0 00-2.52-.15c-.19-.548-.474-1.147-1.567-1.445-.76-.2-2.139-.15-2.566-.1-.666.1-.903.398-1.093.598-.191.2-.334.748-.334 1.098v1.945c0 .6-.379 1.048-1.044 1.048H3.33c-.38 0-.666.05-.902.15-.191.15-.381.35-.477.5-.238.348-.284.747-.284 1.196 0 0 0 .35.095.997.048.5.57 3.792 1.045 4.89.19.45.334.6.714.798.855.4 2.803.799 3.753.947.903.1 1.521.4 1.854-.348 0 0 .047-.2.143-.45a8.24 8.24 0 00.333-2.394c0-.05.094-.05.094 0 0 .45-.095 1.946.998 2.345.428.15 1.331.3 2.234.4.807.099 1.425.447 1.425 2.642 0 1.348-.286 1.548-1.664 1.548-1.14 0-1.568.05-1.568-.949 0-.747.713-.697 1.284-.697.238 0 .047-.2.047-.65 0-.498.286-.748 0-.748-1.854-.05-2.947 0-2.947 2.445 0 2.245.809 2.644 3.47 2.644 2.091 0 2.803-.05 3.66-2.844.19-.548.57-2.245.806-5.037.191-1.848-.142-7.235-.38-8.583zm-3.612 5.938c-.238 0-.38 0-.618.05h-.095s-.048 0-.048-.05v-.05c.096-.5.334-1.098 1.046-1.098.76.05.951.749.951 1.298v.05c0 .05-.047.05-.047.05-.048 0-.048 0-.048-.05-.333-.1-.713-.15-1.14-.2z" clip-rule="evenodd"/>
</svg>
