<svg xmlns="http://www.w3.org/2000/svg" viewBox="0 0 20 20">
  <path fill="#fff" d="M19.867 8.768c0-4.444-4.456-8.06-9.934-8.06C4.457.707 0 4.323 0 8.767c0 3.985 3.534 7.322 8.307 7.954.324.07.764.213.876.49.1.25.065.644.032.898l-.142.85c-.043.251-.2.982.86.535 1.06-.446 5.721-3.368 7.805-5.767 1.44-1.579 2.129-3.18 2.129-4.96z"/>
  <path fill="#06C755" d="M7.965 6.594h-.697a.194.194 0 00-.194.193v4.329c0 .106.087.193.194.193h.697a.193.193 0 00.193-.193V6.787a.193.193 0 00-.193-.193zm4.692 0h-.697a.193.193 0 00-.193.193V9.36L9.783 6.68a.214.214 0 00-.015-.019h-.001a.174.174 0 00-.012-.013l-.003-.003a.113.113 0 00-.01-.009l-.006-.004-.01-.006a.036.036 0 00-.006-.004l-.01-.006-.006-.003-.01-.004-.007-.003a.114.114 0 00-.012-.003L9.668 6.6l-.01-.003h-.009l-.01-.002h-.01l-.007-.001h-.696a.194.194 0 00-.194.193v4.329c0 .106.087.193.194.193h.696a.193.193 0 00.194-.193V8.545l1.986 2.682c.014.02.03.035.049.048l.002.001a.385.385 0 00.012.008l.005.002a.078.078 0 00.01.005l.009.004.006.002.013.004h.003a.192.192 0 00.05.008h.696a.193.193 0 00.194-.193V6.787a.193.193 0 00-.194-.193zm-6.409 3.662H4.355V6.82a.193.193 0 00-.193-.194h-.697a.193.193 0 00-.194.194v4.327a.193.193 0 00.057.137l.003.003a.192.192 0 00.134.054h2.783a.193.193 0 00.193-.194v-.696a.193.193 0 00-.193-.194zm10.3-2.518a.193.193 0 00.193-.193v-.697a.193.193 0 00-.193-.193h-2.783c-.053 0-.1.02-.135.054l-.002.002a.192.192 0 00-.057.137v4.328c0 .052.02.099.054.134l.003.002c0 .002.002.002.003.003a.192.192 0 00.133.054h2.784a.193.193 0 00.193-.193v-.697a.193.193 0 00-.193-.194h-1.893v-.731h1.893a.193.193 0 00.193-.194v-.696a.193.193 0 00-.193-.194h-1.893v-.732h1.893z"/>
</svg>
