<svg viewBox="0 0 20 20">
  <path fill="#fff" fill-rule="evenodd" d="M17.465 11.652c.29 1.346.576 2.69.861 4.032.278 1.302.554 2.604.834 3.907.049.223-.192.482-.433.39a768.63 768.63 0 01-5.95-2.138l-1.85-.669a.81.81 0 01-.413-.288L.924 5.73c-.088-.102-.108-.27-.079-.4.405-1.541.934-2.685 2.273-3.783C4.467.451 5.74.125 7.384.005c.202-.02.29.017.405.166l1.753 2.036v.002c2.554 2.965 5.107 5.93 7.654 8.894.141.156.233.345.27.55zM2.36 5.59c.895-2.249 2.985-3.764 4.977-4.136l-.24-.28a5.613 5.613 0 00-3.2 1.254A5.288 5.288 0 002.1 5.275l.26.315zm.654.753c.943-2.202 2.734-3.69 4.998-4.098l1.155 1.328c-1.995.382-3.958 1.907-4.98 4.137L3.013 6.343zm3.485-.204l5.095 5.913h-.003c.732.854-.018 3.328-.393 3.81l-6.346-7.38A7.661 7.661 0 016.498 6.14zm5.49 5.615l-5.123-5.95C7.76 5.053 8.79 4.54 9.82 4.345l6.172 7.168c-.817.651-3.427.92-4.005.242zm4.36.373l.001-.001v.001zm-3.802.66c1.336.26 3.01-.085 3.802-.66l.558 2.62.454 2.12c-.481.195-.895.484-1.184.957l-1.984-.706-2.446-.892c.675-1.07.896-2.409.8-3.44z" clip-rule="evenodd"/>
</svg>
