<svg xmlns="http://www.w3.org/2000/svg" viewBox="0 0 20 20">
  <path fill="#fff" fill-rule="evenodd" d="M6.11 6.667a1.667 1.667 0 100-3.334 1.667 1.667 0 000 3.334zm7.778 0a1.667 1.667 0 100-3.335 1.667 1.667 0 000 3.335zm5.963 7.635l-2.253-3.785a1.099 1.099 0 00-1.802-.112 1.054 1.054 0 00-.074 1.186l.268.45a8.39 8.39 0 01-5.995 2.494 8.39 8.39 0 01-5.99-2.49l.27-.454a1.054 1.054 0 00-.39-1.458 1.098 1.098 0 00-1.487.384l-2.25 3.785a1.055 1.055 0 00.39 1.457 1.1 1.1 0 001.486-.384l.854-1.433a10.585 10.585 0 007.118 2.725 10.58 10.58 0 007.124-2.73l.856 1.438a1.092 1.092 0 001.486.384 1.056 1.056 0 00.39-1.457z" clip-rule="evenodd"/>
</svg>
