<svg viewBox="0 0 20 20">
  <path fill="#fff" fill-rule="evenodd" d="M16.709 13.084s-.131.185-.572.373l-.69.278.745 4.093c.078.352.313 1.229-.102 1.328-.213.05-.384-.084-.494-.152l-.961-.556-3.344-1.932c-.255-.152-.975-.683-1.366-.611-.256.047-.42.158-.604.27l-.962.556-2.987 1.733-1.104.636c-.154.074-.376.072-.493-.032-.087-.079-.112-.316-.078-.485l.237-1.255.715-3.777c.059-.25.296-1.219.208-1.421-.06-.134-.217-.246-.327-.334l-.762-.707-2.663-2.48C.87 8.42.675 8.18.44 7.99l-.294-.27c-.077-.097-.206-.294-.112-.461.177-.31 1.217-.273 1.669-.35l3.352-.388 1.025-.112c.182-.03.374-.005.516-.08.299-.153.638-1.01.795-1.358l1.638-3.394c.188-.372.357-.754.538-1.12.094-.188.167-.386.382-.446.202-.056.32.132.39.223.22.294.406.856.563 1.217l1.613 3.567c.13.298.454 1.205.675 1.343.332.208 1.072.135 1.534.215l3.55.365c.444.078 1.557.013 1.7.334.096.213-.09.393-.19.493l-1.08 1.018-2.478 2.335c-.231.206-.963.797-1.041 1.073-.05.175.025.518.11.903a121.47 121.47 0 01-1.478-.036c-.787-.009-3.27-.213-3.39-.223l-1.05-.095c-.176-.029-.408.015-.5-.095v-.025c2.158-1.46 4.258-3.02 6.427-4.474l-.008-.055c-.182-.09-.449-.074-.675-.119-.481-.096-.987-.097-1.51-.183-.937-.156-1.987-.143-3.042-.143-1.465 0-2.912.038-4.188.263-.562.098-1.117.118-1.636.246-.215.052-.447.037-.612.135l.008.015c.125.034.317.025.477.025l1.16.024 1.01.031 1.016.04.738.04c.608.094 1.26.045 1.844.143.505.085 1.005.08 1.478.175.14.027.306.018.412.08v.007c-.049.118-.42.319-.54.398l-1.319.929-2.82 2.026-1.77 1.24c.003.06.03.044.056.076 1.437.21 3.15.323 4.712.328 1.622.006 3.081-.118 3.897-.241.702-.108 1.353-.184 2.067-.36.406-.1.65-.184.65-.184z" clip-rule="evenodd"/>
</svg>
