<svg fill="#fff" viewBox="0 0 24 24">
  <path d="M19.53 1.148a1.83 1.83 0 00-1.667 1.054l-4.372-.928a.522.522 0 00-.358.063.515.515 0 00-.21.297L11.59 7.925c-2.807.086-5.32.909-7.137 2.237a2.668 2.668 0 00-1.815-.737A2.64 2.64 0 000 12.064a2.634 2.634 0 001.563 2.407 4.95 4.95 0 00-.065.803c0 4.053 4.71 7.326 10.537 7.326s10.537-3.273 10.537-7.326a4.548 4.548 0 00-.063-.782 2.732 2.732 0 001.519-2.428 2.64 2.64 0 00-2.639-2.64 2.53 2.53 0 00-1.816.74c-1.796-1.288-4.287-2.134-7.031-2.239l1.204-5.637 3.906.823a1.888 1.888 0 001.878 1.777c1.024 0 1.87-.837 1.88-1.861a1.884 1.884 0 00-1.88-1.88zM7.907 18.066c-.13 0-.254.05-.347.141a.498.498 0 000 .697c1.266 1.267 3.736 1.373 4.454 1.373s3.167-.084 4.454-1.373a.546.546 0 00.044-.697.5.5 0 00-.698 0c-.823.802-2.533 1.099-3.779 1.099s-2.977-.295-3.779-1.099a.49.49 0 00-.349-.142zm-1.932-4.122c0-1.035.844-1.88 1.88-1.88 1.034 0 1.878.843 1.878 1.879S8.89 15.82 7.856 15.82a1.882 1.882 0 01-1.88-1.877zm10.155-1.88c1.035 0 1.88.845 1.88 1.879 0 1.035-.844 1.878-1.879 1.878s-1.879-.843-1.879-1.877c0-1.037.844-1.88 1.878-1.88z" fill-rule="evenodd"/>
</svg>
