
<svg viewBox="0 0 20 20">
  <path fill="#fff" fill-rule="evenodd" d="M19.425 12.123a9.33 9.33 0 00.22-2.018c0-5.194-4.27-9.405-9.54-9.405-.554 0-1.1.048-1.63.138A5.557 5.557 0 005.532 0C2.477 0 0 2.443 0 5.455c0 1.006.278 1.95.76 2.759a9.283 9.283 0 00-.194 1.891c0 5.195 4.271 9.25 9.54 9.25.596 0 1.18-.055 1.746-.157.78.412 1.67.802 2.616.802C17.523 20 20 17.559 20 14.545c0-.841-.196-1.671-.575-2.422zm-4.969 1.82c-.367.523-.906.934-1.616 1.23-.709.298-1.55.446-2.52.446-1.167 0-2.128-.203-2.886-.608a3.734 3.734 0 01-1.31-1.167c-.334-.488-.503-.96-.503-1.421 0-.267.1-.494.303-.684a1.07 1.07 0 01.768-.287.95.95 0 01.64.223c.176.149.326.367.448.659.15.347.313.637.488.869.174.23.42.425.736.575.318.15.734.224 1.25.224.708 0 1.284-.15 1.728-.455.443-.303.665-.683.665-1.137a1.148 1.148 0 00-.358-.877 2.35 2.35 0 00-.927-.515c-.5-.15-1.008-.277-1.52-.38-.848-.182-1.56-.397-2.13-.64-.572-.245-1.027-.58-1.362-1-.336-.425-.504-.95-.504-1.575 0-.6.178-1.13.533-1.594.354-.465.866-.823 1.537-1.073.672-.25 1.463-.373 2.37-.373.725 0 1.352.082 1.881.247.53.166.968.386 1.317.66.35.275.605.563.765.864.162.3.242.596.242.881a1 1 0 01-.3.709 1 1 0 01-.755.315c-.275 0-.482-.063-.625-.189-.142-.126-.296-.333-.462-.619a2.837 2.837 0 00-.773-.96c-.301-.23-.784-.345-1.45-.345-.618 0-1.117.125-1.496.375-.378.249-.568.55-.568.9a.87.87 0 00.193.563c.13.16.307.294.533.407a3.8 3.8 0 00.684.268c.231.065.612.157 1.145.281.61.13 1.213.288 1.808.475.54.172 1 .384 1.379.629.377.247.675.562.886.94.213.377.32.841.32 1.388 0 .657-.186 1.248-.553 1.772z" clip-rule="evenodd"/>
</svg>
