<svg fill="#fff" viewBox="0 0 24 24">
  <path d="M1.517 11.31c-.962.382-1.466.756-1.512 1.122-.088.702.924.921 2.196 1.335 1.037.337 2.433.731 3.158.747.658.014 1.393-.257 2.204-.814 5.533-3.735 8.39-5.622 8.57-5.663.126-.029.301-.065.42.04.119.106.107.306.095.36-.101.429-5.3 5.156-5.599 5.467-1.143 1.187-2.443 1.913-.437 3.235 1.735 1.144 2.746 1.873 4.534 3.045 1.142.75 2.039 1.637 3.218 1.529.543-.05 1.104-.56 1.389-2.083.673-3.598 1.996-11.392 2.302-14.604a3.585 3.585 0 00-.034-.8c-.027-.158-.084-.383-.29-.55-.243-.197-.619-.24-.787-.236-.764.013-1.936.42-7.579 2.767C11.39 7.03 7.44 8.73 1.517 11.31z"/>
</svg>
