<svg viewBox="0 0 20 20">
  <path fill="#fff" fill-rule="evenodd" d="M10.924 4.625h4.91v3.57h-4.911v5.128c0 1.16-.013 1.829.116 2.157.13.328.455.668.809.863.471.266 1.006.4 1.611.4 1.075 0 2.145-.33 3.208-.988v3.153c-.907.402-1.728.687-2.465.847a11.16 11.16 0 01-2.386.244 6.877 6.877 0 01-2.288-.345 5.705 5.705 0 01-1.908-.988c-.53-.428-.893-.882-1.096-1.362-.205-.483-.306-1.181-.306-2.095V8.196H3.333V5.362c.834-.254 1.801-.62 2.394-1.096a5.541 5.541 0 001.434-1.717C7.52 1.88 7.77 1.03 7.904 0h3.02v4.625z" clip-rule="evenodd"/>
</svg>
