<svg viewBox="0 0 24 24">
  <g fill="#fff" fill-rule="evenodd">
    <path d="M18.434 15.574c-.484-.391-1.002-.743-1.511-1.102-1.016-.718-1.945-.773-2.703.38-.426.648-1.021.677-1.644.392-1.718-.782-3.044-1.989-3.821-3.743-.344-.777-.34-1.473.465-2.022.425-.29.854-.634.82-1.268-.045-.828-2.043-3.593-2.832-3.885a1.429 1.429 0 00-.984 0C4.373 4.95 3.606 6.48 4.34 8.292c2.19 5.405 6.043 9.167 11.349 11.463.302.13.638.183.808.23 1.208.012 2.623-1.158 3.032-2.318.393-1.117-.438-1.56-1.096-2.093zM12.485 4.88c3.879.6 5.668 2.454 6.162 6.38.045.363-.09.909.426.919.538.01.408-.528.413-.89.045-3.699-3.163-7.127-6.888-7.253-.281.04-.863-.195-.9.438-.024.427.466.357.787.406z"/>
    <path d="M13.244 5.957c-.373-.045-.865-.222-.953.299-.09.546.458.49.811.57 2.395.538 3.23 1.414 3.624 3.802.057.349-.057.89.532.8.436-.066.278-.53.315-.802.02-2.293-1.936-4.38-4.329-4.669z"/>
    <path d="M13.464 7.832c-.249.006-.493.033-.585.3-.137.4.152.496.446.544.983.158 1.5.74 1.598 1.725.027.268.195.484.452.454.356-.043.389-.361.378-.664.017-1.106-1.227-2.385-2.289-2.359z"/>
  </g>
</svg>
