<svg fill="#fff" viewBox="0 0 24 24">
  <path d="M23.058 19.504h-2.616c-.99 0-1.297-.787-3.076-2.59-1.55-1.501-2.236-1.704-2.617-1.704-.534 0-.687.153-.687.89v2.363c0 .636-.202 1.017-1.88 1.017-2.77 0-5.845-1.677-8.004-4.804C.925 10.103.034 6.672.034 5.961c0-.381.153-.737.89-.737H3.54c.66 0 .915.305 1.17 1.016 1.295 3.736 3.456 7.014 4.345 7.014.33 0 .483-.153.483-.99V8.399c-.102-1.78-1.042-1.931-1.042-2.566 0-.306.255-.61.66-.61h4.117c.56 0 .762.304.762.964v5.211c0 .558.255.762.407.762.33 0 .61-.204 1.22-.813 1.88-2.11 3.227-5.362 3.227-5.362.178-.381.483-.737 1.145-.737h2.616c.788 0 .966.405.788.965-.33 1.526-3.532 6.048-3.532 6.048-.28.457-.381.66 0 1.17.28.381 1.194 1.169 1.805 1.88 1.118 1.27 1.98 2.338 2.21 3.076.255.735-.128 1.116-.864 1.116z"/>
</svg>
