<svg xmlns="http://www.w3.org/2000/svg" viewBox="0 0 20 20">
  <path fill="#fff" fill-rule="evenodd" d="M7.832 13.14c-.129.515.687.546.8.077.046-.234-.129-.407-.353-.407-.208 0-.416.157-.447.33zm-.16 1.156c.127-.61-.384-1.063-.991-1.032-.575.047-1.054.438-1.15.923-.144.625.384 1.08.991 1.033.575-.032 1.054-.423 1.15-.924zm4.746-3.863c-1.983-1.22-4.634-1.236-6.775-.547-1.07.343-2.204 1.001-2.876 1.83-.783.97-1.102 2.22-.287 3.425 1.197 1.751 4.266 2.488 7.093 1.845 1.662-.375 3.436-1.282 4.187-2.846.702-1.44-.065-2.91-1.342-3.707zm-3.962.61c1.18.204 2.124.923 2.283 2.127.304 2.269-2.716 4.082-5.032 2.847a2.405 2.405 0 01-.756-.612 2.317 2.317 0 01-.17-2.72c.542-.938 1.581-1.548 2.683-1.657.33-.042.664-.037.992.014zm7.636-.453c-.335-.22-.672-.344-1.07-.469-.385-.126-.448-.188-.303-.563.095-.267.175-.501.207-.815.175-1.407-.991-1.829-2.317-1.72-.623.048-1.15.204-1.694.376-.351.11-1.007.47-1.15.25-.08-.11.017-.28.048-.391.207-.766.287-1.83-.48-2.3-.559-.343-1.534-.25-2.125-.047C4.014 5.976-.86 10.481.13 14.062c.225.813.688 1.423 1.135 1.861 1.326 1.298 3.387 2.019 5.288 2.283a13.63 13.63 0 004.218-.078c2.269-.406 4.442-1.407 5.849-3.19.942-1.19 1.246-2.878 0-3.958a4.158 4.158 0 00-.528-.39zm2.029-4.505c.815 1.814-.08 2.628.207 3.254.24.515.959.563 1.279.171.238-.297.367-1.173.383-1.563a5.031 5.031 0 00-.3-2.05 5.114 5.114 0 00-1.106-1.768c-1.23-1.313-2.844-1.766-4.617-1.594-.32.03-.575.078-.75.266-.416.438-.208 1.079.367 1.173.48.077 1.677-.281 3.02.484.622.376 1.213.97 1.517 1.628v-.001zm-4.312-.688c-.353.422-.098 1.064.51 1.047.367-.014.447-.06.846.063.383.126.782.548.8 1.048.03.328-.353 1.095.4 1.298a.667.667 0 00.67-.203c.143-.156.207-.454.24-.703.11-1.049-.417-1.955-1.263-2.472-.48-.281-1.806-.563-2.205-.078h.002z" clip-rule="evenodd"/>
</svg>
