<svg xmlns="http://www.w3.org/2000/svg" viewBox="0 0 20 20">
  <path fill="#fff" d="M19.54 9.215L4.16.121a.88.88 0 00-.907.01.927.927 0 00-.329.35.973.973 0 00-.116.472v2.45s5.11 2.068 5.527 2.23A.59.59 0 018.7 5.9c.082.136.11.3.079.457-.075.193-.233.171-.688.056C7.636 6.299.987 4.578.987 4.578a.77.77 0 00-.436.018.8.8 0 00-.362.254.862.862 0 00-.124.864l1.39 3.438s8.965.39 9.288.41c.318.02.507.18.512.438-.005.26-.194.418-.512.439-.323.018-9.289.409-9.289.409l-1.388 3.44a.862.862 0 00.125.862.8.8 0 00.362.254.77.77 0 00.435.018s6.65-1.72 7.103-1.835c.456-.115.613-.137.688.056a.634.634 0 01-.08.457.59.59 0 01-.363.268c-.416.16-5.527 2.23-5.527 2.23v2.449a.973.973 0 00.117.473.927.927 0 00.328.349.88.88 0 00.907.01l15.38-9.096a.863.863 0 00.335-.325.909.909 0 000-.918.864.864 0 00-.335-.325h-.001z"/>
</svg>
